<?xml version="1.0" encoding="utf-8"?>
<!-- Generator: Adobe Illustrator 21.0.2, SVG Export Plug-In . SVG Version: 6.00 Build 0)  -->
<svg version="1.1" id="Layer_1" xmlns="http://www.w3.org/2000/svg" xmlns:xlink="http://www.w3.org/1999/xlink" x="0px" y="0px"
	 viewBox="0 0 541.9 676.2" style="enable-background:new 0 0 541.9 676.2;" xml:space="preserve">
<style type="text/css">
	.st0{fill:#FFFFFF;}
	.st1{fill:#00A89C;}
	.st2{fill:url(#SVGID_1_);}
	.st3{fill:#414042;}
	.st4{fill:url(#SVGID_2_);}
	.st5{opacity:0.8;fill:url(#SVGID_3_);}
	.st6{opacity:0.3;fill:url(#SVGID_4_);}
	.st7{opacity:0.4;fill:url(#SVGID_5_);}
	.st8{opacity:0.3;fill:url(#SVGID_6_);}
	.st9{opacity:0.9;fill:url(#SVGID_7_);}
	.st10{opacity:0.9;fill:url(#SVGID_8_);}
	.st11{fill:url(#SVGID_9_);}
	.st12{fill:url(#SVGID_10_);}
</style>
<rect class="st0" width="541.9" height="676.2"/>
<circle class="st1" cx="245.2" cy="331.1" r="68.6"/>
<path class="st1" d="M333.4,236.6l86.9-150.5c-0.5,0.2-27,12.5-54.8,31.6L315.2,205L298,175.2c-7.6,8-14.9,16.4-21.9,25l0,0
	l48.5,84.1c0,0,0,0.1,0,0.1c8.1,13.7,12.7,29.6,12.7,46.7c0,50.9-41.3,92.2-92.2,92.2c-22.6,0-43.3-8.2-59.4-21.7
	c-1.9,11.7-3.4,23.5-4.3,35.5c18.6,11.2,40.4,17.6,63.7,17.6c68.3,0,123.7-55.4,123.7-123.7c0-23.4-6.5-45.3-17.8-63.9L333.4,236.6z
	"/>
<linearGradient id="SVGID_1_" gradientUnits="userSpaceOnUse" x1="121.5542" y1="261.5918" x2="420.3506" y2="261.5918">
	<stop  offset="1.226990e-02" style="stop-color:#00A89C"/>
	<stop  offset="7.975460e-02" style="stop-color:#00A89C"/>
	<stop  offset="9.342764e-02" style="stop-color:#00A89C"/>
	<stop  offset="0.4908" style="stop-color:#00A89C"/>
	<stop  offset="1" style="stop-color:#00A89C;stop-opacity:0.9"/>
</linearGradient>
<path class="st2" d="M153.1,331.1c0-17,4.6-33,12.7-46.7c0,0,79.2-137.1,79.5-137.7l30.9,53.5c7-8.6,14.3-16.9,21.9-24.9l-31.9-55.3
	c4.6-1.6,10.8-2.2,20.8-2.2h78.6c13.2-9,26.9-17.2,41-24.7c4.4-2.3,9-4.7,13.8-7H286.2c-37.4,1-47.2,8.3-61.4,33
	c0,0-86.2,149.4-86.3,149.5c-10.7,18.3-17,39.8-17,62.5c0,45,24.1,84.4,60,106c1-12,2.4-23.8,4.3-35.5
	C165.8,384.7,153.1,359.4,153.1,331.1z"/>
<path class="st3" d="M251.5,538.1V538c0-13.7-10-21.7-25.5-21.7h-24.1c-2.3,0-4.3,1.9-4.3,4v57.5h17v-15.5c0-1,1-2.1,1.9-2.1h6
	l11.9,17.6h19.7l-14.2-20.6C247.1,553.6,251.5,547.2,251.5,538.1z"/>
<path class="st3" d="M289,515.1c-19,0-33.2,14.3-33.2,32v0.1c0,17.7,14,31.8,33,31.8c19,0,33.2-14.4,33.2-32v-0.2
	C322.1,529.2,308,515.1,289,515.1z"/>
<path class="st3" d="M370.4,520.2v28.6l-25.3-32.5h-11.5c-2.4,0-4.4,2-4.4,4.4v57.1h16.9v-33.7l26.3,33.7h14.9v-61.5h-12.5
	C372.4,516.3,370.4,518,370.4,520.2z"/>
<path class="st3" d="M139.7,520.5v10.7h18.4v46.5h17v-44.6c0-1.1,0.9-1.9,2.1-1.9h16.3v-15h-49.6
	C141.7,516.3,139.7,518.3,139.7,520.5z"/>
<path class="st3" d="M57.1,516.3h-22c-2.3,0-4.4,1.8-4.4,4v57.5h17v-15.5c0-1,1-2.1,2-2.1h6.4c15.3,0,26.5-7.6,26.5-22.1V538
	C82.6,524.3,72.6,516.3,57.1,516.3z"/>
<path class="st3" d="M86.3,520.5v57.2h49.4v-14.5h-32.6v-7.4c0-1.1,1-2.3,2.1-2.3h26.6v-13.4h-28.7v-7c0-1.1,0.9-2.3,2-2.3h30.6
	v-14.5H90.7C88.4,516.3,86.3,518.2,86.3,520.5z"/>
<path class="st3" d="M488.3,539.5c-8.6-1.9-10.6-3.1-10.6-5.9v-0.2c0-2.2,2-4,6.1-4c3.8,0,7.8,1,11.8,2.9c0,0,0.9,0.4,1.3,0.7
	c1.2,0.5,2.5,1,4.2,0.6c1.2-0.3,2-1.3,3.1-2.6l5.3-7.5c-6.7-5.4-14.8-8.2-25.3-8.2c-14.7,0-23.8,8.3-23.8,19.7v0.2
	c0,12.6,10.1,16.3,23.2,19.3c8.3,1.9,10.3,3.3,10.3,5.9v0.2c0,2.7-2.4,4.2-7,4.2c-5.4,0-10.6-1.4-15.4-4.2c-1.4-0.7-3.1-1.6-5.3-1.1
	c-0.9,0.2-1.6,0.8-2.3,1.7l-6.4,7.7c7.5,6.7,17.9,10.1,28.8,10.1c14.9,0,24.8-7.5,24.8-20v-0.2C511.2,547.1,502.4,542.5,488.3,539.5
	z"/>
<path class="st3" d="M408.8,577.8l3.1-7.8c0.5-1.2,1.5-2.5,2.8-2.8h22l4.3,10.5h18.3l-26-61.5h-14c-2.1,0.2-2.9,1.3-3.6,2.8
	l-24.8,58.7H408.8z"/>
<path class="st0" d="M234.5,538.9c0,4.8-3.7,8-9.7,8h-10.2v-13.6c0-1.5,1.2-2.7,2.6-2.7h7.4c6.2,0,9.8,2.8,9.8,8.1V538.9z
	 M304.7,547.2c0,8.9-6.2,16.4-15.6,16.4c-9.3,0-15.7-7.7-15.7-16.6v-0.2c0-8.9,6.3-16.4,15.5-16.4c9.4,0,15.8,7.8,15.8,16.6V547.2z
	 M65.6,538.9c0,4.8-3.7,8-9.7,8h-8.1v-16.2h8c6.2,0,9.9,2.8,9.9,8.1V538.9z M425,536.5l6.9,17.5H418L425,536.5z"/>
<linearGradient id="SVGID_2_" gradientUnits="userSpaceOnUse" x1="184.0825" y1="164.5119" x2="316.8279" y2="275.8985">
	<stop  offset="1.226990e-02" style="stop-color:#00675D"/>
	<stop  offset="7.975460e-02" style="stop-color:#00675D"/>
	<stop  offset="0.5215" style="stop-color:#00675D;stop-opacity:0"/>
	<stop  offset="1" style="stop-color:#00675D;stop-opacity:0"/>
</linearGradient>
<path class="st4" d="M153.1,331.1c0-17,4.6-33,12.7-46.7c0,0,79.2-137.1,79.5-137.7l30.9,53.5c7-8.6,14.3-16.9,21.9-24.9l-31.9-55.3
	c4.6-1.6,10.8-2.2,20.8-2.2h78.6c13.2-9,26.9-17.2,41-24.7c4.4-2.3,9-4.7,13.8-7H286.2c-37.4,1-47.2,8.3-61.4,33
	c0,0-86.2,149.4-86.3,149.5c-10.7,18.3-17,39.8-17,62.5c0,45,24.1,84.4,60,106c1-12,2.4-23.8,4.3-35.5
	C165.8,384.7,153.1,359.4,153.1,331.1z"/>
<linearGradient id="SVGID_3_" gradientUnits="userSpaceOnUse" x1="246.3151" y1="144.4852" x2="285.1385" y2="164.2667">
	<stop  offset="0" style="stop-color:#00675D"/>
	<stop  offset="0.2393" style="stop-color:#00675D;stop-opacity:0.7"/>
	<stop  offset="0.3224" style="stop-color:#00675D;stop-opacity:0.6235"/>
	<stop  offset="1" style="stop-color:#00675D;stop-opacity:0"/>
</linearGradient>
<path class="st5" d="M269,174.1c0.5-13,5.9-20,11.3-29.3l-14.2-24.8c-8.4,4.1-14,14.9-20.9,26.8l25.9,45.1
	C269.7,186.2,268.7,180.3,269,174.1z"/>
<linearGradient id="SVGID_4_" gradientUnits="userSpaceOnUse" x1="212.7084" y1="301.3639" x2="369.9453" y2="343.4954">
	<stop  offset="0" style="stop-color:#00675D"/>
	<stop  offset="0.2883" style="stop-color:#00675D"/>
	<stop  offset="0.312" style="stop-color:#00675D;stop-opacity:0.9667"/>
	<stop  offset="1" style="stop-color:#00675D;stop-opacity:0"/>
</linearGradient>
<path class="st6" d="M333.4,236.6L315.2,205L298,175.2c-7.6,8-14.9,16.4-21.9,25l0,0l48.5,84.1c0,0,0,0.1,0,0.1
	c8.1,13.7,12.7,29.6,12.7,46.7c0,50.9-41.3,92.2-92.2,92.2c-22.6,0-43.3-8.2-59.4-21.7c-1.9,11.7-3.4,23.5-4.3,35.5
	c18.6,11.2,40.4,17.6,63.7,17.6c68.3,0,123.7-55.4,123.7-123.7c0-23.4-6.5-45.3-17.8-63.9L333.4,236.6z"/>
<linearGradient id="SVGID_5_" gradientUnits="userSpaceOnUse" x1="315.1856" y1="161.3276" x2="420.3506" y2="161.3276">
	<stop  offset="0" style="stop-color:#00675D"/>
	<stop  offset="0.2761" style="stop-color:#00675D"/>
	<stop  offset="1" style="stop-color:#00675D;stop-opacity:0.2"/>
</linearGradient>
<path class="st7" d="M333.4,236.6l86.9-150.5c-0.5,0.2-27,12.5-54.8,31.6L315.2,205L333.4,236.6z"/>
<linearGradient id="SVGID_6_" gradientUnits="userSpaceOnUse" x1="206.2492" y1="306.1839" x2="303.0615" y2="367.979">
	<stop  offset="1.226990e-02" style="stop-color:#00675D"/>
	<stop  offset="8.588960e-02" style="stop-color:#00675D"/>
	<stop  offset="0.1249" style="stop-color:#00675D;stop-opacity:0.9573"/>
	<stop  offset="1" style="stop-color:#00675D;stop-opacity:0"/>
</linearGradient>
<path class="st8" d="M245.2,262.5c-4,0-7.9,0.4-11.7,1c-18.7,34.1-33.1,71.1-42.1,110.1c12.6,15.9,32,26.1,53.8,26.1
	c37.9,0,68.6-30.7,68.6-68.6C313.8,293.2,283.1,262.5,245.2,262.5z"/>
<linearGradient id="SVGID_7_" gradientUnits="userSpaceOnUse" x1="224.642" y1="453.837" x2="281.1876" y2="256.6393">
	<stop  offset="0" style="stop-color:#00675D"/>
	<stop  offset="0.4172" style="stop-color:#00675D"/>
	<stop  offset="1" style="stop-color:#00675D;stop-opacity:0.7"/>
</linearGradient>
<path class="st9" d="M367.2,327.4c0,68.3-55.4,123.7-123.7,123.7c-23.3,0-45.1-6.5-63.7-17.6v0c-20.9-12.6-37.7-31.1-48.2-53.3
	c10.3,23.8,27.8,43.7,49.9,56.9v0c18.6,11.2,40.4,17.6,63.7,17.6c68.3,0,123.7-55.4,123.7-123.7c0-18.8-4.2-36.7-11.8-52.7
	C363.6,293.4,367.2,310,367.2,327.4z"/>
<linearGradient id="SVGID_8_" gradientUnits="userSpaceOnUse" x1="232.647" y1="403.0344" x2="300.4839" y2="285.5374">
	<stop  offset="0" style="stop-color:#00675D"/>
	<stop  offset="0.5215" style="stop-color:#00675D"/>
	<stop  offset="1" style="stop-color:#00675D;stop-opacity:0.4"/>
</linearGradient>
<path class="st10" d="M291.3,280.2c12.1,12.4,19.6,29.3,19.6,48c0,37.9-30.7,68.6-68.6,68.6c-17.7,0-33.9-6.7-46.1-17.8
	c12.5,12.7,29.8,20.6,49,20.6c37.9,0,68.6-30.7,68.6-68.6C313.8,310.9,305.1,292.8,291.3,280.2z"/>
<linearGradient id="SVGID_9_" gradientUnits="userSpaceOnUse" x1="146.1437" y1="274.1414" x2="252.879" y2="266.6777">
	<stop  offset="0" style="stop-color:#00675D"/>
	<stop  offset="0.5706" style="stop-color:#00675D"/>
	<stop  offset="1" style="stop-color:#00675D;stop-opacity:0"/>
</linearGradient>
<path class="st11" d="M244.6,147.8l-2.3-3.9c-0.3,0.6-79.5,137.7-79.5,137.7c-8.1,13.7-12.7,29.7-12.7,46.7
	c0,26.5,11.2,50.4,29.1,67.2c-16.2-16.6-26.2-39.3-26.2-64.3c0-17,4.6-33,12.7-46.7C165.7,284.4,237.2,160.6,244.6,147.8z"/>
<linearGradient id="SVGID_10_" gradientUnits="userSpaceOnUse" x1="226.378" y1="144.5442" x2="371.4512" y2="144.5442">
	<stop  offset="0" style="stop-color:#00A89C;stop-opacity:0"/>
	<stop  offset="0.1718" style="stop-color:#00A89C"/>
	<stop  offset="1" style="stop-color:#00A89C"/>
</linearGradient>
<path class="st12" d="M371.5,113.8h-86.8c-10,0-16.2,0.6-20.8,2.2l0,0v0c-8.4,4.1-14,14.9-20.9,26.8l-16.5,28.6l2.3,4l16.5-28.6
	c6.9-11.8,12.5-22.7,20.9-26.8v0l0,0c4.6-1.6,10.8-2.2,20.8-2.2h78.6L371.5,113.8z"/>
</svg>
