<svg xmlns="http://www.w3.org/2000/svg" width="19.808" height="17.149" viewBox="0 0 19.808 17.149">
  <g id="common-img-setting" transform="translate(0 0)">
    <path id="Path_1493" data-name="Path 1493" d="M142.565,65.248a1.444,1.444,0,1,0-1.444-1.444A1.446,1.446,0,0,0,142.565,65.248Zm0-2.308a.864.864,0,1,1-.864.864A.865.865,0,0,1,142.565,62.939Zm0,0" transform="translate(-135.661 -59.946)"/>
    <path id="Path_1494" data-name="Path 1494" d="M49.227,40.715H48.085a3.733,3.733,0,0,0-.223-.536l.808-.808a.506.506,0,0,0,0-.716l-.922-.922a.506.506,0,0,0-.716,0l-.808.808a3.718,3.718,0,0,0-.536-.223V37.176a.5.5,0,0,0-.129-.336V35.16a.29.29,0,1,0-.58,0v1.51h-.624V31.422a.29.29,0,0,0-.29-.29H31.419a.29.29,0,0,0-.29.29v9.956a.29.29,0,0,0,.29.29h7.907v.624H36.352a.29.29,0,1,0,0,.58h3.114a.5.5,0,0,0,.367.159h1.142a3.723,3.723,0,0,0,.223.536l-.808.808a.506.506,0,0,0,0,.716l.922.922a.506.506,0,0,0,.716,0l.808-.808a3.726,3.726,0,0,0,.536.223V46.57a.507.507,0,0,0,.506.506h1.3a.507.507,0,0,0,.506-.506V45.428a3.741,3.741,0,0,0,.536-.223l.808.808a.507.507,0,0,0,.716,0l.922-.922a.506.506,0,0,0,0-.716l-.808-.808a3.726,3.726,0,0,0,.223-.536h1.142a.507.507,0,0,0,.506-.506v-1.3a.507.507,0,0,0-.506-.506Zm-17.517-9H43.775v4.968a.508.508,0,0,0-.4.5v.463l-2.644-3.865a.6.6,0,0,0-.983,0l-3.011,4.4-1.457-2.128a.6.6,0,0,0-.982,0L31.71,39.775Zm3.028,9.375H31.71v-.294l3.063-4.422a.013.013,0,0,1,.013-.007.013.013,0,0,1,.013.007l1.584,2.314-1.645,2.4Zm4.607,0h-3.9L40.224,34.1a.013.013,0,0,1,.013-.007.013.013,0,0,1,.013.007l2.93,4.284c-.119.046-.245.1-.344.154l-.808-.808a.506.506,0,0,0-.716,0l-.922.922a.506.506,0,0,0,0,.716l.808.808a3.725,3.725,0,0,0-.223.536H39.833a.508.508,0,0,0-.488.373Zm9.808,1.364H48.03a.5.5,0,0,0-.483.357,3.165,3.165,0,0,1-.223.536.5.5,0,0,0,.089.595l.794.794-.818.818-.794-.794a.5.5,0,0,0-.6-.089,3.146,3.146,0,0,1-.535.223.5.5,0,0,0-.357.483V46.5H43.952V45.374a.5.5,0,0,0-.357-.483,3.157,3.157,0,0,1-.535-.222.5.5,0,0,0-.6.089l-.794.794-.818-.818.794-.794a.5.5,0,0,0,.089-.6,3.13,3.13,0,0,1-.223-.536.5.5,0,0,0-.483-.357H39.907V41.3h1.122a.5.5,0,0,0,.483-.357,3.145,3.145,0,0,1,.222-.535.506.506,0,0,0-.089-.6l-.794-.794.818-.818.794.794a.5.5,0,0,0,.6.089,3.135,3.135,0,0,1,.535-.222h0a.5.5,0,0,0,.355-.483V37.25h1.156v1.122a.5.5,0,0,0,.357.483,3.146,3.146,0,0,1,.535.222.5.5,0,0,0,.6-.089l.794-.794.817.818-.794.794a.5.5,0,0,0-.089.6,3.15,3.15,0,0,1,.223.535.5.5,0,0,0,.483.357h1.122Zm0,0" transform="translate(-29.925 -29.928)"/>
    <path id="Path_1495" data-name="Path 1495" d="M317.988,246.982a2.391,2.391,0,0,0,.127,4.778c.04,0,.081,0,.121,0a2.391,2.391,0,1,0-.248-4.775Zm1.932,2.482a1.81,1.81,0,1,1-1.9-1.9l.092,0a1.81,1.81,0,0,1,1.811,1.9Zm0,0" transform="translate(-303.507 -237.423)"/>
    <path id="Path_1496" data-name="Path 1496" d="M.6,12.945H5.073a.29.29,0,0,0,0-.58H.6a.02.02,0,0,1-.019-.019V.6A.02.02,0,0,1,.6.581H15.035A.02.02,0,0,1,15.054.6V3.878a.29.29,0,1,0,.58,0V.6a.6.6,0,0,0-.6-.6H.6A.6.6,0,0,0,0,.6V12.345a.6.6,0,0,0,.6.6Zm0,0" transform="translate(0 0)"/>
  </g>
</svg>
