<svg xmlns="http://www.w3.org/2000/svg" width="24.167" height="21.909" viewBox="0 0 24.167 21.909">
  <defs>
    <style>
      .cls-1 {
        fill: #fff;
      }
    </style>
  </defs>
  <g id="cop-mgmt-white" transform="translate(-15.667 -658.091)">
    <path id="Subtraction_3" data-name="Subtraction 3" class="cls-1" d="M-7995.341-4532.4h-.993a.378.378,0,0,1-.377-.377v-1.359a5.183,5.183,0,0,1-1-.416l-.96.962a.39.39,0,0,1-.268.107.389.389,0,0,1-.268-.107l-1.6-1.6a.38.38,0,0,1,0-.534l.96-.962a5.171,5.171,0,0,1-.414-1h-1.357a.379.379,0,0,1-.379-.377v-2.268a.379.379,0,0,1,.379-.377h1.357a5.23,5.23,0,0,1,.416-1l-.962-.96a.38.38,0,0,1,0-.534l1.6-1.6a.378.378,0,0,1,.268-.11.38.38,0,0,1,.268.11l.96.962a5.188,5.188,0,0,1,1-.416v-1.357a.378.378,0,0,1,.377-.377h2.268a.379.379,0,0,1,.379.377v1.357a5.183,5.183,0,0,1,1,.416l.96-.962a.378.378,0,0,1,.268-.11.378.378,0,0,1,.268.11l1.6,1.6a.38.38,0,0,1,0,.534l-.96.96,0,.005c-.243.082-.482.176-.711.28-.027-.047-.056-.1-.088-.148a.382.382,0,0,1,.054-.466l.9-.9-1.07-1.07-.9.9a.374.374,0,0,1-.266.111.386.386,0,0,1-.2-.057,4.443,4.443,0,0,0-1.329-.55.38.38,0,0,1-.292-.369v-1.27h-1.51v1.27a.38.38,0,0,1-.291.369,4.425,4.425,0,0,0-1.33.55.387.387,0,0,1-.2.057.375.375,0,0,1-.267-.111l-.9-.9-1.07,1.07.9.9a.379.379,0,0,1,.054.466,4.5,4.5,0,0,0-.552,1.329.376.376,0,0,1-.367.292h-1.27v1.51h1.27a.376.376,0,0,1,.367.293,4.5,4.5,0,0,0,.552,1.328.375.375,0,0,1-.054.466l-.9.9,1.07,1.068.9-.9a.375.375,0,0,1,.267-.112.374.374,0,0,1,.2.058,4.481,4.481,0,0,0,1.33.55.377.377,0,0,1,.291.37v1.269h.425a7.381,7.381,0,0,0,.188.753Zm.048-4.537h0a2.261,2.261,0,0,1-2.172-2.265,2.27,2.27,0,0,1,2.267-2.267,2.281,2.281,0,0,1,2.041,1.279,7.623,7.623,0,0,0-.584.582,1.516,1.516,0,0,0-1.457-1.1,1.513,1.513,0,0,0-1.512,1.51,1.514,1.514,0,0,0,1.512,1.512,1.56,1.56,0,0,0,.206-.014,7.551,7.551,0,0,0-.3.767Z" transform="translate(8017.668 5204.09)"/>
    <path id="globe" class="cls-1" d="M16.653,9.917a6.735,6.735,0,1,0-11.7,4.542L3.516,15.892a.331.331,0,0,0,.468.468l1.434-1.434A6.732,6.732,0,0,0,16.653,9.917Zm-3.485-.331h-2.92V4.153A7.481,7.481,0,0,1,13.168,9.587ZM9.587,3.852V9.587H6.667A7.178,7.178,0,0,1,8.491,5.2a.331.331,0,1,0-.5-.435A7.826,7.826,0,0,0,6.006,9.587H3.852A6.083,6.083,0,0,1,9.587,3.852Zm-5.735,6.4H6.005a8.043,8.043,0,0,0,2.807,5.643A6.086,6.086,0,0,1,3.852,10.248Zm2.815,0h2.92v5.43A7.411,7.411,0,0,1,6.667,10.248Zm3.581,5.735V10.248h2.919a7.2,7.2,0,0,1-1.937,4.51.331.331,0,0,0,.489.445,7.85,7.85,0,0,0,2.11-4.955h1.047a.331.331,0,1,0,0-.661H13.829a8.044,8.044,0,0,0-2.806-5.642,6.074,6.074,0,0,1-.776,12.038Zm7.1.944-1.6-1.6a.331.331,0,1,0-.467.467L16.894,17.4a1.59,1.59,0,1,0,.459-.476Zm.891,2.247a.93.93,0,1,1,.93-.93A.931.931,0,0,1,18.244,19.173ZM1.591,16.653a1.591,1.591,0,1,0,1.591,1.591A1.593,1.593,0,0,0,1.591,16.653Zm0,2.521a.93.93,0,1,1,.93-.93A.931.931,0,0,1,1.591,19.173ZM15.75,4.511l1.6-1.6a1.591,1.591,0,1,0-.459-.476L15.283,4.043a.331.331,0,0,0,.468.468ZM18.244.661a.93.93,0,1,1-.93.93A.931.931,0,0,1,18.244.661Z" transform="translate(20 660.166)"/>
  </g>
</svg>
