<svg xmlns="http://www.w3.org/2000/svg" width="19.834" height="19.834" viewBox="0 0 19.834 19.834">
  <g id="cop-cat" transform="translate(-20 -624.166)">
    <path id="cop-cat-2" data-name="cop-cat" d="M16.653,9.917a6.735,6.735,0,1,0-11.7,4.542L3.516,15.892a.331.331,0,0,0,.468.468l1.434-1.434A6.732,6.732,0,0,0,16.653,9.917Zm-3.485-.331h-2.92V4.153A7.481,7.481,0,0,1,13.168,9.587ZM9.587,3.852V9.587H6.667A7.178,7.178,0,0,1,8.491,5.2a.331.331,0,1,0-.5-.435A7.826,7.826,0,0,0,6.006,9.587H3.852A6.083,6.083,0,0,1,9.587,3.852Zm-5.735,6.4H6.005a8.043,8.043,0,0,0,2.807,5.643A6.086,6.086,0,0,1,3.852,10.248Zm2.815,0h2.92v5.43A7.411,7.411,0,0,1,6.667,10.248Zm3.581,5.735V10.248h2.919a7.2,7.2,0,0,1-1.937,4.51.331.331,0,0,0,.489.445,7.85,7.85,0,0,0,2.11-4.955h1.047a.331.331,0,1,0,0-.661H13.829a8.044,8.044,0,0,0-2.806-5.642,6.074,6.074,0,0,1-.776,12.038Zm7.1.944-1.6-1.6a.331.331,0,1,0-.467.467L16.894,17.4a1.59,1.59,0,1,0,.459-.476Zm.891,2.247a.93.93,0,1,1,.93-.93A.931.931,0,0,1,18.244,19.173ZM1.591,16.653a1.591,1.591,0,1,0,1.591,1.591A1.593,1.593,0,0,0,1.591,16.653Zm0,2.521a.93.93,0,1,1,.93-.93A.931.931,0,0,1,1.591,19.173ZM15.75,4.511l1.6-1.6a1.591,1.591,0,1,0-.459-.476L15.283,4.043a.331.331,0,0,0,.468.468ZM18.244.661a.93.93,0,1,1-.93.93A.931.931,0,0,1,18.244.661Z" transform="translate(20 624.166)"/>
    <path id="globe" d="M16.653,9.917a6.735,6.735,0,1,0-11.7,4.542L3.516,15.892a.331.331,0,0,0,.468.468l1.434-1.434A6.732,6.732,0,0,0,16.653,9.917Zm-3.485-.331h-2.92V4.153A7.481,7.481,0,0,1,13.168,9.587ZM9.587,3.852V9.587H6.667A7.178,7.178,0,0,1,8.491,5.2a.331.331,0,1,0-.5-.435A7.826,7.826,0,0,0,6.006,9.587H3.852A6.083,6.083,0,0,1,9.587,3.852Zm-5.735,6.4H6.005a8.043,8.043,0,0,0,2.807,5.643A6.086,6.086,0,0,1,3.852,10.248Zm2.815,0h2.92v5.43A7.411,7.411,0,0,1,6.667,10.248Zm3.581,5.735V10.248h2.919a7.2,7.2,0,0,1-1.937,4.51.331.331,0,0,0,.489.445,7.85,7.85,0,0,0,2.11-4.955h1.047a.331.331,0,1,0,0-.661H13.829a8.044,8.044,0,0,0-2.806-5.642,6.074,6.074,0,0,1-.776,12.038Zm7.1.944-1.6-1.6a.331.331,0,1,0-.467.467L16.894,17.4a1.59,1.59,0,1,0,.459-.476Zm.891,2.247a.93.93,0,1,1,.93-.93A.931.931,0,0,1,18.244,19.173ZM1.591,16.653a1.591,1.591,0,1,0,1.591,1.591A1.593,1.593,0,0,0,1.591,16.653Zm0,2.521a.93.93,0,1,1,.93-.93A.931.931,0,0,1,1.591,19.173ZM15.75,4.511l1.6-1.6a1.591,1.591,0,1,0-.459-.476L15.283,4.043a.331.331,0,0,0,.468.468ZM18.244.661a.93.93,0,1,1-.93.93A.931.931,0,0,1,18.244.661Z" transform="translate(39.834 644) rotate(180)"/>
  </g>
</svg>
