<svg xmlns="http://www.w3.org/2000/svg" width="16.323" height="18.835" viewBox="0 0 16.323 18.835">
  <defs>
    <style>
      .cls-1 {
        fill: #fff;
      }
    </style>
  </defs>
  <g id="email-pref-white" transform="translate(-0.5)">
    <path id="Path_31" data-name="Path 31" class="cls-1" d="M15.254,0H3.325a1.571,1.571,0,0,0-1.57,1.57V8.645L.627,9.48s0,.006-.007.008a.312.312,0,0,0-.081.1.2.2,0,0,0-.009.02A.309.309,0,0,0,.5,9.731v8.8a.3.3,0,0,0,0,.033.318.318,0,0,0,.011.059.015.015,0,0,0,0,.008.218.218,0,0,0,.013.024.313.313,0,0,0,.027.049.293.293,0,0,0,.1.088.293.293,0,0,0,.024.016c.009,0,.01,0,.015,0a.309.309,0,0,0,.12.027h14.44a.311.311,0,0,0,.119-.027s.01,0,.014,0l.025-.016a.363.363,0,0,0,.1-.088.313.313,0,0,0,.027-.049.244.244,0,0,0,.013-.024.017.017,0,0,1,0-.008.306.306,0,0,0,.011-.059.3.3,0,0,0,.006-.033v-8.8a.311.311,0,0,0-.031-.128c0-.007-.005-.013-.009-.02a.31.31,0,0,0-.081-.1s0-.006-.007-.009l-1.127-.834V2.511h2.2a.314.314,0,0,0,.314-.314V1.57A1.571,1.571,0,0,0,15.254,0ZM2.383,1.57A.942.942,0,0,1,3.325.628H14c-.009.012-.016.026-.025.038s-.034.054-.052.081a1.569,1.569,0,0,0-.089.163q-.022.047-.04.094a1.546,1.546,0,0,0-.058.186c-.008.03-.017.058-.022.089a1.564,1.564,0,0,0-.029.29V10.5l-1.828,1.35L9.649,13.483,8.234,12.314a.314.314,0,0,0-.4,0L6.418,13.483,4.211,11.851,2.383,10.5ZM14.94,10.354v7.5l-4.046-3.343-.746-.616,4.037-2.984ZM5.174,14.512,1.128,17.854v-7.5l.755.558L5.92,13.9ZM1.756,9.425v.612l-.142-.1-.272-.2Zm-.069,8.781L5.574,15l1.055-.872,1.4-1.159,1.4,1.162L10.494,15l3.887,3.209ZM14.454,9.932l-.142.1V9.425l.413.306ZM16.2,1.883H14.312V1.57a.942.942,0,1,1,1.883,0Zm0,0"/>
    <path id="Path_32" data-name="Path 32" class="cls-1" d="M144.5,48h3.767v.628H144.5Zm0,0" transform="translate(-138.35 -46.117)"/>
    <path id="Path_33" data-name="Path 33" class="cls-1" d="M112.5,80h6.278v.628H112.5Zm0,0" transform="translate(-107.605 -76.861)"/>
    <path id="Path_34" data-name="Path 34" class="cls-1" d="M64.5,112h2.511v.628H64.5Zm0,0" transform="translate(-61.489 -107.605)"/>
    <path id="Path_35" data-name="Path 35" class="cls-1" d="M96.5,144h8.79v.628H96.5Zm0,0" transform="translate(-92.233 -138.35)"/>
    <path id="Path_36" data-name="Path 36" class="cls-1" d="M64.5,176H74.545v.628H64.5Zm0,0" transform="translate(-61.489 -169.094)"/>
    <path id="Path_37" data-name="Path 37" class="cls-1" d="M64.5,208H74.545v.628H64.5Zm0,0" transform="translate(-61.489 -199.838)"/>
    <path id="Path_38" data-name="Path 38" class="cls-1" d="M64.5,240h8.162v.628H64.5Zm0,0" transform="translate(-61.489 -230.583)"/>
    <path id="Path_39" data-name="Path 39" class="cls-1" d="M224.5,272h2.511v.628H224.5Zm0,0" transform="translate(-215.21 -261.327)"/>
  </g>
</svg>
