<svg xmlns="http://www.w3.org/2000/svg" width="23.023" height="18.418" viewBox="0 0 23.023 18.418">
  <defs>
    <style>
      .cls-1 {
        fill: #fff;
      }
    </style>
  </defs>
  <g id="expert-iv-white" transform="translate(0 -48.001)">
    <g id="Group_454" data-name="Group 454" transform="translate(0 48.001)">
      <g id="Group_453" data-name="Group 453">
        <path id="Path_13" data-name="Path 13" class="cls-1" d="M20.72,48H10.744a2.3,2.3,0,0,0-2.3,2.3v4.6H2.3A2.3,2.3,0,0,0,0,57.21v5.372a2.306,2.306,0,0,0,1.919,2.27v1.183a.384.384,0,0,0,.655.271L4,64.884h8.283a2.3,2.3,0,0,0,2.3-2.3v-4.6h4.446L20.449,59.4a.384.384,0,0,0,.655-.271V57.946a2.306,2.306,0,0,0,1.919-2.27V50.3A2.3,2.3,0,0,0,20.72,48ZM13.814,62.582a1.535,1.535,0,0,1-1.535,1.535H3.837a.384.384,0,0,0-.271.112l-.88.88V64.5a.384.384,0,0,0-.384-.384A1.535,1.535,0,0,1,.767,62.582V57.21A1.535,1.535,0,0,1,2.3,55.675h9.977a1.535,1.535,0,0,1,1.535,1.535Zm8.442-6.907A1.535,1.535,0,0,1,20.72,57.21a.384.384,0,0,0-.384.384V58.2l-.88-.88a.384.384,0,0,0-.271-.112h-4.6a2.3,2.3,0,0,0-2.3-2.3H9.209V50.3a1.535,1.535,0,0,1,1.535-1.535H20.72A1.535,1.535,0,0,1,22.255,50.3Z" transform="translate(0 -48.001)"/>
      </g>
    </g>
    <g id="Group_456" data-name="Group 456" transform="translate(3.07 58.745)">
      <g id="Group_455" data-name="Group 455">
        <path id="Path_14" data-name="Path 14" class="cls-1" d="M65.151,272a1.151,1.151,0,1,0,1.151,1.151A1.151,1.151,0,0,0,65.151,272Zm0,1.535a.384.384,0,1,1,.384-.384A.384.384,0,0,1,65.151,273.536Z" transform="translate(-64 -272.001)"/>
      </g>
    </g>
    <g id="Group_458" data-name="Group 458" transform="translate(6.139 58.745)">
      <g id="Group_457" data-name="Group 457">
        <path id="Path_15" data-name="Path 15" class="cls-1" d="M129.151,272a1.151,1.151,0,1,0,1.151,1.151A1.151,1.151,0,0,0,129.151,272Zm0,1.535a.384.384,0,1,1,.384-.384A.384.384,0,0,1,129.151,273.536Z" transform="translate(-128 -272.001)"/>
      </g>
    </g>
    <g id="Group_460" data-name="Group 460" transform="translate(9.209 58.745)">
      <g id="Group_459" data-name="Group 459">
        <path id="Path_16" data-name="Path 16" class="cls-1" d="M193.151,272a1.151,1.151,0,1,0,1.151,1.151A1.151,1.151,0,0,0,193.151,272Zm0,1.535a.384.384,0,1,1,.384-.384A.384.384,0,0,1,193.151,273.536Z" transform="translate(-192 -272.001)"/>
      </g>
    </g>
    <g id="Group_466" data-name="Group 466" transform="translate(11.05 51.835)">
      <g id="Group_465" data-name="Group 465" transform="translate(0 0)">
        <rect id="Rectangle_360" data-name="Rectangle 360" class="cls-1" width="1" height="1" transform="translate(0.138 0.386)"/>
      </g>
    </g>
    <g id="Group_468" data-name="Group 468" transform="translate(13.26 51.835)">
      <g id="Group_467" data-name="Group 467" transform="translate(0 0)">
        <rect id="Rectangle_361" data-name="Rectangle 361" class="cls-1" width="1" height="1" transform="translate(-0.072 0.386)"/>
      </g>
    </g>
    <g id="Group_470" data-name="Group 470" transform="translate(11.05 54.045)">
      <g id="Group_469" data-name="Group 469" transform="translate(0 0)">
        <rect id="Rectangle_362" data-name="Rectangle 362" class="cls-1" width="10" transform="translate(0.138 0.176)"/>
      </g>
    </g>
    <g id="Group_472" data-name="Group 472" transform="translate(15.47 55.15)">
      <g id="Group_471" data-name="Group 471" transform="translate(0 0)">
        <rect id="Rectangle_363" data-name="Rectangle 363" class="cls-1" width="2" transform="translate(-0.282 0.071)"/>
      </g>
    </g>
    <g id="Group_474" data-name="Group 474" transform="translate(18.786 55.15)">
      <g id="Group_473" data-name="Group 473" transform="translate(0 0)">
        <rect id="Rectangle_364" data-name="Rectangle 364" class="cls-1" width="2" transform="translate(0.403 0.071)"/>
      </g>
    </g>
    <g id="Group_476" data-name="Group 476" transform="translate(19.891 51.835)">
      <g id="Group_475" data-name="Group 475" transform="translate(0 0)">
        <rect id="Rectangle_365" data-name="Rectangle 365" class="cls-1" width="1" height="1" transform="translate(0.298 0.386)"/>
      </g>
    </g>
    <g id="Group_478" data-name="Group 478" transform="translate(15.47 51.835)">
      <g id="Group_467-2" data-name="Group 467" transform="translate(0 0)">
        <rect id="Rectangle_361-2" data-name="Rectangle 361" class="cls-1" width="1" height="1" transform="translate(-0.282 0.386)"/>
      </g>
    </g>
    <g id="Group_480" data-name="Group 480" transform="translate(17.681 51.835)">
      <g id="Group_467-3" data-name="Group 467" transform="translate(0 0)">
        <rect id="Rectangle_361-3" data-name="Rectangle 361" class="cls-1" width="2" height="1" transform="translate(-0.492 0.386)"/>
      </g>
    </g>
  </g>
</svg>
