<svg xmlns="http://www.w3.org/2000/svg" width="22.232" height="22" viewBox="0 0 22.232 22">
  <defs>
    <style>
      .cls-1 {
        fill: #fff;
      }
    </style>
  </defs>
  <path id="faq-white" class="cls-1" d="M.741,13.106v2.872a.742.742,0,0,0,.741.741.371.371,0,1,1,0,.741A1.484,1.484,0,0,1,0,15.978V13.106a1.484,1.484,0,0,1,1.482-1.482.371.371,0,0,1,0,.741A.742.742,0,0,0,.741,13.106Zm20.008-1.482a.371.371,0,1,0,0,.741.742.742,0,0,1,.741.741v2.872a.742.742,0,0,1-.741.741.371.371,0,1,0,0,.741,1.484,1.484,0,0,0,1.482-1.482V13.106A1.484,1.484,0,0,0,20.749,11.624ZM4.632,9.725v.463h.093a1.484,1.484,0,0,1,1.482,1.482v5.743A1.484,1.484,0,0,1,4.724,18.9H3.983A1.484,1.484,0,0,1,2.5,17.414V11.671a1.484,1.484,0,0,1,1.389-1.479V9.725a7.225,7.225,0,0,1,14.451,0v.466a1.484,1.484,0,0,1,1.389,1.479v5.743A1.484,1.484,0,0,1,18.248,18.9h-.741a1.484,1.484,0,0,1-1.482-1.482V11.671a1.484,1.484,0,0,1,1.482-1.482H17.6V9.725a6.484,6.484,0,1,0-12.968,0Zm13.617,1.2h-.741a.742.742,0,0,0-.741.741v5.743a.742.742,0,0,0,.741.741h.741a.742.742,0,0,0,.741-.741V11.671A.742.742,0,0,0,18.248,10.929Zm-14.265,0a.742.742,0,0,0-.741.741v5.743a.742.742,0,0,0,.741.741h.741a.742.742,0,0,0,.741-.741V11.671a.742.742,0,0,0-.741-.741Zm17.183,7.92A4.451,4.451,0,0,1,16.72,23.3h-.693a1.575,1.575,0,1,1,0-.741h.693a3.709,3.709,0,0,0,3.705-3.705.371.371,0,0,1,.741,0Zm-5.836,4.076a.834.834,0,1,0-.834.834A.835.835,0,0,0,15.331,22.925Zm-.895-8.04a.371.371,0,0,0-.711-.208,2.717,2.717,0,0,1-5.217,0,.371.371,0,0,0-.711.208,3.458,3.458,0,0,0,6.64,0ZM8.769,11.269A.733.733,0,1,1,8.036,12a.734.734,0,0,1,.733-.733ZM8.761,12c0,.009.015.009.015,0S8.761,11.994,8.761,12Zm4.7-.71a.71.71,0,1,1-.71.71A.711.711,0,0,1,13.462,11.292Zm-.031.71a.031.031,0,0,0,.062,0A.031.031,0,0,0,13.432,12Z" transform="translate(0 -2.5)"/>
</svg>
