<svg xmlns="http://www.w3.org/2000/svg" width="22.834" height="11.505" viewBox="0 0 22.834 11.505">
  <defs>
    <style>
      .cls-1 {
        fill: #fff;
      }
    </style>
  </defs>
  <g id="game-mecha-white" transform="translate(0 -119.047)">
    <g id="Group_496" data-name="Group 496" transform="translate(15.601 120.57)">
      <g id="Group_495" data-name="Group 495" transform="translate(0 0)">
        <path id="Path_44" data-name="Path 44" class="cls-1" d="M329.385,151.047a1.523,1.523,0,1,0,1.523,1.523A1.523,1.523,0,0,0,329.385,151.047Zm0,2.284a.761.761,0,1,1,.761-.761A.761.761,0,0,1,329.385,153.331Z" transform="translate(-327.862 -151.047)"/>
      </g>
    </g>
    <g id="Group_498" data-name="Group 498" transform="translate(15.601 125.899)">
      <g id="Group_497" data-name="Group 497" transform="translate(0 0)">
        <path id="Path_45" data-name="Path 45" class="cls-1" d="M329.385,263.047a1.523,1.523,0,1,0,1.523,1.523A1.523,1.523,0,0,0,329.385,263.047Zm0,2.284a.761.761,0,1,1,.761-.761A.761.761,0,0,1,329.385,265.331Z" transform="translate(-327.862 -263.047)"/>
      </g>
    </g>
    <g id="Group_500" data-name="Group 500" transform="translate(12.936 123.234)">
      <g id="Group_499" data-name="Group 499" transform="translate(0 0)">
        <path id="Path_46" data-name="Path 46" class="cls-1" d="M273.385,207.047a1.523,1.523,0,1,0,1.523,1.523A1.523,1.523,0,0,0,273.385,207.047Zm0,2.284a.761.761,0,1,1,.761-.761A.761.761,0,0,1,273.385,209.331Z" transform="translate(-271.862 -207.047)"/>
      </g>
    </g>
    <g id="Group_502" data-name="Group 502" transform="translate(18.266 123.234)">
      <g id="Group_501" data-name="Group 501" transform="translate(0 0)">
        <path id="Path_47" data-name="Path 47" class="cls-1" d="M385.385,207.047a1.523,1.523,0,1,0,1.523,1.523A1.523,1.523,0,0,0,385.385,207.047Zm0,2.284a.761.761,0,1,1,.761-.761A.761.761,0,0,1,385.385,209.331Z" transform="translate(-383.862 -207.047)"/>
      </g>
    </g>
    <g id="Group_504" data-name="Group 504" transform="translate(2.277 121.331)">
      <g id="Group_503" data-name="Group 503" transform="translate(0 0)">
        <path id="Path_48" data-name="Path 48" class="cls-1" d="M54.334,168.95H52.811v-1.523a.381.381,0,0,0-.381-.381H50.146a.381.381,0,0,0-.381.381v1.523H48.243a.381.381,0,0,0-.381.381v2.284a.381.381,0,0,0,.381.381h1.523v1.523a.381.381,0,0,0,.381.381H52.43a.381.381,0,0,0,.381-.381V172h1.523a.381.381,0,0,0,.381-.381v-2.284A.381.381,0,0,0,54.334,168.95Zm-.381,2.284H52.43a.381.381,0,0,0-.381.381v1.523H50.527v-1.523a.381.381,0,0,0-.381-.381H48.623v-1.523h1.523a.381.381,0,0,0,.381-.381v-1.523H52.05v1.523a.381.381,0,0,0,.381.381h1.523Z" transform="translate(-47.862 -167.047)"/>
      </g>
    </g>
    <g id="Group_506" data-name="Group 506" transform="translate(0 119.047)">
      <g id="Group_505" data-name="Group 505" transform="translate(0 0)">
        <path id="Path_49" data-name="Path 49" class="cls-1" d="M17.17,119.05l-.046,0H5.7l-.046,0a5.751,5.751,0,1,0,4.073,9.9H13.1a5.751,5.751,0,1,0,4.074-9.9Zm-.088,10.741h0a4.954,4.954,0,0,1-3.558-1.493.381.381,0,0,0-.271-.114H9.574a.381.381,0,0,0-.271.114,4.99,4.99,0,1,1-3.6-8.487l.038,0H17.082l.038,0a4.99,4.99,0,0,1-.038,9.98Z" transform="translate(0 -119.047)"/>
      </g>
    </g>
  </g>
</svg>
