<svg xmlns="http://www.w3.org/2000/svg" width="14.862" height="17.991" viewBox="0 0 14.862 17.991">
  <path id="knowledge-management" d="M20.04,23.842v2.367H14.956a.391.391,0,0,0,0,.782H25.907a.391.391,0,0,0,0-.782H20.822V23.842a7.391,7.391,0,0,0,4.571-1.9l1.019,1.019a.391.391,0,0,0,.553-.553l-1.019-1.019a7.392,7.392,0,0,0,1.916-4.962.391.391,0,0,0-.782,0,6.616,6.616,0,0,1-1.686,4.41l-1.106-1.106a5.078,5.078,0,0,0-7.161-7.161l-1.106-1.106a6.612,6.612,0,0,1,4.409-1.686.391.391,0,1,0,0-.782,7.392,7.392,0,0,0-4.962,1.916L14.45,9.9a.391.391,0,0,0-.553.553l1.019,1.019A7.411,7.411,0,0,0,20.04,23.842Zm4.693-7.411a4.3,4.3,0,1,1-4.3-4.3A4.307,4.307,0,0,1,24.733,16.431Zm-8.159-3.3a5.078,5.078,0,0,0,7.16,7.16l1.106,1.106a6.638,6.638,0,0,1-9.372-9.372Z" transform="translate(-13 -9)"/>
</svg>
