<svg id="masterdata-white" xmlns="http://www.w3.org/2000/svg" width="14.862" height="17.835" viewBox="0 0 14.862 17.835">
  <defs>
    <style>
      .cls-1 {
        fill: #fff;
      }
    </style>
  </defs>
  <path id="Path_17" data-name="Path 17" class="cls-1" d="M13.97,17.835a.892.892,0,0,0,.892-.892V.892A.892.892,0,0,0,13.97,0H.892A.892.892,0,0,0,0,.892V16.943a.892.892,0,0,0,.892.892ZM.594,16.943V.892a.3.3,0,0,1,.3-.3H13.97a.3.3,0,0,1,.3.3V16.943a.3.3,0,0,1-.3.3H.892A.3.3,0,0,1,.594,16.943Zm0,0"/>
  <path id="Path_18" data-name="Path 18" class="cls-1" d="M34.689,43.081l-.464.246a.3.3,0,0,0-.158.263v1.486a.3.3,0,0,0,.3.3h2.081a.3.3,0,0,0,.242-.125l.795-1.113a6.327,6.327,0,0,0,.747.048,6.247,6.247,0,1,0-3.539-1.1Zm1.6,1.7h-1.63V43.767l3.782-2Zm1.937-12.484a5.648,5.648,0,0,1,0,11.3c-.116,0-.231-.006-.347-.013l1.778-2.49a.3.3,0,0,0-.381-.435l-3.988,2.11a5.648,5.648,0,0,1,2.938-10.468Zm0,0" transform="translate(-30.797 -30.51)"/>
  <path id="Path_19" data-name="Path 19" class="cls-1" d="M32.892,33.783A.892.892,0,1,0,32,32.892.892.892,0,0,0,32.892,33.783Zm0-1.189a.3.3,0,1,1-.3.3A.3.3,0,0,1,32.892,32.594Zm0,0" transform="translate(-30.811 -30.811)"/>
  <path id="Path_20" data-name="Path 20" class="cls-1" d="M320.892,400a.892.892,0,1,0,.892.892A.892.892,0,0,0,320.892,400Zm0,1.189a.3.3,0,1,1,.3-.3A.3.3,0,0,1,320.892,401.189Zm0,0" transform="translate(-308.11 -385.138)"/>
  <path id="Path_21" data-name="Path 21" class="cls-1" d="M32.892,401.783a.892.892,0,1,0-.892-.892A.892.892,0,0,0,32.892,401.783Zm0-1.189a.3.3,0,1,1-.3.3A.3.3,0,0,1,32.892,400.594Zm0,0" transform="translate(-30.811 -385.138)"/>
  <path id="Path_22" data-name="Path 22" class="cls-1" d="M320.892,33.783a.892.892,0,1,0-.892-.892A.892.892,0,0,0,320.892,33.783Zm0-1.189a.3.3,0,1,1-.3.3A.3.3,0,0,1,320.892,32.594Zm0,0" transform="translate(-308.11 -30.811)"/>
  <path id="Path_23" data-name="Path 23" class="cls-1" d="M96,416h7.728v.594H96Zm0,0" transform="translate(-92.433 -400.543)"/>
  <path id="Path_24" data-name="Path 24" class="cls-1" d="M144,146.081A2.081,2.081,0,1,0,146.081,144,2.081,2.081,0,0,0,144,146.081Zm3.567,0a1.486,1.486,0,1,1-1.486-1.486A1.486,1.486,0,0,1,147.567,146.081Zm0,0" transform="translate(-138.65 -138.65)"/>
  <path id="Path_25" data-name="Path 25" class="cls-1" d="M176,176.892a.892.892,0,1,0,.892-.892A.892.892,0,0,0,176,176.892Zm1.189,0a.3.3,0,1,1-.3-.3A.3.3,0,0,1,177.189,176.892Zm0,0" transform="translate(-169.461 -169.461)"/>
  <path id="Path_26" data-name="Path 26" class="cls-1" d="M92.161,88.594V88A4.166,4.166,0,0,0,88,92.161h.594A3.571,3.571,0,0,1,92.161,88.594Zm0,0" transform="translate(-84.73 -84.73)"/>
</svg>
