<svg xmlns="http://www.w3.org/2000/svg" width="14.968" height="18.96" viewBox="0 0 14.968 18.96">
  <defs>
    <style>
      .cls-1 {
        fill: #fff;
      }

      .cls-2 {
        fill: none;
        stroke: #fff;
        stroke-linecap: round;
        stroke-width: 0.6px;
      }
    </style>
  </defs>
  <g id="performance-report-white" transform="translate(-10.288 -3.489)">
    <path id="Path_1497" data-name="Path 1497" class="cls-1" d="M23.329,4.557H13.981a.272.272,0,0,0-.047,0h0a.256.256,0,0,0-.063.023l-.015.008a.266.266,0,0,0-.055.041l-3.429,3.43a.262.262,0,0,0-.042.056l-.008.014a.265.265,0,0,0-.023.064v0a.265.265,0,0,0,0,.049V22.185a.263.263,0,0,0,.263.263H23.329a.263.263,0,0,0,.263-.263V4.82a.263.263,0,0,0-.263-.263Zm-9.612.9V7.987H11.187Zm9.348,16.465H10.814V8.513h3.166a.264.264,0,0,0,.263-.263V5.084h8.822Z" transform="translate(0 0)"/>
    <path id="Path_1499" data-name="Path 1499" class="cls-1" d="M35.544,51.872H28.027a.263.263,0,0,0,0,.527h7.517a.263.263,0,1,0,0-.527Z" transform="translate(-14.846 -40.195)"/>
    <path id="Path_1500" data-name="Path 1500" class="cls-1" d="M35.544,62.8H28.027a.263.263,0,1,0,0,.527h7.517a.263.263,0,1,0,0-.527Z" transform="translate(-14.846 -49.478)"/>
    <path id="Path_1501" data-name="Path 1501" class="cls-1" d="M35.544,40.941H28.027a.263.263,0,0,0,0,.527h7.517a.263.263,0,1,0,0-.527Z" transform="translate(-14.846 -30.909)"/>
    <path id="Path_1502" data-name="Path 1502" class="cls-1" d="M51.4,19.164h4a.263.263,0,0,0,0-.527h-4a.263.263,0,1,0,0,.527Z" transform="translate(-34.702 -11.961)"/>
    <path id="Path_1503" data-name="Path 1503" class="cls-1" d="M29.032,90.818h-1a.263.263,0,0,0-.263.263v2.264a.263.263,0,0,0,.263.263h1a.263.263,0,0,0,.263-.263V91.081A.263.263,0,0,0,29.032,90.818Zm-.263,2.264h-.478V91.345h.478Z" transform="translate(-14.846 -73.28)"/>
    <path id="Path_1504" data-name="Path 1504" class="cls-1" d="M43.457,80.248h-1a.264.264,0,0,0-.263.264v3.855a.263.263,0,0,0,.263.263h1a.263.263,0,0,0,.263-.263V80.512a.263.263,0,0,0-.263-.264ZM43.194,84.1h-.478V80.775h.478Z" transform="translate(-27.1 -64.3)"/>
    <path id="Path_1505" data-name="Path 1505" class="cls-1" d="M57.882,84.328h-1a.263.263,0,0,0-.263.263v3.241a.263.263,0,0,0,.263.263h1a.263.263,0,0,0,.263-.263V84.591A.263.263,0,0,0,57.882,84.328Zm-.263,3.241h-.478V84.855h.478Z" transform="translate(-39.354 -67.766)"/>
    <path id="Path_1506" data-name="Path 1506" class="cls-1" d="M72.308,72.957h-1a.263.263,0,0,0-.263.263v4.952a.263.263,0,0,0,.263.263h1a.263.263,0,0,0,.263-.263V73.22A.263.263,0,0,0,72.308,72.957Zm-.263,4.952h-.478V73.484h.478Z" transform="translate(-51.609 -58.106)"/>
    <path id="Path_1507" data-name="Path 1507" class="cls-2" d="M28.38,458.232h9.574v13.711" transform="translate(-12.999 -454.443)"/>
  </g>
</svg>
