<svg xmlns="http://www.w3.org/2000/svg" width="19.834" height="22.938" viewBox="0 0 19.834 22.938">
  <g id="settings" transform="translate(-32.856)">
    <g id="Group_508" data-name="Group 508" transform="translate(32.856 14.736)">
      <g id="Group_507" data-name="Group 507" transform="translate(0)">
        <path id="Path_54" data-name="Path 54" d="M47.1,312H37.657a.378.378,0,0,0-.267.111l-4.534,4.534.534.534,4.423-4.424h8.874c-.079.449-.325,1.134-1.1,1.134H41.436v.756h4.156c1.494,0,1.889-1.483,1.889-2.267A.378.378,0,0,0,47.1,312Z" transform="translate(-32.856 -312)"/>
      </g>
    </g>
    <g id="Group_510" data-name="Group 510" transform="translate(36.257 12.091)">
      <g id="Group_509" data-name="Group 509" transform="translate(0)">
        <path id="Path_55" data-name="Path 55" d="M120.5,256.112a.378.378,0,0,0-.534,0l-3.4,3.4.534.534,3.1-3.1a1.611,1.611,0,0,1-.237,2.192l-4.423,4.423h-7.778a.378.378,0,0,0-.267.111l-2.645,2.645.534.534,2.534-2.534H115.7a.378.378,0,0,0,.267-.111l4.534-4.534A2.425,2.425,0,0,0,120.5,256.112Z" transform="translate(-104.856 -256.002)"/>
      </g>
    </g>
    <g id="Group_512" data-name="Group 512" transform="translate(36.524)">
      <g id="Group_511" data-name="Group 511" transform="translate(0)">
        <path id="Path_56" data-name="Path 56" d="M123.737,5.29h-1.358a5.257,5.257,0,0,0-.415-1l.961-.961a.378.378,0,0,0,0-.534l-1.6-1.6a.378.378,0,0,0-.534,0l-.961.961a5.24,5.24,0,0,0-1-.416V.378A.378.378,0,0,0,118.447,0H116.18a.378.378,0,0,0-.378.378V1.736a5.24,5.24,0,0,0-1,.416l-.961-.961a.378.378,0,0,0-.534,0l-1.6,1.6a.378.378,0,0,0,0,.534l.961.961a5.26,5.26,0,0,0-.416,1H110.89a.378.378,0,0,0-.378.378V7.935a.378.378,0,0,0,.378.378h1.358a5.257,5.257,0,0,0,.415,1l-.961.961a.378.378,0,0,0,0,.534l1.6,1.6a.389.389,0,0,0,.534,0l.961-.961a5.261,5.261,0,0,0,1,.416v1.358a.378.378,0,0,0,.378.378h2.267a.378.378,0,0,0,.378-.378V11.867a5.264,5.264,0,0,0,1-.415l.961.961a.378.378,0,0,0,.534,0l1.6-1.6a.378.378,0,0,0,0-.534l-.961-.961a5.261,5.261,0,0,0,.416-1h1.358a.378.378,0,0,0,.378-.378V5.668A.378.378,0,0,0,123.737,5.29Zm-.378,2.267h-1.27a.378.378,0,0,0-.368.291,4.521,4.521,0,0,1-.552,1.329.378.378,0,0,0,.054.466l.9.9-1.069,1.069-.9-.9a.378.378,0,0,0-.466-.054,4.508,4.508,0,0,1-1.329.552.378.378,0,0,0-.291.368v1.27h-1.511v-1.27a.378.378,0,0,0-.291-.368,4.508,4.508,0,0,1-1.329-.552.378.378,0,0,0-.466.054l-.9.9L112.5,10.542l.9-.9a.378.378,0,0,0,.054-.466,4.522,4.522,0,0,1-.552-1.329.378.378,0,0,0-.368-.291h-1.27V6.045h1.27a.378.378,0,0,0,.368-.291,4.522,4.522,0,0,1,.552-1.329.378.378,0,0,0-.054-.466l-.9-.9,1.069-1.069.9.9a.378.378,0,0,0,.466.054,4.5,4.5,0,0,1,1.329-.552.378.378,0,0,0,.291-.368V.756h1.511v1.27a.378.378,0,0,0,.291.368,4.5,4.5,0,0,1,1.329.552.378.378,0,0,0,.466-.054l.9-.9,1.069,1.069-.9.9a.378.378,0,0,0-.054.466,4.522,4.522,0,0,1,.552,1.329.378.378,0,0,0,.368.291h1.27Z" transform="translate(-110.512)"/>
      </g>
    </g>
    <g id="Group_514" data-name="Group 514" transform="translate(41.058 4.534)">
      <g id="Group_513" data-name="Group 513" transform="translate(0)">
        <path id="Path_57" data-name="Path 57" d="M208.779,96a2.267,2.267,0,1,0,2.267,2.267A2.267,2.267,0,0,0,208.779,96Zm0,3.779a1.511,1.511,0,1,1,1.511-1.511A1.511,1.511,0,0,1,208.779,99.779Z" transform="translate(-206.512 -96)"/>
      </g>
    </g>
  </g>
</svg>
