<svg xmlns="http://www.w3.org/2000/svg" width="19.032" height="19.33" viewBox="0 0 19.032 19.33">
  <g id="tech-alert" transform="translate(5.333 5.567)">
    <path id="Subtraction_2" data-name="Subtraction 2" d="M-8020.343-5285.053h-.991a.378.378,0,0,1-.377-.379v-1.358a5.289,5.289,0,0,1-1-.417l-.961.963a.394.394,0,0,1-.268.105.39.39,0,0,1-.267-.105l-1.6-1.6a.383.383,0,0,1,0-.536l.961-.961a5.154,5.154,0,0,1-.415-1h-1.357a.379.379,0,0,1-.379-.379v-2.266a.379.379,0,0,1,.379-.379h1.357a5.191,5.191,0,0,1,.415-1l-.961-.96a.379.379,0,0,1,0-.534l1.6-1.6a.375.375,0,0,1,.267-.11.375.375,0,0,1,.267.11l.961.961a5.315,5.315,0,0,1,1-.415v-1.358a.378.378,0,0,1,.377-.378h2.268a.378.378,0,0,1,.377.378v1.358a5.309,5.309,0,0,1,1,.415l.961-.961a.375.375,0,0,1,.267-.11.381.381,0,0,1,.269.11l1.6,1.6a.379.379,0,0,1,0,.534l-.961.96,0,.006a7.6,7.6,0,0,0-.711.279c-.026-.047-.055-.095-.087-.147a.379.379,0,0,1,.055-.465l.9-.9-1.07-1.07-.9.9a.377.377,0,0,1-.269.112.376.376,0,0,1-.2-.055,4.395,4.395,0,0,0-1.33-.552.377.377,0,0,1-.292-.369v-1.271h-1.511v1.271a.377.377,0,0,1-.292.369,4.38,4.38,0,0,0-1.328.552.378.378,0,0,1-.2.055.38.38,0,0,1-.27-.112l-.9-.9-1.068,1.07.9.9a.38.38,0,0,1,.054.465,4.483,4.483,0,0,0-.552,1.33.38.38,0,0,1-.366.29h-1.271v1.511h1.271a.38.38,0,0,1,.366.292,4.452,4.452,0,0,0,.552,1.327.38.38,0,0,1-.054.468l-.9.9,1.068,1.069.9-.9a.378.378,0,0,1,.27-.111.378.378,0,0,1,.2.057,4.529,4.529,0,0,0,1.328.552.375.375,0,0,1,.292.367v1.27h.424a7.552,7.552,0,0,0,.188.756Zm.047-4.537h0a2.262,2.262,0,0,1-2.17-2.266,2.269,2.269,0,0,1,2.267-2.266,2.251,2.251,0,0,1,2.04,1.277,7.639,7.639,0,0,0-.584.582,1.515,1.515,0,0,0-1.455-1.1,1.513,1.513,0,0,0-1.511,1.511,1.514,1.514,0,0,0,1.511,1.513,1.537,1.537,0,0,0,.2-.014,7.551,7.551,0,0,0-.3.767Z" transform="translate(8021.668 5293.09)"/>
    <g id="Group_3174" data-name="Group 3174" transform="translate(2 1)">
      <g id="Group_3175" data-name="Group 3175">
        <path id="Path_1508" data-name="Path 1508" d="M367.678,28.958a.4.4,0,0,1-.4-.4,5.681,5.681,0,0,0-1.674-4.043.4.4,0,1,1,.564-.564,6.474,6.474,0,0,1,1.908,4.607.4.4,0,0,1-.4.4Zm0,0" transform="translate(-356.377 -23.241)"/>
        <path id="Path_1509" data-name="Path 1509" d="M.4,28.978a.4.4,0,0,1-.4-.4,6.471,6.471,0,0,1,1.908-4.606.4.4,0,1,1,.564.564A5.677,5.677,0,0,0,.8,28.579a.4.4,0,0,1-.4.4Zm0,0" transform="translate(0 -23.261)"/>
        <path id="Path_1510" data-name="Path 1510" d="M156.662,418.393a2,2,0,0,1-1.994-1.994.4.4,0,0,1,.8,0,1.2,1.2,0,1,0,2.393,0,.4.4,0,0,1,.8,0A2,2,0,0,1,156.662,418.393Zm0,0" transform="translate(-150.812 -405.63)"/>
        <path id="Path_1511" data-name="Path 1511" d="M219.067,2.393a.4.4,0,0,1-.4-.4V.4a.4.4,0,1,1,.8,0v1.6A.4.4,0,0,1,219.067,2.393Zm0,0" transform="translate(-213.217)"/>
        <path id="Path_1512" data-name="Path 1512" d="M31.038,73.573H22.263a.931.931,0,0,1-.605-1.638,3.564,3.564,0,0,0,1.27-2.729V67.723a3.723,3.723,0,0,1,7.445,0v1.483a3.563,3.563,0,0,0,1.265,2.725.93.93,0,0,1-.6,1.642ZM26.65,64.8a2.928,2.928,0,0,0-2.925,2.925v1.483a4.359,4.359,0,0,1-1.548,3.334.133.133,0,0,0-.048.1.134.134,0,0,0,.133.133h8.775a.134.134,0,0,0,.133-.133.131.131,0,0,0-.047-.1,4.36,4.36,0,0,1-1.549-3.335V67.723A2.928,2.928,0,0,0,26.65,64.8Zm0,0" transform="translate(-20.8 -62.405)"/>
      </g>
    </g>
  </g>
</svg>
