<svg xmlns="http://www.w3.org/2000/svg" width="19" height="19" viewBox="0 0 19 19">
  <g id="translation" transform="translate(0 0.001)">
    <path id="Path_50" data-name="Path 50" d="M17.442,6.679H12.222c.017-.183.026-.368.026-.556A6.125,6.125,0,0,0,3.064.818a.371.371,0,1,0,.371.643A5.382,5.382,0,1,1,6.124,11.505a5.321,5.321,0,0,1-3.375-1.19.371.371,0,0,0-.342-.066l-.985.258.386-.848a.371.371,0,0,0-.038-.372,5.385,5.385,0,0,1-.306-5.859.371.371,0,0,0-.642-.372,6.128,6.128,0,0,0,.222,6.489L.423,10.91a.371.371,0,0,0,.432.513l1.578-.413a6.122,6.122,0,0,0,4.544,1.178v3.25A1.56,1.56,0,0,0,8.535,17h5.249l2.347,1.92a.371.371,0,0,0,.606-.287V17h.705A1.56,1.56,0,0,0,19,15.437v-7.2a1.56,1.56,0,0,0-1.559-1.559Zm.816,8.758a.817.817,0,0,1-.816.816H16.365a.371.371,0,0,0-.371.371v1.221l-1.833-1.5c-.1-.092-.189-.092-.388-.092H8.535a.817.817,0,0,1-.816-.816v-3.4a6.144,6.144,0,0,0,4.39-4.615h5.333a.817.817,0,0,1,.816.816Zm0,0" transform="translate(0 0)"/>
    <path id="Path_51" data-name="Path 51" d="M291.556,253.738a.371.371,0,0,0-.158-.707h-.152l-1.2-2.728a.371.371,0,0,0-.68,0l-1.2,2.728h-.152a.371.371,0,0,0-.158.707l-.446,1.016a.371.371,0,1,0,.68.3l.561-1.278h2.1l.561,1.278a.371.371,0,1,0,.68-.3Zm-2.573-.707.726-1.655.726,1.655Zm0,0" transform="translate(-276.721 -240.802)"/>
    <path id="Path_52" data-name="Path 52" d="M45.773,46.141a.371.371,0,1,0-.262-.109A.374.374,0,0,0,45.773,46.141Zm0,0" transform="translate(-43.718 -43.714)"/>
    <path id="Path_53" data-name="Path 53" d="M100.326,90.608a.371.371,0,1,0,.357.651,4.25,4.25,0,0,0,1.837-1.992,4.251,4.251,0,0,0,1.837,1.992.371.371,0,1,0,.357-.651,3.51,3.51,0,0,1-1.783-2.554h1.648a.371.371,0,0,0,0-.742H102.89V85.766a.371.371,0,0,0-.742,0v1.546h-1.341a.371.371,0,0,0,0,.742h1.3a3.509,3.509,0,0,1-1.783,2.554Zm0,0" transform="translate(-96.417 -82.226)"/>
  </g>
</svg>
