<svg xmlns="http://www.w3.org/2000/svg" width="19.31" height="18.028" viewBox="0 0 19.31 18.028">
  <defs>
    <style>
      .cls-1 {
        fill: #fff;
      }
    </style>
  </defs>
  <g id="user-mgmt-white" transform="translate(0 -15.936)">
    <g id="Group_488" data-name="Group 488" transform="translate(0 15.936)">
      <g id="Group_487" data-name="Group 487" transform="translate(0 0)">
        <path id="Path_27" data-name="Path 27" class="cls-1" d="M19.3,29.132a4.5,4.5,0,0,0-6.38-3.761l-.682-1.237a4.505,4.505,0,1,0-5.16,0l-.682,1.237A4.5,4.5,0,1,0,9,29.781h1.319a4.5,4.5,0,1,0,8.983-.648Zm-13.5-8.684a3.862,3.862,0,1,1,6.436,2.87v-.3a2.574,2.574,0,1,0-5.149,0v.3A3.849,3.849,0,0,1,5.795,20.448Zm5.792,2.574v.765a3.83,3.83,0,0,1-3.862,0v-.765a1.931,1.931,0,0,1,3.862,0ZM6.438,32.8a3.83,3.83,0,0,1-3.862,0v-.765a1.931,1.931,0,0,1,3.862,0Zm.947-.773a3.867,3.867,0,0,1-.3.3v-.3a2.574,2.574,0,1,0-5.149,0v.3a3.862,3.862,0,1,1,5.453-.3ZM9,29.137a4.5,4.5,0,0,0-2.038-3.454l.67-1.217a4.461,4.461,0,0,0,4.055,0l.671,1.217a4.5,4.5,0,0,0-2.039,3.454ZM16.736,32.8a3.83,3.83,0,0,1-3.862,0v-.765a1.931,1.931,0,0,1,3.862,0Zm.947-.773a3.867,3.867,0,0,1-.3.3v-.3a2.574,2.574,0,1,0-5.149,0v.3a3.862,3.862,0,1,1,5.453-.3Z" transform="translate(0 -15.936)"/>
      </g>
    </g>
    <g id="Group_490" data-name="Group 490" transform="translate(8.047 17.23)">
      <g id="Group_489" data-name="Group 489">
        <path id="Path_28" data-name="Path 28" class="cls-1" d="M201.663,48.116a1.609,1.609,0,1,0,1.609,1.609A1.609,1.609,0,0,0,201.663,48.116Zm0,2.574a.965.965,0,1,1,.965-.965A.965.965,0,0,1,201.663,50.69Z" transform="translate(-200.054 -48.116)"/>
      </g>
    </g>
    <g id="Group_492" data-name="Group 492" transform="translate(2.898 26.241)">
      <g id="Group_491" data-name="Group 491" transform="translate(0 0)">
        <path id="Path_29" data-name="Path 29" class="cls-1" d="M73.663,272.116a1.609,1.609,0,1,0,1.609,1.609A1.609,1.609,0,0,0,73.663,272.116Zm0,2.574a.965.965,0,1,1,.965-.965A.965.965,0,0,1,73.663,274.69Z" transform="translate(-72.054 -272.116)"/>
      </g>
    </g>
    <g id="Group_494" data-name="Group 494" transform="translate(13.196 26.241)">
      <g id="Group_493" data-name="Group 493" transform="translate(0 0)">
        <path id="Path_30" data-name="Path 30" class="cls-1" d="M329.663,272.116a1.609,1.609,0,1,0,1.609,1.609A1.609,1.609,0,0,0,329.663,272.116Zm0,2.574a.965.965,0,1,1,.965-.965A.965.965,0,0,1,329.663,274.69Z" transform="translate(-328.054 -272.116)"/>
      </g>
    </g>
  </g>
</svg>
