<svg xmlns="http://www.w3.org/2000/svg" width="23.431" height="23.441" viewBox="0 0 23.431 23.441">
  <g id="activity" transform="translate(0.5 0.5)">
    <g id="Group_1507" data-name="Group 1507">
      <g id="Group_1506" data-name="Group 1506" transform="translate(0)">
        <path id="Path_592" data-name="Path 592" d="M48.44,80.748H61.526a.374.374,0,1,0,0-.748H48.44a.374.374,0,1,0,0,.748Z" transform="translate(-45.823 -76.261)" fill="#fff" stroke="#fff" stroke-width="0.5"/>
        <path id="Path_593" data-name="Path 593" d="M48.44,144.748H61.526a.374.374,0,1,0,0-.748H48.44a.374.374,0,1,0,0,.748Z" transform="translate(-45.823 -137.27)" fill="#fff" stroke="#fff" stroke-width="0.5"/>
        <path id="Path_594" data-name="Path 594" d="M48.44,208.748H61.526a.374.374,0,1,0,0-.748H48.44a.374.374,0,1,0,0,.748Z" transform="translate(-45.823 -198.279)" fill="#fff" stroke="#fff" stroke-width="0.5"/>
        <path id="Path_595" data-name="Path 595" d="M20.629,13.2V.374A.374.374,0,0,0,20.255,0H.44A.374.374,0,0,0,.066.374V20.189a.374.374,0,0,0,.374.374H13.264A5.227,5.227,0,1,0,20.629,13.2ZM.814,19.816V.748H19.882V12.666q-.17-.1-.348-.184l-.031-.014c-.141-.067-.286-.126-.431-.18l-.122-.043c-.157-.053-.316-.1-.476-.139A5.241,5.241,0,0,0,12.03,17.2c0,.135.006.268.016.4,0,.041.008.082.012.123.009.093.02.187.034.278.007.044.014.089.022.133.017.095.037.187.059.282.008.036.016.072.025.107.033.127.07.253.112.376l.019.05q.056.16.124.316c.016.037.034.075.052.112.037.084.079.167.123.249l.062.114c.014.025.026.05.04.075Zm20.65-1.052a4.487,4.487,0,0,1-4.2,2.921h0a4.454,4.454,0,0,1-2.522-.776,4.553,4.553,0,0,1-1.013-.951A4.486,4.486,0,0,1,18.1,12.79q.1.019.2.043a4.272,4.272,0,0,1,.523.161A4.487,4.487,0,0,1,21.464,18.764Z" transform="translate(-0.066)" fill="#fff" stroke="#fff" stroke-width="1"/>
        <path id="Path_596" data-name="Path 596" d="M302.422,298.617a.374.374,0,1,0,0-.748h-1.5v-1.5a.374.374,0,1,0-.748,0v1.5h-1.5v-1.5a.374.374,0,1,0-.748,0v1.5h-1.5a.374.374,0,1,0,0,.748h1.5v1.5h-1.5a.374.374,0,1,0,0,.748h1.5v1.5a.374.374,0,0,0,.748,0v-1.5h1.5v1.5a.374.374,0,0,0,.748,0v-1.5h1.5a.374.374,0,0,0,0-.748h-1.5v-1.5Zm-2.243,1.5h-1.5v-1.5h1.5Z" transform="translate(-282.233 -282.167)" fill="#fff"/>
        <path id="Path_597" data-name="Path 597" d="M58.161,272.374a.374.374,0,0,0-.374-.374H48.44a.374.374,0,1,0,0,.748h9.347A.374.374,0,0,0,58.161,272.374Z" transform="translate(-45.823 -259.288)" fill="#fff" stroke="#fff" stroke-width="0.5"/>
      </g>
    </g>
  </g>
</svg>
