<svg xmlns="http://www.w3.org/2000/svg" width="28" height="39" viewBox="0 0 28 39">
  <g id="Group_2082" data-name="Group 2082" transform="translate(-268 -1883.316)">
    <g id="Rectangle_1012" data-name="Rectangle 1012" transform="translate(268 1883.316)" fill="#fff" stroke="#000" stroke-width="2">
      <rect width="28" height="39" stroke="none"/>
      <rect x="1" y="1" width="26" height="37" fill="none"/>
    </g>
    <g id="paper-clip" transform="translate(273.775 1890.208)">
      <path id="Path_586" data-name="Path 586" d="M25.008,38.169A8.017,8.017,0,0,1,17,30.161V18.148a5.148,5.148,0,0,1,10.3,0V29.589a1.716,1.716,0,0,1-3.432,0V18.148a1.716,1.716,0,0,0-3.432,0V30.161a4.576,4.576,0,0,0,9.153,0V14.716a1.716,1.716,0,1,1,3.432,0V30.161A8.017,8.017,0,0,1,25.008,38.169Z" transform="translate(-17 -13)"/>
    </g>
  </g>
</svg>
