<svg id="Group_1787" data-name="Group 1787" xmlns="http://www.w3.org/2000/svg" width="28" height="28" viewBox="0 0 28 28">
  <g id="Ellipse_65" data-name="Ellipse 65" fill="#fff" stroke="#000" stroke-width="1">
    <circle cx="14" cy="14" r="14" stroke="none"/>
    <circle cx="14" cy="14" r="13.5" fill="none"/>
  </g>
  <g id="paper-clip" transform="translate(2.46 2.798)">
    <path id="Path_586" data-name="Path 586" d="M20.456,23.861A3.459,3.459,0,0,1,17,20.4V15.221a2.221,2.221,0,1,1,4.443,0v4.937a.74.74,0,0,1-1.481,0V15.221a.74.74,0,1,0-1.481,0V20.4a1.975,1.975,0,1,0,3.949,0V13.74a.74.74,0,1,1,1.481,0V20.4A3.459,3.459,0,0,1,20.456,23.861Z" transform="translate(-8.585 -6.565)"/>
  </g>
</svg>
