<svg id="bookcase" xmlns="http://www.w3.org/2000/svg" width="21.422" height="21.422" viewBox="0 0 21.422 21.422">
  <g id="Group_964" data-name="Group 964">
    <g id="Group_963" data-name="Group 963">
      <path id="Path_235" data-name="Path 235" d="M19.539,0H1.883A1.885,1.885,0,0,0,0,1.883V17.029A1.886,1.886,0,0,0,1.255,18.8v1.991a.628.628,0,0,0,.628.628H3.766a.628.628,0,0,0,.609-.475l.509-2.035H16.539l.509,2.035a.628.628,0,0,0,.609.475h1.883a.628.628,0,0,0,.628-.628V18.8a1.886,1.886,0,0,0,1.255-1.775V1.883A1.885,1.885,0,0,0,19.539,0ZM1.255,7.531H6.276v5.1H1.255Zm2.51-1.255V4.393a.628.628,0,0,1,1.255,0V6.276Zm-.49,13.891H2.51V18.911H3.589Zm6.766-2.51H1.883a.628.628,0,0,1-.628-.628V13.891h8.786Zm-2.51-5.021v-5.1h6.276v5.1H7.531ZM6.276,6.276V4.393a.628.628,0,0,1,1.255,0V6.276Zm2.51,0V4.393a.628.628,0,0,1,1.255,0V6.276ZM12.832,3.87a.626.626,0,0,1,.869.175l1.487,2.231H13.68L12.657,4.741A.627.627,0,0,1,12.832,3.87Zm6.079,16.3h-.765l-.314-1.255h1.079Zm1.255-3.138a.628.628,0,0,1-.628.628H11.3V13.891h8.87Zm0-4.393h-5.1v-5.1h5.1Zm0-6.36H16.7L14.746,3.348a1.883,1.883,0,0,0-3.133,2.089l.559.838H11.3V4.393a1.884,1.884,0,0,0-3.138-1.4,1.878,1.878,0,0,0-2.51,0,1.884,1.884,0,0,0-3.138,1.4V6.276H1.255V1.883a.628.628,0,0,1,.628-.628H19.539a.628.628,0,0,1,.628.628Z"/>
    </g>
  </g>
  <g id="Group_966" data-name="Group 966" transform="translate(13.891 15.146)">
    <g id="Group_965" data-name="Group 965">
      <path id="Path_236" data-name="Path 236" d="M335.138,362h-2.51a.628.628,0,0,0,0,1.255h2.51a.628.628,0,0,0,0-1.255Z" transform="translate(-332 -362)"/>
    </g>
  </g>
  <g id="Group_968" data-name="Group 968" transform="translate(3.766 15.146)">
    <g id="Group_967" data-name="Group 967">
      <path id="Path_237" data-name="Path 237" d="M93.138,362h-2.51a.628.628,0,1,0,0,1.255h2.51a.628.628,0,1,0,0-1.255Z" transform="translate(-90 -362)"/>
    </g>
  </g>
</svg>
