<svg id="BP-widget" xmlns="http://www.w3.org/2000/svg" width="80.354" height="67.107" viewBox="0 0 80.354 67.107">
  <defs>
    <style>
      .cls-1 {
        fill: #fff;
      }

      .cls-2, .cls-4 {
        fill: none;
      }

      .cls-2 {
        stroke: #fff;
        stroke-width: 2.5px;
      }

      .cls-3 {
        stroke: none;
      }
    </style>
  </defs>
  <path id="Subtraction_1" data-name="Subtraction 1" class="cls-1" d="M-223.728-649.893h-6.189a2.936,2.936,0,0,1-2.8-2.025c-.105-.248-.174-.408-.221-.516l0-.005a2.355,2.355,0,0,1-.114-.284.586.586,0,0,0-.565-.419h-26a7.388,7.388,0,0,1-7.38-7.38v-35.019a2.981,2.981,0,0,1,2.978-2.977h3.529v-3.736a2.249,2.249,0,0,1,2.247-2.246H-255v2.354h-3.139v39.838h6.013a1.179,1.179,0,0,1,1.177,1.177,1.179,1.179,0,0,1-1.177,1.177h-6.12a2.25,2.25,0,0,1-2.247-2.247v-33.962h-3.529a.624.624,0,0,0-.624.623v35.019a5.031,5.031,0,0,0,5.026,5.026h26a2.936,2.936,0,0,1,2.8,2.025c.105.247.174.407.221.515a2.27,2.27,0,0,1,.116.291.587.587,0,0,0,.565.42h6.189a.622.622,0,0,0,.592-.5c.007-.021.013-.036.018-.048l.292-.681a2.938,2.938,0,0,1,2.8-2.025h26A5.031,5.031,0,0,0-189-660.523v-8.789a1.179,1.179,0,0,1,1.177-1.177,1.179,1.179,0,0,1,1.177,1.177v8.789a7.388,7.388,0,0,1-7.379,7.38h-26a.586.586,0,0,0-.565.419,2.409,2.409,0,0,1-.122.305c-.047.108-.114.265-.215.5A2.935,2.935,0,0,1-223.728-649.893Zm28.328-10.064h-27.386a5.2,5.2,0,0,1-4.037-1.919,5.2,5.2,0,0,1-4.036,1.919h-16.56a1.179,1.179,0,0,1-1.177-1.177,1.179,1.179,0,0,1,1.177-1.177h16.56A2.863,2.863,0,0,0-228-665.17V-677h2.354v11.83a2.863,2.863,0,0,0,2.86,2.859h27.278v-39.838H-199V-704.5h3.6a2.249,2.249,0,0,1,2.246,2.246v3.736h3.53a2.981,2.981,0,0,1,2.977,2.977v21.524a1.179,1.179,0,0,1-1.177,1.177,1.169,1.169,0,0,1-.833-.345,1.168,1.168,0,0,1-.344-.832v-21.523a.624.624,0,0,0-.624-.624h-3.529V-662.2A2.25,2.25,0,0,1-195.4-659.957Z" transform="translate(267 717)"/>
  <g id="Group_2884" data-name="Group 2884" transform="translate(-162 -16)">
    <g id="Ellipse_103" data-name="Ellipse 103" class="cls-2" transform="translate(184 16)">
      <circle class="cls-3" cx="18.5" cy="18.5" r="18.5"/>
      <circle class="cls-4" cx="18.5" cy="18.5" r="17.25"/>
    </g>
    <g id="Group_2883" data-name="Group 2883" transform="translate(2)">
      <rect id="Rectangle_1305" data-name="Rectangle 1305" class="cls-1" width="10" height="3" transform="translate(193.222 33.707) rotate(45)"/>
      <rect id="Rectangle_1306" data-name="Rectangle 1306" class="cls-1" width="18" height="3" transform="translate(210.899 30.172) rotate(135)"/>
    </g>
  </g>
</svg>
