<svg id="BP-widget" xmlns="http://www.w3.org/2000/svg" width="80.354" height="69.108" viewBox="0 0 80.354 69.108">
  <defs>
    <style>
      .cls-1 {
        fill: #707070;
      }

      .cls-2, .cls-3 {
        fill: #fff;
      }

      .cls-3 {
        stroke: #707070;
        stroke-width: 2.5px;
      }

      .cls-4 {
        stroke: none;
      }

      .cls-5 {
        fill: none;
      }
    </style>
  </defs>
  <path id="Path_1402" data-name="Path 1402" class="cls-1" d="M79.177,88.546a1.177,1.177,0,0,0,1.177-1.177V65.845a2.981,2.981,0,0,0-2.977-2.977H73.847V59.131A2.249,2.249,0,0,0,71.6,56.884H56.421V48.528a3.144,3.144,0,0,0-3.141-3.141H46.895a1.177,1.177,0,0,0,0,2.354H53.28a.788.788,0,0,1,.787.787V66.137a.788.788,0,0,1-.787.787h-1a1.923,1.923,0,0,0-1.66.958l-1.314,2.276-1.314-2.275a1.922,1.922,0,0,0-1.66-.959H16.011a.788.788,0,0,1-.787-.787V48.528a.788.788,0,0,1,.787-.787H42.189a1.177,1.177,0,1,0,0-2.354H16.011a3.145,3.145,0,0,0-3.141,3.141v8.356H8.754a2.249,2.249,0,0,0-2.247,2.247v3.736H2.978A2.981,2.981,0,0,0,0,65.845v35.019a7.388,7.388,0,0,0,7.379,7.379h26a.586.586,0,0,1,.565.42c.032.108.051.132.338.806a2.925,2.925,0,0,0,2.8,2.025h6.189a2.925,2.925,0,0,0,2.8-2.025c.294-.692.306-.7.338-.806a.586.586,0,0,1,.565-.42h26a7.388,7.388,0,0,0,7.379-7.379V92.075a1.177,1.177,0,1,0-2.354,0v8.789a5.031,5.031,0,0,1-5.025,5.025h-26a2.925,2.925,0,0,0-2.8,2.025l-.292.681c-.044.1-.138.545-.61.545H37.082a.586.586,0,0,1-.565-.42c-.032-.107-.042-.111-.338-.806a2.925,2.925,0,0,0-2.8-2.025h-26a5.031,5.031,0,0,1-5.025-5.025V65.845a.624.624,0,0,1,.624-.623H6.507V99.183a2.249,2.249,0,0,0,2.247,2.247h6.12a1.177,1.177,0,0,0,0-2.354H8.861V59.238H12.87v6.9a3.144,3.144,0,0,0,3.141,3.141H39V96.216a2.863,2.863,0,0,1-2.86,2.86H19.58a1.177,1.177,0,0,0,0,2.354H36.14a5.206,5.206,0,0,0,4.037-1.918,5.206,5.206,0,0,0,4.037,1.918H71.6a2.249,2.249,0,0,0,2.247-2.247V65.221h3.529a.624.624,0,0,1,.623.623V87.369a1.177,1.177,0,0,0,1.177,1.177Zm-7.684,10.53H44.214a2.863,2.863,0,0,1-2.86-2.86V69.278h4.725l1.566,2.713a1.918,1.918,0,0,0,3.321,0l1.566-2.713h.748a3.129,3.129,0,0,0,2.3-1.01h9.9a1.177,1.177,0,0,0,0-2.354H56.42V59.238H71.492V99.076Z" transform="translate(0 -42.387)"/>
  <rect id="Rectangle_1265" data-name="Rectangle 1265" class="cls-2" width="56" height="42" transform="translate(12)"/>
  <g id="Group_2884" data-name="Group 2884" transform="translate(-162 -14)">
    <g id="Ellipse_103" data-name="Ellipse 103" class="cls-3" transform="translate(184 16)">
      <circle class="cls-4" cx="18.5" cy="18.5" r="18.5"/>
      <circle class="cls-5" cx="18.5" cy="18.5" r="17.25"/>
    </g>
    <g id="Group_2883" data-name="Group 2883" transform="translate(2)">
      <rect id="Rectangle_1305" data-name="Rectangle 1305" class="cls-1" width="10" height="3" transform="translate(193.222 33.707) rotate(45)"/>
      <rect id="Rectangle_1306" data-name="Rectangle 1306" class="cls-1" width="18" height="3" transform="translate(210.899 30.172) rotate(135)"/>
    </g>
  </g>
</svg>
