<svg id="BU-widget" xmlns="http://www.w3.org/2000/svg" width="65.497" height="51.996" viewBox="0 0 65.497 51.996">
  <defs>
    <style>
      .cls-1 {
        fill: #707070;
      }

      .cls-2, .cls-3 {
        stroke: none;
      }

      .cls-3 {
        fill: #fff;
      }
    </style>
  </defs>
  <g id="Group_2882" data-name="Group 2882" transform="translate(-308 -14.004)">
    <g id="Union_173" data-name="Union 173" class="cls-1" transform="translate(1955 -20930)">
      <path class="cls-2" d="M -1582.097534179688 20995.900390625 L -1646.899658203125 20995.900390625 L -1646.899658203125 20993.1015625 L -1582.097534179688 20993.1015625 L -1582.097534179688 20995.900390625 Z M -1582.097534179688 20987.90234375 L -1646.899658203125 20987.90234375 L -1646.899658203125 20985.09765625 L -1582.097534179688 20985.09765625 L -1582.097534179688 20987.90234375 Z M -1581.602172851563 20979.8984375 L -1584.50048828125 20979.8984375 L -1644.001342773438 20979.8984375 L -1646.899658203125 20979.8984375 L -1646.899658203125 20977 L -1646.899658203125 20971.09765625 L -1644.101318359375 20971.09765625 L -1644.101318359375 20977 L -1644.101318359375 20977.099609375 L -1644.001342773438 20977.099609375 L -1584.50048828125 20977.099609375 L -1584.400512695313 20977.099609375 L -1584.400512695313 20977 L -1584.400512695313 20971.09765625 L -1581.602172851563 20971.09765625 L -1581.602172851563 20979.8984375 Z M -1598.100341796875 20971.900390625 L -1600.898681640625 20971.900390625 L -1600.898681640625 20954.00390625 L -1600.898681640625 20953.904296875 L -1600.998657226563 20953.904296875 L -1604.834106445313 20953.904296875 L -1599.496948242188 20944.2109375 L -1594.170043945313 20953.904296875 L -1598.000366210938 20953.904296875 L -1598.100341796875 20953.904296875 L -1598.100341796875 20954.00390625 L -1598.100341796875 20971.900390625 Z M -1613.096801757813 20971.900390625 L -1615.900390625 20971.900390625 L -1615.900390625 20954.00390625 L -1615.900390625 20953.904296875 L -1616.000366210938 20953.904296875 L -1619.83056640625 20953.904296875 L -1614.49853515625 20944.2109375 L -1609.171752929688 20953.904296875 L -1612.996826171875 20953.904296875 L -1613.096801757813 20953.904296875 L -1613.096801757813 20954.00390625 L -1613.096801757813 20971.900390625 Z M -1628.098510742188 20971.900390625 L -1630.902099609375 20971.900390625 L -1630.902099609375 20954.00390625 L -1630.902099609375 20953.904296875 L -1631.002075195313 20953.904296875 L -1634.832275390625 20953.904296875 L -1629.500244140625 20944.2109375 L -1624.168334960938 20953.904296875 L -1627.99853515625 20953.904296875 L -1628.098510742188 20953.904296875 L -1628.098510742188 20954.00390625 L -1628.098510742188 20971.900390625 Z"/>
      <path class="cls-3" d="M -1582.197509765625 20995.80078125 L -1582.197509765625 20993.201171875 L -1646.799682617188 20993.201171875 L -1646.799682617188 20995.80078125 L -1582.197509765625 20995.80078125 M -1582.197509765625 20987.802734375 L -1582.197509765625 20985.197265625 L -1646.799682617188 20985.197265625 L -1646.799682617188 20987.802734375 L -1582.197509765625 20987.802734375 M -1581.7021484375 20979.798828125 L -1581.7021484375 20971.197265625 L -1584.300537109375 20971.197265625 L -1584.300537109375 20977 L -1584.300537109375 20977.19921875 L -1584.50048828125 20977.19921875 L -1644.001342773438 20977.19921875 L -1644.201293945313 20977.19921875 L -1644.201293945313 20977 L -1644.201293945313 20971.197265625 L -1646.799682617188 20971.197265625 L -1646.799682617188 20977 L -1646.799682617188 20979.798828125 L -1644.001342773438 20979.798828125 L -1584.50048828125 20979.798828125 L -1581.7021484375 20979.798828125 M -1598.200317382813 20971.80078125 L -1598.200317382813 20954.00390625 L -1598.200317382813 20953.8046875 L -1598.000366210938 20953.8046875 L -1594.339111328125 20953.8046875 L -1599.496948242188 20944.41796875 L -1604.664794921875 20953.8046875 L -1600.998657226563 20953.8046875 L -1600.798706054688 20953.8046875 L -1600.798706054688 20954.00390625 L -1600.798706054688 20971.80078125 L -1598.200317382813 20971.80078125 M -1613.19677734375 20971.80078125 L -1613.19677734375 20954.00390625 L -1613.19677734375 20953.8046875 L -1612.996826171875 20953.8046875 L -1609.3408203125 20953.8046875 L -1614.498657226563 20944.419921875 L -1619.661499023438 20953.8046875 L -1616.000366210938 20953.8046875 L -1615.800415039063 20953.8046875 L -1615.800415039063 20954.00390625 L -1615.800415039063 20971.80078125 L -1613.19677734375 20971.80078125 M -1628.198486328125 20971.80078125 L -1628.198486328125 20954.00390625 L -1628.198486328125 20953.8046875 L -1627.99853515625 20953.8046875 L -1624.33740234375 20953.8046875 L -1629.500244140625 20944.41796875 L -1634.663208007813 20953.8046875 L -1631.002075195313 20953.8046875 L -1630.802124023438 20953.8046875 L -1630.802124023438 20954.00390625 L -1630.802124023438 20971.80078125 L -1628.198486328125 20971.80078125 M -1581.99755859375 20996 L -1646.999633789063 20996 L -1646.999633789063 20993.001953125 L -1581.99755859375 20993.001953125 L -1581.99755859375 20996 Z M -1581.99755859375 20988.001953125 L -1646.999633789063 20988.001953125 L -1646.999633789063 20984.998046875 L -1581.99755859375 20984.998046875 L -1581.99755859375 20988.001953125 Z M -1581.502197265625 20979.998046875 L -1584.50048828125 20979.998046875 L -1644.001342773438 20979.998046875 L -1646.999633789063 20979.998046875 L -1646.999633789063 20977 L -1646.999633789063 20970.998046875 L -1644.001342773438 20970.998046875 L -1644.001342773438 20977 L -1584.50048828125 20977 L -1584.50048828125 20970.998046875 L -1581.502197265625 20970.998046875 L -1581.502197265625 20979.998046875 Z M -1598.000366210938 20972 L -1600.998657226563 20972 L -1600.998657226563 20954.00390625 L -1605.003295898438 20954.00390625 L -1599.496826171875 20944.00390625 L -1594.0009765625 20954.00390625 L -1598.000366210938 20954.00390625 L -1598.000366210938 20972 Z M -1612.996826171875 20972 L -1616.000366210938 20972 L -1616.000366210938 20954.00390625 L -1619.999755859375 20954.00390625 L -1614.49853515625 20944.00390625 L -1609.002685546875 20954.00390625 L -1612.996826171875 20954.00390625 L -1612.996826171875 20972 Z M -1627.99853515625 20972 L -1631.002075195313 20972 L -1631.002075195313 20954.00390625 L -1635.00146484375 20954.00390625 L -1629.500244140625 20944.00390625 L -1623.999145507813 20954.00390625 L -1627.99853515625 20954.00390625 L -1627.99853515625 20972 Z"/>
    </g>
  </g>
</svg>
