<svg xmlns="http://www.w3.org/2000/svg" width="23.028" height="18.125" viewBox="0 0 23.028 18.125">
  <g id="camera" transform="translate(0 -44.8)">
    <g id="Group_2597" data-name="Group 2597" transform="translate(0 44.8)">
      <g id="Group_2596" data-name="Group 2596" transform="translate(0 0)">
        <path id="Path_726" data-name="Path 726" d="M22.262,47.624a2.476,2.476,0,0,0-1.817-.766H16.811v-.044a1.965,1.965,0,0,0-.591-1.423A2,2,0,0,0,14.8,44.8H8.231a2.018,2.018,0,0,0-2.036,2.014v.044H2.583a2.476,2.476,0,0,0-1.817.766A2.6,2.6,0,0,0,0,49.441v10.9a2.476,2.476,0,0,0,.766,1.817,2.6,2.6,0,0,0,1.817.766H20.445a2.476,2.476,0,0,0,1.817-.766,2.6,2.6,0,0,0,.766-1.817v-10.9A2.476,2.476,0,0,0,22.262,47.624ZM21.89,60.342h-.022a1.42,1.42,0,0,1-1.423,1.423H2.583A1.42,1.42,0,0,1,1.16,60.342v-10.9a1.42,1.42,0,0,1,1.423-1.423H6.808a.589.589,0,0,0,.591-.591v-.635a.824.824,0,0,1,.854-.854H14.8a.824.824,0,0,1,.854.854v.635a.589.589,0,0,0,.591.591h4.225a1.42,1.42,0,0,1,1.423,1.423Z" transform="translate(0 -44.8)"/>
        <path id="Path_727" data-name="Path 727" d="M117.385,130.8a5.381,5.381,0,1,0,3.809,1.576A5.394,5.394,0,0,0,117.385,130.8Zm2.977,8.384a4.228,4.228,0,0,1-5.954,0,4.185,4.185,0,0,1-1.226-2.977,4.278,4.278,0,0,1,1.226-2.977A4.185,4.185,0,0,1,117.385,132a4.278,4.278,0,0,1,2.977,1.226,4.185,4.185,0,0,1,1.226,2.977A4.1,4.1,0,0,1,120.362,139.184Z" transform="translate(-105.871 -126.094)"/>
        <circle id="Ellipse_81" data-name="Ellipse 81" cx="1.073" cy="1.073" r="1.073" transform="translate(18.234 4.684)"/>
      </g>
    </g>
  </g>
</svg>
