<svg id="Page-1" xmlns="http://www.w3.org/2000/svg" width="50" height="60" viewBox="0 0 50 60">
  <defs>
    <style>
      .cls-1 {
        fill: #fff;
      }
    </style>
  </defs>
  <g id="_125---Python-Files" data-name="125---Python-Files">
    <path id="Shape" class="cls-1" d="M9,60H45a5.006,5.006,0,0,0,5-5V9a5,5,0,0,0-4.092-4.908A5,5,0,0,0,41,0H14a1,1,0,0,0-.707.293l-13,13A1,1,0,0,0,0,14V51a5,5,0,0,0,4.092,4.908A5,5,0,0,0,9,60ZM48,9V55a3,3,0,0,1-3,3H9a3,3,0,0,1-2.816-2H41a5.006,5.006,0,0,0,5-5V6.184A3,3,0,0,1,48,9ZM13,3.414V10a3,3,0,0,1-3,3H3.414ZM2,51V15h8a5.006,5.006,0,0,0,5-5V2H41a3,3,0,0,1,3,3V51a3,3,0,0,1-3,3H5A3,3,0,0,1,2,51Z"/>
    <path id="Shape-2" data-name="Shape" class="cls-1" d="M29,6h6a1,1,0,0,0,0-2H29a1,1,0,0,0,0,2Z"/>
    <path id="Shape-3" data-name="Shape" class="cls-1" d="M39,6h2a1,1,0,0,0,0-2H39a1,1,0,0,0,0,2Z"/>
    <path id="Shape-4" data-name="Shape" class="cls-1" d="M6,51H7a1,1,0,0,0,0-2H6a1,1,0,0,0,0,2Z"/>
    <path id="Shape-5" data-name="Shape" class="cls-1" d="M40,49H31a1,1,0,0,0,0,2h9a1,1,0,0,0,0-2Z"/>
    <path id="Shape-6" data-name="Shape" class="cls-1" d="M26,49H11a1,1,0,0,0,0,2H26a1,1,0,0,0,0-2Z"/>
    <circle id="Oval" class="cls-1" cx="1" cy="1" r="1" transform="translate(20 17)"/>
    <circle id="Oval-2" data-name="Oval" class="cls-1" cx="1" cy="1" r="1" transform="translate(24 39)"/>
    <path id="Shape-7" data-name="Shape" class="cls-1" d="M6,51H7a1,1,0,0,0,0-2H6a1,1,0,0,0,0,2Z" transform="translate(0 -26)"/>
    <path id="Shape-8" data-name="Shape" class="cls-1" d="M40,49H31a1,1,0,0,0,0,2h9a1,1,0,0,0,0-2Z" transform="translate(0 -26)"/>
    <path id="Shape-9" data-name="Shape" class="cls-1" d="M26,49H11a1,1,0,0,0,0,2H26a1,1,0,0,0,0-2Z" transform="translate(0 -26)"/>
    <path id="Shape-10" data-name="Shape" class="cls-1" d="M6,51H7a1,1,0,0,0,0-2H6a1,1,0,0,0,0,2Z" transform="translate(0 -21)"/>
    <path id="Shape-11" data-name="Shape" class="cls-1" d="M40,49H31a1,1,0,0,0,0,2h9a1,1,0,0,0,0-2Z" transform="translate(0 -21)"/>
    <path id="Shape-12" data-name="Shape" class="cls-1" d="M26,49H11a1,1,0,0,0,0,2H26a1,1,0,0,0,0-2Z" transform="translate(0 -21)"/>
    <path id="Shape-13" data-name="Shape" class="cls-1" d="M6,51H7a1,1,0,0,0,0-2H6a1,1,0,0,0,0,2Z" transform="translate(0 -16)"/>
    <path id="Shape-14" data-name="Shape" class="cls-1" d="M40,49H31a1,1,0,0,0,0,2h9a1,1,0,0,0,0-2Z" transform="translate(0 -16)"/>
    <path id="Shape-15" data-name="Shape" class="cls-1" d="M26,49H11a1,1,0,0,0,0,2H26a1,1,0,0,0,0-2Z" transform="translate(0 -16)"/>
  </g>
</svg>
