<svg xmlns="http://www.w3.org/2000/svg" width="22.001" height="18.998" viewBox="0 0 22.001 18.998">
  <g id="Union_139" data-name="Union 139" transform="translate(-0.002 -0.002)" fill="#707070">
    <path d="M 15.50167560577393 18.05650520324707 L 14.05115032196045 15.7352409362793 L 13.90428066253662 15.50020027160645 L 13.62713050842285 15.50020027160645 L 3.002400398254395 15.50020027160645 C 1.623560428619385 15.50020027160645 0.5018004179000854 14.37884044647217 0.5018004179000854 13.00050067901611 L 0.5018004179000854 3.002400636672974 C 0.5018004179000854 1.623560667037964 1.623560428619385 0.5018006563186646 3.002400398254395 0.5018006563186646 L 19.00169944763184 0.5018006563186646 C 20.38054084777832 0.5018006563186646 21.50230026245117 1.623560667037964 21.50230026245117 3.002400636672974 L 21.50230026245117 13.00050067901611 C 21.50230026245117 14.37884044647217 20.38054084777832 15.50020027160645 19.00169944763184 15.50020027160645 L 17.37675094604492 15.50020027160645 L 17.09965133666992 15.50020027160645 L 16.9527702331543 15.73517036437988 L 15.50167560577393 18.05650520324707 Z" stroke="none"/>
    <path d="M 15.50174999237061 17.11309814453125 L 16.52878952026367 15.47013092041016 L 16.82256126403809 15.00020027160645 L 17.37675094604492 15.00020027160645 L 19.00169944763184 15.00020027160645 C 20.10482978820801 15.00020027160645 21.00230026245117 14.10314083099365 21.00230026245117 13.00050067901611 L 21.00230026245117 3.002400636672974 C 21.00230026245117 1.89927065372467 20.10482978820801 1.001800656318665 19.00169944763184 1.001800656318665 L 3.002400398254395 1.001800656318665 C 1.899270415306091 1.001800656318665 1.001800417900085 1.89927065372467 1.001800417900085 3.002400636672974 L 1.001800417900085 13.00050067901611 C 1.001800417900085 14.10314083099365 1.899270415306091 15.00020027160645 3.002400398254395 15.00020027160645 L 13.62713050842285 15.00020027160645 L 14.18143081665039 15.00020027160645 L 14.47517013549805 15.47027111053467 L 15.50174999237061 17.11309814453125 M 15.50160026550293 18.99990081787109 L 13.62713050842285 16.00020027160645 L 3.002400398254395 16.00020027160645 C 1.345500349998474 16.00020027160645 0.001800399739295244 14.6574010848999 0.001800399739295244 13.00050067901611 L 0.001800399739295244 3.002400636672974 C 0.001800399739295244 1.345500707626343 1.345500349998474 0.001800677506253123 3.002400398254395 0.001800677506253123 L 19.00169944763184 0.001800677506253123 C 20.65859985351563 0.001800677506253123 22.00230026245117 1.345500707626343 22.00230026245117 3.002400636672974 L 22.00230026245117 13.00050067901611 C 22.00230026245117 14.6574010848999 20.65859985351563 16.00020027160645 19.00169944763184 16.00020027160645 L 17.37675094604492 16.00020027160645 L 15.50160026550293 18.99990081787109 Z" stroke="none"/>
  </g>
</svg>
