<svg id="Group_3965" data-name="Group 3965" xmlns="http://www.w3.org/2000/svg" width="25.899" height="25.899" viewBox="0 0 25.899 25.899">
  <defs>
    <style>
      .cls-1 {
        fill: #00a19c;
      }

      .cls-2, .cls-4 {
        fill: #fff;
      }

      .cls-3, .cls-4 {
        stroke: none;
      }
    </style>
  </defs>
  <g id="Group_3492" data-name="Group 3492">
    <g id="Path_1489" data-name="Path 1489" class="cls-1" transform="translate(0)">
      <path class="cls-3" d="M 12.94947052001953 25.39894104003906 C 9.624100685119629 25.39894104003906 6.49776029586792 24.10396957397461 4.146370410919189 21.75257110595703 C 1.794970512390137 19.40118026733398 0.500000536441803 16.27484130859375 0.500000536441803 12.94947052001953 C 0.500000536441803 9.624100685119629 1.794970512390137 6.49776029586792 4.146370410919189 4.146370410919189 C 6.49776029586792 1.794970512390137 9.624100685119629 0.500000536441803 12.94947052001953 0.500000536441803 C 16.27484130859375 0.500000536441803 19.40118026733398 1.794970512390137 21.75257110595703 4.146370410919189 C 24.10396957397461 6.49776029586792 25.39894104003906 9.624100685119629 25.39894104003906 12.94947052001953 C 25.39894104003906 16.27484130859375 24.10396957397461 19.40118026733398 21.75257110595703 21.75257110595703 C 19.40118026733398 24.10396957397461 16.27484130859375 25.39894104003906 12.94947052001953 25.39894104003906 Z"/>
      <path class="cls-4" d="M 12.94947052001953 1 C 9.757650375366211 1 6.756879806518555 2.242959976196289 4.499919891357422 4.499919891357422 C 2.242959976196289 6.756879806518555 1 9.757650375366211 1 12.94947052001953 C 1 16.14129066467285 2.242959976196289 19.14206123352051 4.499919891357422 21.39902114868164 C 6.756879806518555 23.65598106384277 9.757650375366211 24.89894104003906 12.94947052001953 24.89894104003906 C 16.14129066467285 24.89894104003906 19.14206123352051 23.65598106384277 21.39902114868164 21.39902114868164 C 23.65598106384277 19.14206123352051 24.89894104003906 16.14129066467285 24.89894104003906 12.94947052001953 C 24.89894104003906 9.757650375366211 23.65598106384277 6.756879806518555 21.39902114868164 4.499919891357422 C 19.14206123352051 2.242959976196289 16.14129066467285 1 12.94947052001953 1 M 12.94947052001953 0 C 20.10126113891602 0 25.89894104003906 5.797679901123047 25.89894104003906 12.94947052001953 C 25.89894104003906 20.10126113891602 20.10126113891602 25.89894104003906 12.94947052001953 25.89894104003906 C 5.797679901123047 25.89894104003906 0 20.10126113891602 0 12.94947052001953 C 0 5.797679901123047 5.797679901123047 0 12.94947052001953 0 Z"/>
    </g>
    <g id="Component_26" data-name="Component 26" transform="translate(4 8)">
      <path id="Path_1490" data-name="Path 1490" class="cls-2" d="M227.248,60a1.248,1.248,0,1,0,1.248,1.248A1.25,1.25,0,0,0,227.248,60Zm0,1.665a.416.416,0,1,1,.416-.416A.417.417,0,0,1,227.248,61.665Z" transform="translate(-218.509 -57.503)"/>
      <path id="Path_1491" data-name="Path 1491" class="cls-2" d="M146,61.248A1.248,1.248,0,1,0,147.248,60,1.25,1.25,0,0,0,146,61.248Zm1.665,0a.416.416,0,1,1-.416-.416A.417.417,0,0,1,147.665,61.248Z" transform="translate(-141.838 -57.503)"/>
      <path id="Path_1492" data-name="Path 1492" class="cls-2" d="M308.5,61.248a1.248,1.248,0,1,0-1.248,1.248A1.25,1.25,0,0,0,308.5,61.248Zm-1.665,0a.416.416,0,1,1,.416.416A.417.417,0,0,1,306.832,61.248Z" transform="translate(-295.18 -57.503)"/>
      <circle id="Ellipse_85" data-name="Ellipse 85" class="cls-2" cx="0.5" cy="0.5" r="0.5" transform="translate(8.086)"/>
      <path id="Path_1493" data-name="Path 1493" class="cls-2" d="M55.19,6.909l-.451,1.037-.451-1.037a.416.416,0,0,0-.382-.25H49.745a2.913,2.913,0,1,1,0-5.826h3.121a.416.416,0,0,0,0-.832H49.745a3.745,3.745,0,1,0,0,7.491h3.889l.724,1.664a.416.416,0,0,0,.763,0l.724-1.664h3.889a3.745,3.745,0,0,0,0-7.491H56.612a.416.416,0,0,0,0,.832h3.121a2.913,2.913,0,0,1,0,5.826H55.572A.416.416,0,0,0,55.19,6.909Z" transform="translate(-46)"/>
    </g>
  </g>
</svg>
