<svg id="favourite-yellow" xmlns="http://www.w3.org/2000/svg" width="46.742" height="46.742" viewBox="0 0 46.742 46.742">
  <g id="Path_706" data-name="Path 706" fill="#fff">
    <path d="M 23.37093925476074 45.24187850952148 C 20.4177188873291 45.24187850952148 17.55363845825195 44.663818359375 14.85823917388916 43.52376937866211 C 12.25404930114746 42.42229080200195 9.914918899536133 40.84510040283203 7.905849456787109 38.83602905273438 C 5.89677906036377 36.82695770263672 4.319589138031006 34.48783874511719 3.218109369277954 31.88363838195801 C 2.078059196472168 29.1882495880127 1.499999284744263 26.32415962219238 1.499999284744263 23.37093925476074 C 1.499999284744263 20.4177188873291 2.078059196472168 17.55363845825195 3.218109369277954 14.85824966430664 C 4.319589138031006 12.25404930114746 5.89677906036377 9.914929389953613 7.905849456787109 7.905849456787109 C 9.914929389953613 5.89677906036377 12.25404930114746 4.319589138031006 14.85824966430664 3.218109369277954 C 17.55363845825195 2.078059196472168 20.4177188873291 1.499999284744263 23.37093925476074 1.499999284744263 C 26.32415962219238 1.499999284744263 29.1882495880127 2.078059196472168 31.88363838195801 3.218109369277954 C 34.48783874511719 4.319589138031006 36.82695770263672 5.89677906036377 38.83602905273438 7.905849456787109 C 40.84510040283203 9.914918899536133 42.42229080200195 12.25404930114746 43.52376937866211 14.85823917388916 C 44.663818359375 17.55363845825195 45.24187850952148 20.4177188873291 45.24187850952148 23.37093925476074 C 45.24187850952148 26.32415962219238 44.663818359375 29.1882495880127 43.52376937866211 31.88363838195801 C 42.42229080200195 34.48783874511719 40.84510803222656 36.82695770263672 38.83602905273438 38.83602905273438 C 36.82695770263672 40.84510803222656 34.48783874511719 42.42229080200195 31.88363838195801 43.52376937866211 C 29.1882495880127 44.663818359375 26.32415962219238 45.24187850952148 23.37093925476074 45.24187850952148 Z" stroke="none"/>
    <path d="M 23.37093925476074 3 C 20.61955833435059 3 17.95206832885742 3.538188934326172 15.44256973266602 4.599620819091797 C 13.01716995239258 5.625480651855469 10.83831024169922 7.094707489013672 8.966510772705078 8.966510772705078 C 7.094707489013672 10.83831024169922 5.625480651855469 13.01716995239258 4.599620819091797 15.44256973266602 C 3.538188934326172 17.95206832885742 3 20.61955833435059 3 23.37093925476074 C 3 26.1223201751709 3.538188934326172 28.78981018066406 4.599620819091797 31.29930877685547 C 5.625480651855469 33.72470855712891 7.094707489013672 35.90356826782227 8.966510772705078 37.77536773681641 C 10.83831024169922 39.64717102050781 13.01716995239258 41.11639785766602 15.44256973266602 42.14225769042969 C 17.95206832885742 43.20368957519531 20.61955833435059 43.74187850952148 23.37093925476074 43.74187850952148 C 26.1223201751709 43.74187850952148 28.78981018066406 43.20368957519531 31.29930877685547 42.14225769042969 C 33.72470855712891 41.11639785766602 35.90356826782227 39.64717102050781 37.77536773681641 37.77536773681641 C 39.64717102050781 35.90356826782227 41.11639785766602 33.72470855712891 42.14225769042969 31.29930877685547 C 43.20368957519531 28.78981018066406 43.74187850952148 26.1223201751709 43.74187850952148 23.37093925476074 C 43.74187850952148 20.61955833435059 43.20368957519531 17.95206832885742 42.14225769042969 15.44256973266602 C 41.11639785766602 13.01716995239258 39.64717102050781 10.83831024169922 37.77536773681641 8.966510772705078 C 35.90356826782227 7.094707489013672 33.72470855712891 5.625480651855469 31.29930877685547 4.599620819091797 C 28.78981018066406 3.538188934326172 26.1223201751709 3 23.37093925476074 3 M 23.37093925476074 0 C 36.27835083007813 0 46.74187850952148 10.46352767944336 46.74187850952148 23.37093925476074 C 46.74187850952148 36.27835083007813 36.27835083007813 46.74187850952148 23.37093925476074 46.74187850952148 C 10.46352767944336 46.74187850952148 0 36.27835083007813 0 23.37093925476074 C 0 10.46352767944336 10.46352767944336 0 23.37093925476074 0 Z" stroke="none" fill="#e1a90d"/>
  </g>
  <g id="SME" transform="translate(11.914 9)">
    <path id="Subtraction_4" data-name="Subtraction 4" d="M.678,27.017H.608a.6.6,0,0,1-.608-.5v-.3A.358.358,0,0,0,0,26v-.163a.054.054,0,0,0,.014-.045c0-.005,0-.01,0-.015a.157.157,0,0,1,0-.022A.068.068,0,0,0,0,25.7v-.108a.468.468,0,0,0,.044-.228c0-.028,0-.055,0-.082a11.588,11.588,0,0,1,2.144-5.8A11.813,11.813,0,0,1,8,15.135l.231-.077.117-.038c-.009-.04-.04-.051-.069-.061a.225.225,0,0,1-.031-.013,7.68,7.68,0,0,1-4.1-5.336,7.635,7.635,0,0,1,2.29-7.434,7.634,7.634,0,0,1,4.4-2.1c.181-.024.367-.036.546-.047L11.648.01c.071-.007.143-.01.214-.01s.148,0,.221.011a7.721,7.721,0,0,1,4,1.229,7.793,7.793,0,0,1,3.576,5.418,7.891,7.891,0,0,1-4.77,8.559,8.075,8.075,0,0,1-3.07.6h-.016a10.187,10.187,0,0,0-6.032,1.927A10.421,10.421,0,0,0,1.7,23.523a10.178,10.178,0,0,0-.38,2.689,1.017,1.017,0,0,1-.04.348.665.665,0,0,1-.549.446A.137.137,0,0,1,.678,27.017ZM11.866,1.841a6.085,6.085,0,0,0,.011,12.171h.128a6.086,6.086,0,0,0-.131-12.17Z" transform="translate(0.025 0.132)" fill="#e1a90d"/>
    <path id="Subtraction_5" data-name="Subtraction 5" d="M10.816,13.225l-.05,0a.755.755,0,0,1-.392-.17L9.21,12.2l-.022-.016-.01-.007c-.7-.512-1.432-1.041-2.146-1.564a.183.183,0,0,0-.107-.045.2.2,0,0,0-.113.048c-1.019.743-2.1,1.526-3.388,2.462a.7.7,0,0,1-.408.14.593.593,0,0,1-.482-.249.638.638,0,0,1-.079-.618q.457-1.4.911-2.8l.127-.391c.024-.074.048-.148.071-.222.058-.181.117-.368.183-.548a.162.162,0,0,0-.076-.219C2.653,7.443,1.551,6.643.3,5.733A.692.692,0,0,1,0,5.259.59.59,0,0,1,.149,4.8a.578.578,0,0,1,.434-.219c.163,0,.329,0,.489,0h1.51c.672,0,1.466,0,2.264,0,.108,0,.15-.031.184-.139.321-1,.649-2.006.966-2.982L6.3.521A.662.662,0,0,1,6.911,0,.654.654,0,0,1,7.1.03a.618.618,0,0,1,.425.437c.145.451.295.909.44,1.352l0,.007.148.454.093.286c.2.623.411,1.267.614,1.9.028.087.065.113.162.113h2.242c.5,0,1.16,0,1.83-.007h.016a.712.712,0,0,1,.775.5v.244a1,1,0,0,1-.424.5c-.591.426-1.19.862-1.77,1.283l-.007.005q-.741.539-1.483,1.076a.145.145,0,0,0-.064.2c.409,1.247.816,2.5,1.21,3.715l.084.259a.681.681,0,0,1-.081.618A.6.6,0,0,1,10.816,13.225ZM6.984,8.881a.659.659,0,0,1,.385.152l.983.715.491.357.507.365a.152.152,0,0,0-.013-.11c0-.009-.007-.018-.01-.027q-.241-.743-.484-1.487L8.6,8.1a.556.556,0,0,1,.22-.684Q9.4,7,9.975,6.581l.848-.616-.005-.024H8.375a.571.571,0,0,1-.623-.451l0-.011q-.36-1.11-.722-2.219a.249.249,0,0,1-.006-.025.1.1,0,0,0-.048-.077l-.012.034-.005.014-.011.033Q6.583,4.349,6.22,5.458a.579.579,0,0,1-.66.482H3.15l0,.016,0,.008L3.2,6l.079.059.886.643.036.026.922.669a.564.564,0,0,1,.236.72l-.167.516q-.278.857-.555,1.715a.175.175,0,0,1-.01.024.079.079,0,0,0,0,.091l.055-.039.034-.024.43-.312L6.593,9.037A.668.668,0,0,1,6.984,8.881Z" transform="translate(12.787 13.641)" fill="#e1a90d"/>
    <path id="Path_713" data-name="Path 713" d="M.026,976.91c.038.068.072.14.116.2a.668.668,0,0,0,.481.288c.009,0,.012.01.01.015s-.006.008-.009.008c-.177,0-.353,0-.529,0-.059,0-.072-.011-.07-.07C.029,977.209.026,977.059.026,976.91Z" transform="translate(0 -950.263)" fill="#e1a90d"/>
    <path id="Path_714" data-name="Path 714" d="M429.416.143h-.436c0-.007,0-.015,0-.022h.435C429.416.128,429.416.135,429.416.143Z" transform="translate(-417.307)" fill="#e1a90d"/>
    <path id="Path_715" data-name="Path 715" d="M.1,957.92a.2.2,0,0,1,0,.217Z" transform="translate(-0.074 -931.789)" fill="#e1a90d"/>
    <path id="Path_716" data-name="Path 716" d="M22.061,995.073a.161.161,0,0,0,0-.023H22.2a.135.135,0,0,0,0,.023Z" transform="translate(-21.438 -967.91)" fill="#e1a90d"/>
    <path id="Path_717" data-name="Path 717" d="M.1,946.92c.046.016.021.052.022.08-.007.013-.014.014-.022,0Z" transform="translate(-0.074 -921.087)" fill="#e1a90d"/>
    <path id="Path_718" data-name="Path 718" d="M.1,949.878H.122c.005.024.008.046-.022.055Z" transform="translate(-0.074 -923.964)" fill="#e1a90d"/>
  </g>
</svg>
