<svg xmlns="http://www.w3.org/2000/svg" width="23.105" height="23.105" viewBox="0 0 23.105 23.105">
  <path id="rss" d="M17.69,23.105H5.415A5.421,5.421,0,0,1,0,17.69V5.415A5.421,5.421,0,0,1,5.415,0H17.69a5.421,5.421,0,0,1,5.415,5.415V17.69A5.421,5.421,0,0,1,17.69,23.105ZM5.415,1.805a3.614,3.614,0,0,0-3.61,3.61V17.69a3.614,3.614,0,0,0,3.61,3.61H17.69a3.614,3.614,0,0,0,3.61-3.61V5.415a3.614,3.614,0,0,0-3.61-3.61Zm0,14.8a1.128,1.128,0,1,0,1.128,1.128A1.128,1.128,0,0,0,5.415,16.607Zm7.356,1.354A7.59,7.59,0,0,0,5.19,10.379a.9.9,0,1,0,0,1.805,5.783,5.783,0,0,1,5.776,5.776.9.9,0,1,0,1.805,0Zm5.912,0A13.493,13.493,0,0,0,5.19,4.468a.9.9,0,1,0,0,1.805A11.7,11.7,0,0,1,16.878,17.961a.9.9,0,1,0,1.805,0Z" transform="translate(0 0)"/>
</svg>
