<svg xmlns="http://www.w3.org/2000/svg" width="13.08" height="17.814" viewBox="0 0 13.08 17.814">
  <g id="flame" transform="translate(-114.73 0)">
    <path id="Path_1407" data-name="Path 1407" d="M118.193,17.79c.2.093.42-.108.295-.274a3.857,3.857,0,0,1-.3-4.365C119.9,9.9,120.94,8.215,120.94,8.215a10.934,10.934,0,0,0,2.053,3.714c1.443,1.682,2.233,3.8.96,5.56-.119.165.091.361.294.272a5.493,5.493,0,0,0,3.544-4.8,8.086,8.086,0,0,0-.588-3.489,6.729,6.729,0,0,0-2.086-3.125c-.151-.112-.386-.013-.373.158.147,2.023-.747,2.536-1.256,1.379a6.1,6.1,0,0,1-.322-2.234A6.908,6.908,0,0,0,121.4,1,5.786,5.786,0,0,0,120.284.04c-.154-.1-.377,0-.363.166.093,1.1.009,4.246-3.235,8.007-2.942,3.489-1.8,6.168-1.4,6.893A6.182,6.182,0,0,0,118.193,17.79Z"/>
  </g>
</svg>
