<svg xmlns="http://www.w3.org/2000/svg" width="21.094" height="18.767" viewBox="0 0 21.094 18.767">
  <defs>
    <style>
      .cls-1 {
        fill: #ef1a1a;
      }
    </style>
  </defs>
  <path id="heart-red" class="cls-1" d="M10.547,18.767a1.237,1.237,0,0,1-.815-.306c-.852-.745-1.674-1.445-2.4-2.063l0,0a44.607,44.607,0,0,1-5.237-4.916A7.851,7.851,0,0,1,0,6.339a6.593,6.593,0,0,1,1.673-4.5A5.672,5.672,0,0,1,5.893,0,5.306,5.306,0,0,1,9.207,1.144a6.781,6.781,0,0,1,1.34,1.4,6.781,6.781,0,0,1,1.34-1.4A5.306,5.306,0,0,1,15.2,0a5.672,5.672,0,0,1,4.219,1.837,6.593,6.593,0,0,1,1.673,4.5A7.85,7.85,0,0,1,19,11.478a44.6,44.6,0,0,1-5.237,4.915c-.726.619-1.549,1.32-2.4,2.067a1.238,1.238,0,0,1-.815.306ZM5.893,1.236A4.45,4.45,0,0,0,2.582,2.674,5.363,5.363,0,0,0,1.236,6.339,6.606,6.606,0,0,0,3.043,10.69a43.9,43.9,0,0,0,5.087,4.764l0,0c.728.62,1.552,1.323,2.411,2.074.864-.752,1.69-1.456,2.419-2.077a43.908,43.908,0,0,0,5.087-4.763,6.607,6.607,0,0,0,1.808-4.351,5.363,5.363,0,0,0-1.346-3.665A4.45,4.45,0,0,0,15.2,1.236a4.1,4.1,0,0,0-2.558.886,6,6,0,0,0-1.426,1.65.78.78,0,0,1-1.34,0,5.99,5.99,0,0,0-1.426-1.65,4.1,4.1,0,0,0-2.558-.886Zm0,0" transform="translate(0 0)"/>
</svg>
