<svg id="Component_22_1" data-name="Component 22 – 1" xmlns="http://www.w3.org/2000/svg" width="46.742" height="46.742" viewBox="0 0 46.742 46.742">
  <defs>
    <style>
      .cls-1 {
        fill: #fff;
      }

      .cls-2, .cls-4 {
        fill: #008f8a;
      }

      .cls-3, .cls-4 {
        stroke: none;
      }
    </style>
  </defs>
  <g id="Path_706" data-name="Path 706" class="cls-1">
    <path class="cls-3" d="M 23.37093925476074 45.24187850952148 C 20.4177188873291 45.24187850952148 17.55363845825195 44.663818359375 14.85823917388916 43.52376937866211 C 12.25404930114746 42.42229080200195 9.914918899536133 40.84510040283203 7.905849456787109 38.83602905273438 C 5.89677906036377 36.82695770263672 4.319589138031006 34.48783874511719 3.218109369277954 31.88363838195801 C 2.078059196472168 29.1882495880127 1.499999284744263 26.32415962219238 1.499999284744263 23.37093925476074 C 1.499999284744263 20.4177188873291 2.078059196472168 17.55363845825195 3.218109369277954 14.85824966430664 C 4.319589138031006 12.25404930114746 5.89677906036377 9.914929389953613 7.905849456787109 7.905849456787109 C 9.914929389953613 5.89677906036377 12.25404930114746 4.319589138031006 14.85824966430664 3.218109369277954 C 17.55363845825195 2.078059196472168 20.4177188873291 1.499999284744263 23.37093925476074 1.499999284744263 C 26.32415962219238 1.499999284744263 29.1882495880127 2.078059196472168 31.88363838195801 3.218109369277954 C 34.48783874511719 4.319589138031006 36.82695770263672 5.89677906036377 38.83602905273438 7.905849456787109 C 40.84510040283203 9.914918899536133 42.42229080200195 12.25404930114746 43.52376937866211 14.85823917388916 C 44.663818359375 17.55363845825195 45.24187850952148 20.4177188873291 45.24187850952148 23.37093925476074 C 45.24187850952148 26.32415962219238 44.663818359375 29.1882495880127 43.52376937866211 31.88363838195801 C 42.42229080200195 34.48783874511719 40.84510803222656 36.82695770263672 38.83602905273438 38.83602905273438 C 36.82695770263672 40.84510803222656 34.48783874511719 42.42229080200195 31.88363838195801 43.52376937866211 C 29.1882495880127 44.663818359375 26.32415962219238 45.24187850952148 23.37093925476074 45.24187850952148 Z"/>
    <path class="cls-4" d="M 23.37093925476074 3 C 20.61955833435059 3 17.95206832885742 3.538188934326172 15.44256973266602 4.599620819091797 C 13.01716995239258 5.625480651855469 10.83831024169922 7.094707489013672 8.966510772705078 8.966510772705078 C 7.094707489013672 10.83831024169922 5.625480651855469 13.01716995239258 4.599620819091797 15.44256973266602 C 3.538188934326172 17.95206832885742 3 20.61955833435059 3 23.37093925476074 C 3 26.1223201751709 3.538188934326172 28.78981018066406 4.599620819091797 31.29930877685547 C 5.625480651855469 33.72470855712891 7.094707489013672 35.90356826782227 8.966510772705078 37.77536773681641 C 10.83831024169922 39.64717102050781 13.01716995239258 41.11639785766602 15.44256973266602 42.14225769042969 C 17.95206832885742 43.20368957519531 20.61955833435059 43.74187850952148 23.37093925476074 43.74187850952148 C 26.1223201751709 43.74187850952148 28.78981018066406 43.20368957519531 31.29930877685547 42.14225769042969 C 33.72470855712891 41.11639785766602 35.90356826782227 39.64717102050781 37.77536773681641 37.77536773681641 C 39.64717102050781 35.90356826782227 41.11639785766602 33.72470855712891 42.14225769042969 31.29930877685547 C 43.20368957519531 28.78981018066406 43.74187850952148 26.1223201751709 43.74187850952148 23.37093925476074 C 43.74187850952148 20.61955833435059 43.20368957519531 17.95206832885742 42.14225769042969 15.44256973266602 C 41.11639785766602 13.01716995239258 39.64717102050781 10.83831024169922 37.77536773681641 8.966510772705078 C 35.90356826782227 7.094707489013672 33.72470855712891 5.625480651855469 31.29930877685547 4.599620819091797 C 28.78981018066406 3.538188934326172 26.1223201751709 3 23.37093925476074 3 M 23.37093925476074 0 C 36.27835083007813 0 46.74187850952148 10.46352767944336 46.74187850952148 23.37093925476074 C 46.74187850952148 36.27835083007813 36.27835083007813 46.74187850952148 23.37093925476074 46.74187850952148 C 10.46352767944336 46.74187850952148 0 36.27835083007813 0 23.37093925476074 C 0 10.46352767944336 10.46352767944336 0 23.37093925476074 0 Z"/>
  </g>
  <g id="microphone" transform="translate(-83.589 9.328)">
    <path id="Path_707" data-name="Path 707" class="cls-2" d="M106.149,303.064v3.274h-4.778v1.592h11.148v-1.592h-4.778v-3.274a8.78,8.78,0,0,0,7.56-6.095l-1.519-.479a7.167,7.167,0,0,1-13.674,0l-1.519.479A8.78,8.78,0,0,0,106.149,303.064Z" transform="translate(0 -280.752)"/>
    <path id="Path_708" data-name="Path 708" class="cls-2" d="M156.574,19.163a5.58,5.58,0,0,0,5.574-5.574V5.627a5.574,5.574,0,1,0-11.148,0v7.963A5.58,5.58,0,0,0,156.574,19.163Zm-3.981-9.555h2.389V8.016h-2.389V6.423h2.389V4.831h-2.311a3.971,3.971,0,0,1,7.806,0h-2.311V6.423h2.389V8.016h-2.389V9.608h2.389V11.2h-7.963Zm0,3.185h7.963v.8a3.981,3.981,0,1,1-7.963,0Z" transform="translate(-49.629)"/>
  </g>
</svg>
