<svg xmlns="http://www.w3.org/2000/svg" width="69.158" height="69.155" viewBox="0 0 69.158 69.155">
  <defs>
    <style>
      .cls-1 {
        fill: #fff;
      }
    </style>
  </defs>
  <g id="Ins-widget" transform="translate(0)">
    <g id="Group_2852" data-name="Group 2852" transform="translate(-310 -14.341)">
      <g id="insight" transform="translate(305.25 9.588)">
        <path id="Path_1417" data-name="Path 1417" class="cls-1" d="M66.8,11.855A24.251,24.251,0,0,0,30.658,44.076l-3.193,3.191-.514-.514a1.021,1.021,0,0,0-1.444,0L5.049,67.212a1.021,1.021,0,0,0,0,1.444L10,73.609a1.021,1.021,0,0,0,1.444,0L31.9,53.151a1.021,1.021,0,0,0,0-1.444l-.514-.514L34.582,48A24.251,24.251,0,0,0,66.8,11.855ZM10.723,71.44,7.216,67.933,26.229,48.919l.5.5a.1.1,0,0,0,.026.026L29.207,51.9s.008.011.013.015l.015.013.5.5ZM29.945,49.749l-1.036-1.036L32,45.62c.167.175.331.358.505.531s.35.338.531.505ZM65.357,44.71a22.2,22.2,0,1,1,0-31.411,22.2,22.2,0,0,1,0,31.411Z" transform="translate(0 0)"/>
        <path id="Path_1418" data-name="Path 1418" class="cls-1" d="M81.516,16.812a20.776,20.776,0,1,0,6.069,14.673,20.776,20.776,0,0,0-6.069-14.673Zm-1.444,27.9a18.734,18.734,0,1,1,5.471-13.229,18.734,18.734,0,0,1-5.471,13.229Z" transform="translate(-17.19 -2.481)"/>
        <path id="Path_1419" data-name="Path 1419" class="cls-1" d="M108.849,38.285a1.021,1.021,0,1,0-1.976.513,15.34,15.34,0,0,1,.482,4.366,1.021,1.021,0,0,0,.986,1.056h.035a1.022,1.022,0,0,0,1.02-.987,17.373,17.373,0,0,0-.547-4.947Z" transform="translate(-42.51 -13.644)"/>
        <path id="Path_1420" data-name="Path 1420" class="cls-1" d="M64.182,27.925a1.02,1.02,0,0,0-.872.875c-.058.43-1.385,10.582,4.234,16.2,3.763,3.763,9.559,4.411,13.106,4.411a24.376,24.376,0,0,0,3.093-.175,1.021,1.021,0,0,0,.872-.872c.058-.43,1.385-10.583-4.234-16.2S64.612,27.866,64.182,27.925ZM82.671,47.287c-2.4.175-9.62.331-13.683-3.732s-3.91-11.289-3.732-13.684c2.393-.179,9.609-.341,13.684,3.735C83,37.667,82.849,44.891,82.671,47.287Z" transform="translate(-24.311 -9.576)"/>
        <path id="Path_1421" data-name="Path 1421" class="cls-1" d="M78.472,38.561a4.517,4.517,0,1,0,3.2,1.323A4.517,4.517,0,0,0,78.472,38.561Zm1.755,6.275a2.479,2.479,0,1,1,0-3.5A2.484,2.484,0,0,1,80.227,44.836Z" transform="translate(-28.818 -14.078)"/>
      </g>
    </g>
  </g>
</svg>
