<svg id="Group_3961" data-name="Group 3961" xmlns="http://www.w3.org/2000/svg" width="25.899" height="25.899" viewBox="0 0 25.899 25.899">
  <defs>
    <style>
      .cls-1 {
        fill: #fff;
      }

      .cls-2, .cls-4 {
        fill: #00a19c;
      }

      .cls-3, .cls-4 {
        stroke: none;
      }
    </style>
  </defs>
  <g id="Group_3492" data-name="Group 3492">
    <g id="Path_1489" data-name="Path 1489" class="cls-1" transform="translate(0)">
      <path class="cls-3" d="M 12.94947052001953 25.39894104003906 C 9.624100685119629 25.39894104003906 6.49776029586792 24.10396957397461 4.146370410919189 21.75257110595703 C 1.794970512390137 19.40118026733398 0.500000536441803 16.27484130859375 0.500000536441803 12.94947052001953 C 0.500000536441803 9.624100685119629 1.794970512390137 6.49776029586792 4.146370410919189 4.146370410919189 C 6.49776029586792 1.794970512390137 9.624100685119629 0.500000536441803 12.94947052001953 0.500000536441803 C 16.27484130859375 0.500000536441803 19.40118026733398 1.794970512390137 21.75257110595703 4.146370410919189 C 24.10396957397461 6.49776029586792 25.39894104003906 9.624100685119629 25.39894104003906 12.94947052001953 C 25.39894104003906 16.27484130859375 24.10396957397461 19.40118026733398 21.75257110595703 21.75257110595703 C 19.40118026733398 24.10396957397461 16.27484130859375 25.39894104003906 12.94947052001953 25.39894104003906 Z"/>
      <path class="cls-4" d="M 12.94947052001953 1 C 9.757650375366211 1 6.756879806518555 2.242959976196289 4.499919891357422 4.499919891357422 C 2.242959976196289 6.756879806518555 1 9.757650375366211 1 12.94947052001953 C 1 16.14129066467285 2.242959976196289 19.14206123352051 4.499919891357422 21.39902114868164 C 6.756879806518555 23.65598106384277 9.757650375366211 24.89894104003906 12.94947052001953 24.89894104003906 C 16.14129066467285 24.89894104003906 19.14206123352051 23.65598106384277 21.39902114868164 21.39902114868164 C 23.65598106384277 19.14206123352051 24.89894104003906 16.14129066467285 24.89894104003906 12.94947052001953 C 24.89894104003906 9.757650375366211 23.65598106384277 6.756879806518555 21.39902114868164 4.499919891357422 C 19.14206123352051 2.242959976196289 16.14129066467285 1 12.94947052001953 1 M 12.94947052001953 0 C 20.10126113891602 0 25.89894104003906 5.797679901123047 25.89894104003906 12.94947052001953 C 25.89894104003906 20.10126113891602 20.10126113891602 25.89894104003906 12.94947052001953 25.89894104003906 C 5.797679901123047 25.89894104003906 0 20.10126113891602 0 12.94947052001953 C 0 5.797679901123047 5.797679901123047 0 12.94947052001953 0 Z"/>
    </g>
    <g id="like_2_" data-name="like (2)" transform="translate(6.707 4.79)">
      <path id="Path_621" data-name="Path 621" class="cls-2" d="M12.444,74.126H10.076a4.283,4.283,0,0,0,.465-.8,2.6,2.6,0,0,0,.23-1.016,2.418,2.418,0,0,0-.674-1.715,1.881,1.881,0,0,0-1.336-.574,1.909,1.909,0,0,0-1.486.747,1.909,1.909,0,0,0-1.486-.747,1.881,1.881,0,0,0-1.443.7A2.473,2.473,0,0,0,3.78,72.3,2.565,2.565,0,0,0,4,73.324a4.212,4.212,0,0,0,.464.8H2.2a.433.433,0,0,0-.376.218L.611,76.462A.823.823,0,0,0,1.321,77.7h.872l.123,2.172a1.092,1.092,0,0,0,1.267,1.089l.932-.121.007,1.512a.433.433,0,0,0,.433.431h5.333a.433.433,0,0,0,.433-.433V79.093a5.233,5.233,0,0,0,2.156-4.519.433.433,0,0,0-.433-.448ZM5.79,70.885a1.192,1.192,0,0,1,1.071.928.433.433,0,0,0,.829,0,1.191,1.191,0,0,1,1.071-.928,1.022,1.022,0,0,1,.722.319A1.547,1.547,0,0,1,9.9,72.3a1.749,1.749,0,0,1-.159.678,4.5,4.5,0,0,1-.9,1.265l-.022.023a10.781,10.781,0,0,1-1.55,1.292c-.211-.144-.546-.385-.908-.691A5.591,5.591,0,0,1,4.8,72.984a1.709,1.709,0,0,1-.152-.675A1.315,1.315,0,0,1,5.79,70.885Zm5.727,6a3.451,3.451,0,0,1-1.445,1.589.433.433,0,0,0-.217.375v3.061H5.386L5.38,80.683l.818-.2a1.875,1.875,0,0,0,1.238-.979c.267-.526.606-1.214.609-1.221a.433.433,0,1,0-.777-.382c0,.007-.34.69-.6,1.212A1.011,1.011,0,0,1,6,79.645l-1.13.27-1.4.182-.019,0a.218.218,0,0,1-.182-.051.228.228,0,0,1-.08-.181c0-.012,0-.023,0-.035l-.137-2.418a.433.433,0,0,0-.4-.587H1.4l1.052-1.837H5.215a11.483,11.483,0,0,0,1.832,1.457.433.433,0,0,0,.457,0,11.534,11.534,0,0,0,1.822-1.456h2.658a5.652,5.652,0,0,1-.468,1.894Zm0,0" transform="translate(-0.5 -67.998)"/>
      <path id="Path_622" data-name="Path 622" class="cls-2" d="M221.445,1.177a.433.433,0,0,0,.433-.433V.433a.433.433,0,1,0-.866,0V.744A.433.433,0,0,0,221.445,1.177Zm0,0" transform="translate(-214.647)"/>
      <path id="Path_623" data-name="Path 623" class="cls-2" d="M84.459,46.7a.433.433,0,0,0,.613-.611l-.276-.277a.433.433,0,0,0-.613.611Zm0,0" transform="translate(-81.644 -44.371)"/>
      <path id="Path_624" data-name="Path 624" class="cls-2" d="M350.49,46.832a.432.432,0,0,0,.307-.127l.276-.277a.433.433,0,0,0-.613-.611l-.276.277a.433.433,0,0,0,.307.739Zm0,0" transform="translate(-339.967 -44.371)"/>
      <path id="Path_625" data-name="Path 625" class="cls-2" d="M37.851,153.124h.33a.433.433,0,0,0,0-.866h-.33a.433.433,0,0,0,0,.866Zm0,0" transform="translate(-36.352 -147.863)"/>
      <path id="Path_626" data-name="Path 626" class="cls-2" d="M393.956,152.258h-.336a.433.433,0,0,0,0,.866h.336a.433.433,0,0,0,0-.866Zm0,0" transform="translate(-381.852 -147.863)"/>
    </g>
  </g>
</svg>
