<svg xmlns="http://www.w3.org/2000/svg" width="37" height="34" viewBox="0 0 37 34">
  <g id="Group_3314" data-name="Group 3314" transform="translate(-34.187 -8.289)">
    <g id="Rectangle_1150" data-name="Rectangle 1150" transform="translate(34.187 8.289)" fill="#f5f5f5" stroke="#707070" stroke-width="1">
      <rect width="37" height="34" rx="4" stroke="none"/>
      <rect x="0.5" y="0.5" width="36" height="33" rx="3.5" fill="none"/>
    </g>
    <g id="Group_2618" data-name="Group 2618" transform="translate(50.174 14.289)">
      <g id="edit_1_" data-name="edit (1)" transform="translate(-17.825 0)">
        <g id="Group_2813" data-name="Group 2813" transform="translate(7.838 0)">
          <g id="Group_2812" data-name="Group 2812" transform="translate(0)">
            <g id="Component_7_37" data-name="Component 7 – 37" transform="translate(10 4)">
              <g id="Union_4" data-name="Union 4" transform="translate(741.162 -1095.449)" fill="none">
                <path d="M-732.427,1105.4a5.485,5.485,0,0,1-1.809.861,5.5,5.5,0,0,1-6.737-3.889,5.5,5.5,0,0,1,3.889-6.736,5.5,5.5,0,0,1,6.737,3.889,5.492,5.492,0,0,1-.943,4.763l4.489,4.489-1.124,1.124Z" stroke="none"/>
                <path d="M -735.663818359375 1105.450927734375 C -735.2716064453125 1105.450927734375 -734.8783569335938 1105.39892578125 -734.4949340820313 1105.296142578125 C -733.9578247070313 1105.152221679688 -733.4598388671875 1104.915405273438 -733.0147094726563 1104.591918945313 L -732.484375 1104.206665039063 L -732.0848999023438 1103.68310546875 C -731.2308349609375 1102.56396484375 -730.9495849609375 1101.143188476563 -731.3131713867188 1099.785278320313 C -731.8399047851563 1097.820678710938 -733.6259155273438 1096.448608398438 -735.6564331054688 1096.448608398438 C -736.0485229492188 1096.448608398438 -736.441650390625 1096.500732421875 -736.8251342773438 1096.603515625 C -737.9861450195313 1096.914428710938 -738.9564819335938 1097.658813476563 -739.5574951171875 1098.69970703125 C -740.1585083007813 1099.740600585938 -740.3180541992188 1100.953247070313 -740.0067749023438 1102.114501953125 C -739.4806518554688 1104.078979492188 -737.69482421875 1105.450927734375 -735.663818359375 1105.450927734375 M -727.9254150390625 1109.902587890625 L -732.4269409179688 1105.401000976563 C -732.95703125 1105.7861328125 -733.5653686523438 1106.082397460938 -734.2362060546875 1106.262084960938 C -734.7132568359375 1106.389892578125 -735.1924438476563 1106.450927734375 -735.663818359375 1106.450927734375 C -738.0926513671875 1106.450927734375 -740.314697265625 1104.830200195313 -740.9727172851563 1102.373168945313 C -741.7593383789063 1099.439086914063 -740.017822265625 1096.423217773438 -737.0838012695313 1095.637573242188 C -736.60693359375 1095.509765625 -736.127685546875 1095.448608398438 -735.6564331054688 1095.448608398438 C -733.2281494140625 1095.448608398438 -731.0060424804688 1097.0693359375 -730.3472900390625 1099.5263671875 C -729.8884887695313 1101.239868164063 -730.2911376953125 1102.98095703125 -731.2899169921875 1104.289794921875 L -726.8013305664063 1108.778442382813 L -727.9254150390625 1109.902587890625 Z" stroke="none" fill="#707070"/>
              </g>
            </g>
            <rect id="Rectangle_1560" data-name="Rectangle 1560" width="18" height="1" rx="0.5" transform="translate(0 18)" fill="#707070"/>
            <rect id="Rectangle_1561" data-name="Rectangle 1561" width="11" height="1" rx="0.5" transform="translate(0 14)" fill="#707070"/>
            <rect id="Rectangle_1562" data-name="Rectangle 1562" width="9" height="1" rx="0.5" transform="translate(0 10)" fill="#707070"/>
            <rect id="Rectangle_1563" data-name="Rectangle 1563" width="9" height="1" rx="0.5" transform="translate(0 6)" fill="#707070"/>
            <rect id="Rectangle_1564" data-name="Rectangle 1564" width="11" height="1" rx="0.5" transform="translate(0 2)" fill="#707070"/>
          </g>
        </g>
      </g>
    </g>
  </g>
</svg>
