<svg id="planet-earth" xmlns="http://www.w3.org/2000/svg" width="18.996" height="18.996" viewBox="0 0 18.996 18.996">
  <g id="Group_2039" data-name="Group 2039" transform="translate(13.677 17.031)">
    <g id="Group_2038" data-name="Group 2038">
      <path id="Path_685" data-name="Path 685" d="M369.336,459.221a.371.371,0,0,0-.507-.135l-.014.008a.371.371,0,1,0,.372.642l.014-.008A.371.371,0,0,0,369.336,459.221Z" transform="translate(-368.63 -459.036)"/>
    </g>
  </g>
  <g id="Group_2041" data-name="Group 2041" transform="translate(0 0)">
    <g id="Group_2040" data-name="Group 2040">
      <path id="Path_686" data-name="Path 686" d="M17.723,4.753a9.5,9.5,0,0,0-17.4,2.29A9.5,9.5,0,0,0,12.9,18.369a.371.371,0,0,0-.266-.693,8.7,8.7,0,0,1-8.37-1.15l.332-1.735.16-.052a1.156,1.156,0,0,0,.741-1.454l-.118-.362a.41.41,0,0,1,0-.256A1.154,1.154,0,0,0,4.5,11.175l-.837-.164L2.049,9.783a.371.371,0,0,0-.339-.058l-.946.307a8.746,8.746,0,0,1,0-1.013c.037.035.062.058.077.074A.389.389,0,0,0,1.2,9.28,5.389,5.389,0,0,0,1.867,9.2c.313-.046.624-.1.627-.1a.371.371,0,0,0,.245-.575l-.455-.667L2.936,7.4a.371.371,0,0,0,.106-.117l1.01-1.763.407-.436a1.567,1.567,0,0,0,.3-1.662,1.706,1.706,0,0,0-.676-.8A8.742,8.742,0,0,1,9.4.75l-.662.831-2.457.861a.371.371,0,0,0-.22.209L5.373,4.314a.371.371,0,0,0,.041.357l1,1.4a3.526,3.526,0,0,0-.45.558c-.073.1-.142.2-.19.257l-.124.141a3.472,3.472,0,0,0-.6.828,2.211,2.211,0,0,0,.183,2.235,2.082,2.082,0,0,0,1.966.844,2.889,2.889,0,0,0,.362-.073c.318-.079.419-.087.521.009.05.046.054.055.053.213a1.442,1.442,0,0,0,.033.368,1.172,1.172,0,0,0,.314.512.831.831,0,0,1,.135.172.924.924,0,0,1-.045.767l-.029.088a2.082,2.082,0,0,0,.272,1.489c.067.148.13.287.172.41.334.99.584,1.217.784,1.308a.773.773,0,0,0,.324.069,2.075,2.075,0,0,0,1.349-.811,1.14,1.14,0,0,0,.23-.54.591.591,0,0,1,.047-.166.972.972,0,0,1,.122-.156,1.287,1.287,0,0,0,.3-.5.816.816,0,0,1,.252-.4l.082-.088a1.19,1.19,0,0,0,.232-1.383c-.113-.366.085-.6.565-1.047a4.007,4.007,0,0,0,.589-.634.8.8,0,0,0,.157-.743c-.134-.311-.475-.364-.749-.406a1.229,1.229,0,0,1-.324-.076,1.754,1.754,0,0,1-.506-.766c-.027-.06-.054-.12-.081-.178-.048-.1-.1-.228-.147-.36a3.112,3.112,0,0,0-.548-1.021,2.37,2.37,0,0,0-1.065-.473c-.131-.035-.255-.069-.336-.1a.371.371,0,0,0-.213-.013.963.963,0,0,0-.4.164.461.461,0,0,0-.132.178,4.244,4.244,0,0,1-.438-.266l-.007,0a.526.526,0,0,0-.033-.357c-.207-.438-.9-.4-1.031-.393-.077.006-.175.01-.278.014-.162.006-.341.012-.518.032l.009-.025a.949.949,0,0,1,.891-.627h.211a.371.371,0,1,0,0-.742H8.127a1.693,1.693,0,0,0-1.436.8l-.553-.775.544-1.32,2.4-.842a.371.371,0,0,0,.167-.119L10.317.788a8.749,8.749,0,0,1,6.764,4.336,8.658,8.658,0,0,1,.874,2.124l-.157.14a.991.991,0,0,0-.33.721s0,.006,0,.009l-.256-.7a.926.926,0,0,0-.167-.287l-.457-.535a.93.93,0,0,0-.708-.326H15.32a.537.537,0,0,0-.447.835l.057.085a4.112,4.112,0,0,1-1.225.727l-.767-1.469V6.116a.371.371,0,0,0-.115-.268l-.691-.659A.372.372,0,0,0,12,5.107l-.622-.218a.371.371,0,0,0-.246.7l.546.192.518.494v.26a.371.371,0,0,0,.042.172l.96,1.839a.371.371,0,0,0,.457.176l.28-.1A4.855,4.855,0,0,0,15.675,7.5a.371.371,0,0,0,.046-.468l-.02-.03h.177a.189.189,0,0,1,.144.066l.457.535a.188.188,0,0,1,.034.058l.5,1.387a.371.371,0,0,0,.611.135l.24-.24a1.158,1.158,0,0,0,.307-.558,8.785,8.785,0,0,1-3.262,7.99.371.371,0,0,0,.458.584A9.5,9.5,0,0,0,17.723,4.753ZM1.755,10.491l1.53,1.163a.371.371,0,0,0,.153.069l.922.18a.412.412,0,0,1,.313.533,1.147,1.147,0,0,0,0,.716l.118.362a.413.413,0,0,1-.265.519l-.369.12a.371.371,0,0,0-.25.283l-.3,1.549a8.852,8.852,0,0,1-1.69-2.108,8.708,8.708,0,0,1-1.078-3.09ZM3.917,4.574l-.436.468a.373.373,0,0,0-.051.069l-.991,1.73-.881.63a.371.371,0,0,0-.091.511l.329.483c-.19.028-.36.052-.474.064l-.068-.064c-.088-.082-.211-.191-.393-.351A8.769,8.769,0,0,1,3.474,3.15a.965.965,0,0,1,.6.55A.823.823,0,0,1,3.917,4.574ZM6.942,6.6a2.379,2.379,0,0,1,.83-.117c.112,0,.219-.008.313-.016a1.009,1.009,0,0,1,.158,0,.371.371,0,0,0,.171.462c.07.037.166.1.269.17a2.138,2.138,0,0,0,.927.432.616.616,0,0,0,.5-.21l.016-.016a.4.4,0,0,0,.1-.122l.186.051a2.47,2.47,0,0,1,.719.266,2.633,2.633,0,0,1,.4.78c.056.144.108.281.168.407.025.054.05.11.076.167A2.317,2.317,0,0,0,12.55,9.94a1.534,1.534,0,0,0,.617.188l.081.013a3.587,3.587,0,0,1-.471.494c-.459.428-1.031.96-.768,1.809.124.4.13.444-.07.662l-.076.082a1.524,1.524,0,0,0-.418.679.579.579,0,0,1-.151.236,1.656,1.656,0,0,0-.208.275,1.2,1.2,0,0,0-.134.394.454.454,0,0,1-.078.217,2.163,2.163,0,0,1-.468.414.612.612,0,0,1-.311.124,2.647,2.647,0,0,1-.4-.871c-.053-.159-.128-.322-.2-.48a1.591,1.591,0,0,1-.242-.954l.028-.085a1.621,1.621,0,0,0,.025-1.284,1.338,1.338,0,0,0-.27-.385.69.69,0,0,1-.142-.188.8.8,0,0,1-.012-.188.92.92,0,0,0-.288-.759,1.2,1.2,0,0,0-1.206-.188,2.327,2.327,0,0,1-.271.056,1.333,1.333,0,0,1-1.277-.54,1.469,1.469,0,0,1-.115-1.485,2.817,2.817,0,0,1,.48-.652l.13-.147c.072-.083.152-.2.236-.316A2.682,2.682,0,0,1,6.942,6.6Z" transform="translate(0 -0.001)"/>
    </g>
  </g>
  <g id="Group_2043" data-name="Group 2043" transform="translate(12.991 11.825)">
    <g id="Group_2042" data-name="Group 2042">
      <path id="Path_687" data-name="Path 687" d="M352.371,319.66l-.178-.673a.371.371,0,0,0-.685-.082c-.041.075-.077.154-.113.231a1.593,1.593,0,0,1-.185.336.818.818,0,0,1-.218.129,1.02,1.02,0,0,0-.618.6,1.087,1.087,0,0,0-.025.523.338.338,0,0,1-.009.219l0,.009a1.249,1.249,0,0,0-.03,1.232.773.773,0,0,0,.631.393.6.6,0,0,0,.1-.008c.378-.062.663-.456.9-1.239l.436-1.471A.37.37,0,0,0,352.371,319.66Zm-1.151,1.46a2.25,2.25,0,0,1-.284.669l-.023-.031c-.071-.1.035-.35.105-.514l0-.009a1.044,1.044,0,0,0,.061-.618.389.389,0,0,1,0-.193c.015-.046.1-.091.232-.154.058-.028.122-.059.186-.1Z" transform="translate(-350.15 -318.711)"/>
    </g>
  </g>
  <g id="Group_2045" data-name="Group 2045" transform="translate(9.5 4.38)">
    <g id="Group_2044" data-name="Group 2044">
      <path id="Path_688" data-name="Path 688" d="M256.563,118.089l-.025-.009a.371.371,0,1,0-.246.7l.025.009a.371.371,0,0,0,.246-.7Z" transform="translate(-256.044 -118.059)"/>
    </g>
  </g>
</svg>
