<svg id="like-white" xmlns="http://www.w3.org/2000/svg" width="33.419" height="32.026" viewBox="0 0 33.419 32.026">
  <g id="Group_1883" data-name="Group 1883" transform="translate(0 0)">
    <g id="Group_1882" data-name="Group 1882">
      <path id="Path_663" data-name="Path 663" d="M33.419,29.813a3.094,3.094,0,0,0-.906-2.192,3.457,3.457,0,0,0,.891-2.658,3.6,3.6,0,0,0-3.631-3.157h-8.6a20.02,20.02,0,0,0,1.108-5.57c0-3.02-2.566-5.57-4.177-5.57a4.373,4.373,0,0,0-2.523.848.7.7,0,0,0-.262.544v4.722l-4.012,8.687-.166.085v-.266a.7.7,0,0,0-.7-.7H3.481A3.484,3.484,0,0,0,0,28.073v11.14a3.484,3.484,0,0,0,3.481,3.481H7.658a3.489,3.489,0,0,0,3.276-2.3,9.077,9.077,0,0,0,3.686.909H27.4a3.2,3.2,0,0,0,3.155-2.431,3.143,3.143,0,0,0-.251-2.093A3.121,3.121,0,0,0,31.7,32.6,3.12,3.12,0,0,0,33.419,29.813Zm-2.937,1.718a.7.7,0,0,0-.4,1.2,1.725,1.725,0,0,1-.993,2.978.7.7,0,0,0-.4,1.2,1.722,1.722,0,0,1,.5,1.661,1.8,1.8,0,0,1-1.795,1.34H14.621a6.6,6.6,0,0,1-3.684-1.189.7.7,0,0,0-1.189.493A2.091,2.091,0,0,1,7.658,41.3H3.481a2.091,2.091,0,0,1-2.089-2.089V28.073a2.091,2.091,0,0,1,2.089-2.089H9.747v.7a.7.7,0,0,0,.331.593.712.712,0,0,0,.677.029l1.392-.7a.7.7,0,0,0,.32-.33l4.177-9.051a.709.709,0,0,0,.064-.292v-4.5a2.936,2.936,0,0,1,1.392-.377c.763,0,2.785,1.9,2.785,4.177a21.682,21.682,0,0,1-1.346,6.018.7.7,0,0,0,.65.944h9.581a2.2,2.2,0,0,1,2.245,1.892,2.08,2.08,0,0,1-.991,1.97.7.7,0,0,0,.047,1.213,1.724,1.724,0,0,1-.59,3.257Z" transform="translate(0 -10.667)" fill="#fff"/>
    </g>
  </g>
  <g id="Group_1885" data-name="Group 1885" transform="translate(9.747 15.317)">
    <g id="Group_1884" data-name="Group 1884">
      <path id="Path_664" data-name="Path 664" d="M150.029,245.333a.7.7,0,0,0-.7.7v12.532a.7.7,0,1,0,1.392,0V246.029A.7.7,0,0,0,150.029,245.333Z" transform="translate(-149.333 -245.333)" fill="#fff"/>
    </g>
  </g>
</svg>
