<svg id="LL-widget" xmlns="http://www.w3.org/2000/svg" width="80.354" height="66.107" viewBox="0 0 80.354 66.107">
  <defs>
    <style>
      .cls-1 {
        fill: #fff;
      }
    </style>
  </defs>
  <g id="language-learning" transform="translate(0 -45.387)">
    <path id="Path_1394" data-name="Path 1394" class="cls-1" d="M79.177,88.546a1.177,1.177,0,0,0,1.177-1.177V65.845a2.981,2.981,0,0,0-2.977-2.977H73.847V59.131A2.249,2.249,0,0,0,71.6,56.884H56.421V48.528a3.144,3.144,0,0,0-3.141-3.141H46.895a1.177,1.177,0,0,0,0,2.354H53.28a.788.788,0,0,1,.787.787V66.137a.788.788,0,0,1-.787.787h-1a1.923,1.923,0,0,0-1.66.958l-1.314,2.276-1.314-2.275a1.922,1.922,0,0,0-1.66-.959H16.011a.788.788,0,0,1-.787-.787V48.528a.788.788,0,0,1,.787-.787H42.189a1.177,1.177,0,1,0,0-2.354H16.011a3.145,3.145,0,0,0-3.141,3.141v8.356H8.754a2.249,2.249,0,0,0-2.247,2.247v3.736H2.978A2.981,2.981,0,0,0,0,65.845v35.019a7.388,7.388,0,0,0,7.379,7.379h26a.586.586,0,0,1,.565.42c.032.108.051.132.338.806a2.925,2.925,0,0,0,2.8,2.025h6.189a2.925,2.925,0,0,0,2.8-2.025c.294-.692.306-.7.338-.806a.586.586,0,0,1,.565-.42h26a7.388,7.388,0,0,0,7.379-7.379V92.075a1.177,1.177,0,1,0-2.354,0v8.789a5.031,5.031,0,0,1-5.025,5.025h-26a2.925,2.925,0,0,0-2.8,2.025l-.292.681c-.044.1-.138.545-.61.545H37.082a.586.586,0,0,1-.565-.42c-.032-.107-.042-.111-.338-.806a2.925,2.925,0,0,0-2.8-2.025h-26a5.031,5.031,0,0,1-5.025-5.025V65.845a.624.624,0,0,1,.624-.623H6.507V99.183a2.249,2.249,0,0,0,2.247,2.247h6.12a1.177,1.177,0,0,0,0-2.354H8.861V59.238H12.87v6.9a3.144,3.144,0,0,0,3.141,3.141H39V96.216a2.863,2.863,0,0,1-2.86,2.86H19.58a1.177,1.177,0,0,0,0,2.354H36.14a5.206,5.206,0,0,0,4.037-1.918,5.206,5.206,0,0,0,4.037,1.918H71.6a2.249,2.249,0,0,0,2.247-2.247V65.221h3.529a.624.624,0,0,1,.623.623V87.369a1.177,1.177,0,0,0,1.177,1.177Zm-7.684,10.53H44.214a2.863,2.863,0,0,1-2.86-2.86V69.278h4.725l1.566,2.713a1.918,1.918,0,0,0,3.321,0l1.566-2.713h.748a3.129,3.129,0,0,0,2.3-1.01h9.9a1.177,1.177,0,0,0,0-2.354H56.42V59.238H71.492V99.076Z"/>
    <path id="Path_1395" data-name="Path 1395" class="cls-1" d="M313.6,227.438H295.49a1.177,1.177,0,1,0,0,2.354H313.6a1.177,1.177,0,0,0,0-2.354Z" transform="translate(-248.123 -153.48)"/>
    <path id="Path_1396" data-name="Path 1396" class="cls-1" d="M313.6,278.693H295.49a1.177,1.177,0,1,0,0,2.354H313.6a1.177,1.177,0,0,0,0-2.354Z" transform="translate(-248.123 -196.691)"/>
    <path id="Path_1397" data-name="Path 1397" class="cls-1" d="M313.6,329.949H295.49a1.177,1.177,0,1,0,0,2.354H313.6a1.177,1.177,0,0,0,0-2.354Z" transform="translate(-248.123 -239.903)"/>
    <path id="Path_1398" data-name="Path 1398" class="cls-1" d="M88.451,229.792h18.113a1.177,1.177,0,1,0,0-2.354H88.451a1.177,1.177,0,1,0,0,2.354Z" transform="translate(-73.577 -153.48)"/>
    <path id="Path_1399" data-name="Path 1399" class="cls-1" d="M88.451,281.047h18.113a1.177,1.177,0,0,0,0-2.354H88.451a1.177,1.177,0,0,0,0,2.354Z" transform="translate(-73.577 -196.691)"/>
    <path id="Path_1400" data-name="Path 1400" class="cls-1" d="M88.451,332.3h18.113a1.177,1.177,0,1,0,0-2.354H88.451a1.177,1.177,0,1,0,0,2.354Z" transform="translate(-73.577 -239.903)"/>
    <path id="Path_1401" data-name="Path 1401" class="cls-1" d="M248.5,416.781v.707a1.177,1.177,0,1,0,2.354,0v-.707a1.177,1.177,0,1,0-2.354,0Z" transform="translate(-209.5 -312.115)"/>
  </g>
</svg>
