<svg xmlns="http://www.w3.org/2000/svg" width="22" height="19.002" viewBox="0 0 22 19.002">
  <g id="new-comment" transform="translate(-24219.998 -24304.998)" fill="none">
    <path d="M24233.621,24321H24223a3,3,0,0,1-3-3v-10a3,3,0,0,1,3-3h16a3,3,0,0,1,3,3v10a3,3,0,0,1-3,3h-1.625l-1.879,3Z" stroke="none"/>
    <path d="M 24235.498046875 24322.115234375 L 24236.529296875 24320.466796875 L 24236.822265625 24319.998046875 L 24237.376953125 24319.998046875 L 24239.001953125 24319.998046875 C 24240.103515625 24319.998046875 24240.998046875 24319.1015625 24240.998046875 24318 L 24240.998046875 24308 C 24240.998046875 24306.896484375 24240.103515625 24305.998046875 24239.001953125 24305.998046875 L 24223.001953125 24305.998046875 C 24221.896484375 24305.998046875 24220.998046875 24306.896484375 24220.998046875 24308 L 24220.998046875 24318 C 24220.998046875 24319.1015625 24221.896484375 24319.998046875 24223.001953125 24319.998046875 L 24233.62109375 24319.998046875 L 24234.17578125 24319.998046875 L 24234.46875 24320.46875 L 24235.498046875 24322.115234375 M 24235.498046875 24324 L 24233.62109375 24320.998046875 L 24223.001953125 24320.998046875 C 24221.341796875 24320.998046875 24219.998046875 24319.654296875 24219.998046875 24318 L 24219.998046875 24308 C 24219.998046875 24306.345703125 24221.341796875 24304.998046875 24223.001953125 24304.998046875 L 24239.001953125 24304.998046875 C 24240.65625 24304.998046875 24241.998046875 24306.345703125 24241.998046875 24308 L 24241.998046875 24318 C 24241.998046875 24319.654296875 24240.65625 24320.998046875 24239.001953125 24320.998046875 L 24237.376953125 24320.998046875 L 24235.498046875 24324 Z" stroke="none"/>
  </g>
</svg>
