<svg id="Group_3963" data-name="Group 3963" xmlns="http://www.w3.org/2000/svg" width="25.899" height="25.899" viewBox="0 0 25.899 25.899">
  <defs>
    <style>
      .cls-1 {
        fill: #fff;
      }

      .cls-2, .cls-4 {
        fill: #00a19c;
      }

      .cls-3, .cls-4 {
        stroke: none;
      }
    </style>
  </defs>
  <g id="Group_3492" data-name="Group 3492">
    <g id="Path_1489" data-name="Path 1489" class="cls-1" transform="translate(0)">
      <path class="cls-3" d="M 12.94947052001953 25.39894104003906 C 9.624100685119629 25.39894104003906 6.49776029586792 24.10396957397461 4.146370410919189 21.75257110595703 C 1.794970512390137 19.40118026733398 0.500000536441803 16.27484130859375 0.500000536441803 12.94947052001953 C 0.500000536441803 9.624100685119629 1.794970512390137 6.49776029586792 4.146370410919189 4.146370410919189 C 6.49776029586792 1.794970512390137 9.624100685119629 0.500000536441803 12.94947052001953 0.500000536441803 C 16.27484130859375 0.500000536441803 19.40118026733398 1.794970512390137 21.75257110595703 4.146370410919189 C 24.10396957397461 6.49776029586792 25.39894104003906 9.624100685119629 25.39894104003906 12.94947052001953 C 25.39894104003906 16.27484130859375 24.10396957397461 19.40118026733398 21.75257110595703 21.75257110595703 C 19.40118026733398 24.10396957397461 16.27484130859375 25.39894104003906 12.94947052001953 25.39894104003906 Z"/>
      <path class="cls-4" d="M 12.94947052001953 1 C 9.757650375366211 1 6.756879806518555 2.242959976196289 4.499919891357422 4.499919891357422 C 2.242959976196289 6.756879806518555 1 9.757650375366211 1 12.94947052001953 C 1 16.14129066467285 2.242959976196289 19.14206123352051 4.499919891357422 21.39902114868164 C 6.756879806518555 23.65598106384277 9.757650375366211 24.89894104003906 12.94947052001953 24.89894104003906 C 16.14129066467285 24.89894104003906 19.14206123352051 23.65598106384277 21.39902114868164 21.39902114868164 C 23.65598106384277 19.14206123352051 24.89894104003906 16.14129066467285 24.89894104003906 12.94947052001953 C 24.89894104003906 9.757650375366211 23.65598106384277 6.756879806518555 21.39902114868164 4.499919891357422 C 19.14206123352051 2.242959976196289 16.14129066467285 1 12.94947052001953 1 M 12.94947052001953 0 C 20.10126113891602 0 25.89894104003906 5.797679901123047 25.89894104003906 12.94947052001953 C 25.89894104003906 20.10126113891602 20.10126113891602 25.89894104003906 12.94947052001953 25.89894104003906 C 5.797679901123047 25.89894104003906 0 20.10126113891602 0 12.94947052001953 C 0 5.797679901123047 5.797679901123047 0 12.94947052001953 0 Z"/>
    </g>
    <g id="Component_26" data-name="Component 26" transform="translate(6.639 6)">
      <g id="user" transform="translate(0 0)">
        <path id="Path_225" data-name="Path 225" class="cls-2" d="M90.44,6.877A3.283,3.283,0,0,0,92.85,5.87a3.343,3.343,0,0,0,1-2.431,3.343,3.343,0,0,0-1-2.431,3.386,3.386,0,0,0-4.819,0,3.342,3.342,0,0,0-1,2.431,3.342,3.342,0,0,0,1,2.431A3.284,3.284,0,0,0,90.44,6.877ZM88.617,1.6a2.562,2.562,0,0,1,3.647,0,2.5,2.5,0,0,1,.756,1.84,2.5,2.5,0,0,1-.756,1.84,2.562,2.562,0,0,1-3.647,0,2.5,2.5,0,0,1-.756-1.84,2.5,2.5,0,0,1,.756-1.84Zm0,0" transform="translate(-84.626 0)"/>
        <path id="Path_226" data-name="Path 226" class="cls-2" d="M11.776,251.4a8.564,8.564,0,0,0-.115-.9,7.158,7.158,0,0,0-.22-.907,4.5,4.5,0,0,0-.37-.846,3.187,3.187,0,0,0-.557-.733,2.454,2.454,0,0,0-.8-.507,2.744,2.744,0,0,0-1.022-.187,1.032,1.032,0,0,0-.554.237c-.166.109-.36.236-.577.375a3.29,3.29,0,0,1-.747.332,2.875,2.875,0,0,1-1.826,0,3.282,3.282,0,0,1-.746-.332c-.215-.138-.409-.265-.578-.376a1.031,1.031,0,0,0-.554-.237,2.741,2.741,0,0,0-1.022.187,2.451,2.451,0,0,0-.8.507,3.186,3.186,0,0,0-.557.733,4.509,4.509,0,0,0-.37.846,7.175,7.175,0,0,0-.22.907,8.506,8.506,0,0,0-.115.9c-.019.273-.028.556-.028.843a2.382,2.382,0,0,0,.7,1.794,2.5,2.5,0,0,0,1.8.662H9.309a2.5,2.5,0,0,0,1.8-.662,2.381,2.381,0,0,0,.7-1.794c0-.288-.01-.571-.029-.843Zm-1.241,2.031a1.682,1.682,0,0,1-1.226.431H2.5a1.682,1.682,0,0,1-1.226-.431,1.556,1.556,0,0,1-.44-1.187c0-.268.009-.532.026-.785a7.673,7.673,0,0,1,.1-.812,6.331,6.331,0,0,1,.193-.8,3.671,3.671,0,0,1,.3-.688,2.361,2.361,0,0,1,.409-.541,1.627,1.627,0,0,1,.533-.334,1.893,1.893,0,0,1,.653-.127c.029.016.081.045.165.1.17.112.367.24.584.38a4.091,4.091,0,0,0,.937.423,3.7,3.7,0,0,0,2.336,0,4.1,4.1,0,0,0,.938-.423c.222-.143.413-.268.584-.38.084-.055.135-.085.165-.1a1.894,1.894,0,0,1,.653.127,1.63,1.63,0,0,1,.532.334,2.356,2.356,0,0,1,.409.542,3.659,3.659,0,0,1,.3.688,6.315,6.315,0,0,1,.193.8,7.737,7.737,0,0,1,.1.813h0c.018.253.026.517.027.785a1.556,1.556,0,0,1-.44,1.187Zm0,0" transform="translate(0 -242.271)"/>
      </g>
    </g>
  </g>
</svg>
