<svg xmlns="http://www.w3.org/2000/svg" width="26" height="26" viewBox="0 0 26 26">
  <g id="Group_2243" data-name="Group 2243" transform="translate(0 -0.068)">
    <g id="Ellipse_70" data-name="Ellipse 70" transform="translate(0 0.068)" fill="none" stroke="#000" stroke-width="1">
      <circle cx="13" cy="13" r="13" stroke="none"/>
      <circle cx="13" cy="13" r="12.5" fill="none"/>
    </g>
    <g id="Polygon_7" data-name="Polygon 7" transform="translate(22.5 5.068) rotate(90)">
      <path d="M 12.66666889190674 14.5 L 3.33332896232605 14.5 C 2.801538944244385 14.5 2.320698976516724 14.22776031494141 2.047099113464355 13.77175045013428 C 1.773488998413086 13.31574058532715 1.759549021720886 12.76335048675537 2.009809017181396 12.29411029815674 L 6.676468849182129 3.544110298156738 C 6.94166898727417 3.046870231628418 7.43644905090332 2.750000238418579 7.999999046325684 2.750000238418579 C 8.563549041748047 2.750000238418579 9.058328628540039 3.046870231628418 9.323538780212402 3.544120311737061 L 13.99018859863281 12.29411029815674 C 14.24044895172119 12.76335048675537 14.22650909423828 13.31573009490967 13.95290946960449 13.7717399597168 C 13.67929935455322 14.22776031494141 13.1984691619873 14.5 12.66666889190674 14.5 Z" stroke="none"/>
      <path d="M 7.999999046325684 3.25 C 7.819599151611328 3.25 7.372479438781738 3.301589965820313 7.11763858795166 3.779410362243652 L 2.450979232788086 12.52941036224365 C 2.210498809814453 12.98031044006348 2.388249397277832 13.36852073669434 2.475838661193848 13.51449966430664 C 2.563419342041016 13.6604700088501 2.822309494018555 14 3.333329200744629 14 L 12.66666889190674 14 C 13.17768859863281 14 13.43657875061035 13.6604700088501 13.5241584777832 13.51449966430664 C 13.61174869537354 13.36852073669434 13.78949928283691 12.98031044006348 13.54901885986328 12.52941036224365 L 8.882358551025391 3.779419898986816 C 8.627509117126465 3.301589965820313 8.180398941040039 3.25 7.999999046325684 3.25 M 7.999995231628418 2.25 C 8.694114685058594 2.25 9.38823413848877 2.602940559387207 9.76470947265625 3.308819770812988 L 14.43136882781982 12.0588207244873 C 15.14188861846924 13.39103984832764 14.17650890350342 15 12.66666889190674 15 L 3.333329200744629 15 C 1.823489189147949 15 0.8581094741821289 13.39103984832764 1.568629264831543 12.0588207244873 L 6.235288619995117 3.308819770812988 C 6.611759185791016 2.602940559387207 7.305876731872559 2.25 7.999995231628418 2.25 Z" stroke="none"/>
    </g>
  </g>
</svg>
