<svg xmlns="http://www.w3.org/2000/svg" width="26.739" height="22.456" viewBox="0 0 26.739 22.456">
  <g id="Group_1380" data-name="Group 1380" transform="translate(0 162)">
    <g id="user_1_" data-name="user (1)" transform="translate(0 -162)">
      <path id="Path_230" data-name="Path 230" d="M237.961,377h-4.178a.783.783,0,0,0,0,1.567h4.178a.783.783,0,1,0,0-1.567Z" transform="translate(-220.832 -359.453)"/>
      <path id="Path_231" data-name="Path 231" d="M233.783,314.567h2.925a.783.783,0,0,0,0-1.567h-2.925a.783.783,0,0,0,0,1.567Z" transform="translate(-220.832 -298.795)"/>
      <path id="Path_232" data-name="Path 232" d="M26.739,47.215a6.215,6.215,0,0,0-12.086-2.037H2.35A2.353,2.353,0,0,0,0,47.528V61.106a2.353,2.353,0,0,0,2.35,2.35H21.83a2.353,2.353,0,0,0,2.35-2.35V52.237A6.21,6.21,0,0,0,26.739,47.215Zm-6.215-4.648a4.648,4.648,0,1,1-4.648,4.648A4.653,4.653,0,0,1,20.524,42.567Zm2.089,18.54a.784.784,0,0,1-.783.783H2.35a.784.784,0,0,1-.783-.783V47.528a.784.784,0,0,1,.783-.783H14.327q-.017.233-.018.47a6.215,6.215,0,0,0,8.3,5.853Z" transform="translate(0 -41)"/>
      <path id="Path_233" data-name="Path 233" d="M346.914,124.641a.783.783,0,0,0,.61.428.8.8,0,0,0,.09.005.783.783,0,0,0,.6-.282l2.089-2.507a.783.783,0,0,0-1.2-1l-1.322,1.587-.3-.6a.783.783,0,0,0-1.4.7Z" transform="translate(-327.927 -116.822)"/>
      <path id="Path_234" data-name="Path 234" d="M70.331,213.891a2.872,2.872,0,1,0-4.083,0A3.285,3.285,0,0,0,65,216.468v2.089a.783.783,0,0,0,.783.783H70.8a.783.783,0,0,0,.783-.783v-2.089A3.285,3.285,0,0,0,70.331,213.891Zm-3.347-2.018a1.306,1.306,0,1,1,1.306,1.306A1.307,1.307,0,0,1,66.985,211.872Zm3.029,5.9H66.567v-1.306a1.723,1.723,0,0,1,3.447,0Z" transform="translate(-61.605 -200.226)"/>
    </g>
  </g>
</svg>
