<svg xmlns="http://www.w3.org/2000/svg" width="55.8" height="55.8" viewBox="0 0 55.8 55.8">
  <defs>
    <style>
      .cls-1, .cls-2 {
        fill: #707070;
      }

      .cls-2 {
        stroke: #fff;
        stroke-width: 0.8px;
      }
    </style>
  </defs>
  <g id="Pub-Widget" transform="translate(0.4 0.4)">
    <g id="video-lesson">
      <path id="Path_1437" data-name="Path 1437" class="cls-1" d="M94.223,273.611A1.611,1.611,0,1,1,92.611,272,1.611,1.611,0,0,1,94.223,273.611Zm0,0" transform="translate(-81.225 -242.781)"/>
      <path id="Path_1438" data-name="Path 1438" class="cls-2" d="M211.857,90.187A1.611,1.611,0,0,0,211,91.61v13.105a1.611,1.611,0,0,0,2.515,1.334l9.668-6.553a1.611,1.611,0,0,0,0-2.668l-9.668-6.553a1.611,1.611,0,0,0-1.659-.09Zm2.366,4.463,5.185,3.514-5.185,3.514Zm0,0" transform="translate(-188.334 -80.331)"/>
      <path id="Path_1439" data-name="Path 1439" class="cls-2" d="M53.389,6.445a1.611,1.611,0,0,0,0-3.223H29.111V1.611a1.611,1.611,0,0,0-3.223,0V3.223H1.611a1.611,1.611,0,0,0,0,3.223H3.223V35.664H1.611a1.611,1.611,0,0,0,0,3.223H24.147L13.835,51.777H11.387a1.611,1.611,0,0,0,0,3.223h3.223a1.611,1.611,0,0,0,1.258-.6L25.889,41.869v11.52a1.611,1.611,0,0,0,3.223,0V41.869L39.132,54.4a1.611,1.611,0,0,0,1.258.6h3.223a1.611,1.611,0,0,0,0-3.223H41.165L30.853,38.887H53.389a1.611,1.611,0,0,0,0-3.223H51.777V6.445ZM48.555,35.664H6.445V6.445H48.555Zm0,0"/>
      <path id="Path_1440" data-name="Path 1440" class="cls-2" d="M151,273.611a1.611,1.611,0,0,0,1.611,1.611H178.5a1.611,1.611,0,0,0,0-3.223H152.611A1.611,1.611,0,0,0,151,273.611Zm0,0" transform="translate(-134.779 -242.781)"/>
    </g>
  </g>
</svg>
