<svg id="rate" xmlns="http://www.w3.org/2000/svg" width="28.545" height="28.545" viewBox="0 0 28.545 28.545">
  <defs>
    <style>
      .cls-1, .cls-2 {
        stroke: none;
      }

      .cls-2 {
        fill: #fff;
      }
    </style>
  </defs>
  <g id="Path_1457" data-name="Path 1457">
    <path class="cls-1" d="M 14.27259349822998 28.39510536193848 C 14.01480388641357 28.39510536193848 13.7724437713623 28.29472541809082 13.590163230896 28.11244583129883 L 9.456603050231934 23.9788646697998 L 9.412663459777832 23.93493461608887 L 9.350533485412598 23.93493461608887 L 1.11504340171814 23.93493461608887 C 0.5829234719276428 23.93493461608887 0.1500034481287003 23.50201416015625 0.1500034481287003 22.96989440917969 L 0.1500034481287003 1.115044951438904 C 0.1500034481287003 0.5829249024391174 0.5829234719276428 0.1500048935413361 1.11504340171814 0.1500048935413361 L 27.43006324768066 0.1500048935413361 C 27.96218299865723 0.1500048935413361 28.39510345458984 0.5829249024391174 28.39510345458984 1.115044951438904 L 28.39510345458984 22.96989440917969 C 28.39510345458984 23.50201416015625 27.96218299865723 23.93493461608887 27.43006324768066 23.93493461608887 L 19.1945743560791 23.93493461608887 L 19.13244438171387 23.93493461608887 L 19.08850288391113 23.9788646697998 L 14.95498371124268 28.11244583129883 C 14.77271366119385 28.29472541809082 14.53037357330322 28.39510536193848 14.27259349822998 28.39510536193848 Z M 2.08008337020874 2.080084800720215 L 2.08008337020874 2.230084896087646 L 2.08008337020874 21.85484504699707 L 2.08008337020874 22.00484466552734 L 2.230083465576172 22.00484466552734 L 9.812383651733398 22.00484466552734 C 10.0701732635498 22.00484466552734 10.31253337860107 22.10523414611816 10.49481391906738 22.28751564025879 L 14.16648387908936 25.9592342376709 L 14.27255344390869 26.06529426574707 L 14.37862300872803 25.9592342376709 L 18.05029296875 22.28751564025879 C 18.23257255554199 22.10523414611816 18.47493362426758 22.00484466552734 18.73272323608398 22.00484466552734 L 26.31502342224121 22.00484466552734 L 26.46502304077148 22.00484466552734 L 26.46502304077148 21.85484504699707 L 26.46502304077148 2.230084896087646 L 26.46502304077148 2.080084800720215 L 26.31502342224121 2.080084800720215 L 2.230083465576172 2.080084800720215 L 2.08008337020874 2.080084800720215 Z M 10.50584316253662 18.80781555175781 C 10.22539329528809 18.80781555175781 9.947593688964844 18.67690467834473 9.762733459472656 18.45763397216797 C 9.578923225402832 18.2396240234375 9.504623413085938 17.96260452270508 9.553503036499023 17.67761421203613 L 10.17403316497803 14.0597448348999 L 10.18736362457275 13.98201465606689 L 10.13089370727539 13.92697525024414 L 7.502293586730957 11.36476516723633 C 7.233793258666992 11.10305500030518 7.142833232879639 10.73338508605957 7.258993625640869 10.37588500976563 C 7.375173568725586 10.01827526092529 7.66606330871582 9.772594451904297 8.037113189697266 9.718685150146484 L 11.66964340209961 9.190824508666992 L 11.74768352508545 9.179485321044922 L 11.78258323669434 9.10877513885498 L 13.40715312957764 5.81711483001709 C 13.57306385040283 5.480915069580078 13.89654350280762 5.280204772949219 14.27246379852295 5.280204772949219 C 14.64846324920654 5.280204772949219 14.9719934463501 5.480915069580078 15.13790321350098 5.817104816436768 L 16.7624626159668 9.10877513885498 L 16.79736328125 9.179485321044922 L 16.87540435791016 9.190824508666992 L 20.50794410705566 9.718685150146484 C 20.87900352478027 9.772614479064941 21.16988372802734 10.01827526092529 21.28603363037109 10.37582492828369 C 21.40219306945801 10.73340511322021 21.31125259399414 11.10309505462646 21.04277420043945 11.36475467681885 L 18.41421318054199 13.92697525024414 L 18.35774421691895 13.98201465606689 L 18.37107276916504 14.0597448348999 L 18.99160385131836 17.67761421203613 C 19.0405330657959 17.96291542053223 18.96648406982422 18.23982429504395 18.78311347961426 18.45732498168945 C 18.59821319580078 18.6766242980957 18.31997299194336 18.80755424499512 18.0388240814209 18.80755424499512 C 17.88406372070313 18.80755424499512 17.73351287841797 18.76965522766113 17.59138298034668 18.69491577148438 L 14.34235382080078 16.98676490783691 L 14.27255344390869 16.95006561279297 L 14.2027530670166 16.98676490783691 L 10.95374298095703 18.69490432739258 C 10.81123352050781 18.76982498168945 10.6605339050293 18.80781555175781 10.50584316253662 18.80781555175781 Z M 14.27256298065186 14.89462471008301 C 14.42842388153076 14.89462471008301 14.58370304107666 14.93296527862549 14.72162342071533 15.00548458099365 L 16.4897632598877 15.93505477905273 L 16.7587833404541 16.07648468017578 L 16.7074031829834 15.7769250869751 L 16.36971282958984 13.80814456939697 C 16.31600379943848 13.49502468109131 16.41975402832031 13.17569446563721 16.64725303649902 12.95393466949463 L 18.07769393920898 11.55957508087158 L 18.29533386230469 11.34742450714111 L 17.99456405639648 11.30372524261475 L 16.01775360107422 11.0164852142334 C 15.70334339141846 10.97083473205566 15.43171310424805 10.77349472045898 15.29112339019775 10.48861503601074 L 14.40706348419189 8.697304725646973 L 14.27255344390869 8.424744606018066 L 14.13804340362549 8.697304725646973 L 13.25398349761963 10.48867511749268 C 13.11337375640869 10.77355480194092 12.8417329788208 10.9708948135376 12.52737331390381 11.01654529571533 L 10.55060386657715 11.30372524261475 L 10.24982357025146 11.34742450714111 L 10.46747303009033 11.55957508087158 L 11.89790344238281 12.95393466949463 C 12.12541389465332 13.17569446563721 12.22916316986084 13.49502468109131 12.17545318603516 13.80814456939697 L 11.83776378631592 15.7769250869751 L 11.78638362884521 16.07648468017578 L 12.05540370941162 15.93505477905273 L 13.82352352142334 15.00549507141113 C 13.96144390106201 14.93296527862549 14.11671352386475 14.89462471008301 14.27256298065186 14.89462471008301 Z"/>
    <path class="cls-2" d="M 1.115043640136719 0.2999954223632813 C 0.6656341552734375 0.2999954223632813 0.3000030517578125 0.6656246185302734 0.3000030517578125 1.115045547485352 L 0.3000030517578125 22.96989440917969 C 0.3000030517578125 23.41930389404297 0.6656341552734375 23.78493499755859 1.115043640136719 23.78493499755859 L 9.350532531738281 23.78493499755859 L 9.474794387817383 23.78493499755859 L 9.562664031982422 23.87280464172363 L 13.69623374938965 28.00637435913086 C 13.850172996521 28.16031455993652 14.05486297607422 28.24509429931641 14.2725830078125 28.24509429931641 C 14.49029350280762 28.24509429931641 14.69498348236084 28.16031455993652 14.8489236831665 28.00637435913086 L 18.98244476318359 23.87280464172363 L 19.07030487060547 23.78493499755859 L 19.19457244873047 23.78493499755859 L 27.43006324768066 23.78493499755859 C 27.87947273254395 23.78493499755859 28.24510383605957 23.41930389404297 28.24510383605957 22.96989440917969 L 28.24510383605957 1.115045547485352 C 28.24510383605957 0.6656246185302734 27.87947273254395 0.2999954223632813 27.43006324768066 0.2999954223632813 L 1.115043640136719 0.2999954223632813 M 26.61502265930176 22.15484428405762 L 26.31502342224121 22.15484428405762 L 18.73272323608398 22.15484428405762 C 18.51499366760254 22.15484428405762 18.310302734375 22.2396240234375 18.15635299682617 22.39357376098633 L 14.4846830368042 26.06529426574707 L 14.27255344390869 26.27743530273438 L 14.06042385101318 26.06529426574707 L 10.38875389099121 22.39357376098633 C 10.23480415344238 22.2396240234375 10.03011322021484 22.15484428405762 9.812383651733398 22.15484428405762 L 2.230083465576172 22.15484428405762 L 1.930084228515625 22.15484428405762 L 1.930084228515625 21.85484504699707 L 1.930084228515625 2.230085372924805 L 1.930084228515625 1.930084228515625 L 2.230083465576172 1.930084228515625 L 26.31502342224121 1.930084228515625 L 26.61502265930176 1.930084228515625 L 26.61502265930176 2.230085372924805 L 26.61502265930176 21.85484504699707 L 26.61502265930176 22.15484428405762 M 14.2723331451416 5.130205154418945 L 14.2723331451416 5.430204391479492 C 13.95488357543945 5.430204391479492 13.68173313140869 5.599655151367188 13.54166316986084 5.883495330810547 L 11.91709327697754 9.175155639648438 L 11.84729385375977 9.316585540771484 L 11.69121360778809 9.339265823364258 L 8.058683395385742 9.867124557495117 C 7.745412826538086 9.91264533996582 7.499794006347656 10.12016487121582 7.401643753051758 10.4222354888916 C 7.303533554077148 10.72420501708984 7.380292892456055 11.0363941192627 7.606983184814453 11.25734519958496 L 10.23559379577637 13.81955528259277 L 10.34854316711426 13.92964458465576 L 10.32187271118164 14.0850944519043 L 9.701343536376953 17.70297622680664 C 9.660062789916992 17.94363403320313 9.722593307495117 18.17731475830078 9.877412796020508 18.36095428466797 C 10.03413391113281 18.54683494567871 10.26905250549316 18.65781402587891 10.50583267211914 18.65781402587891 C 10.63595390319824 18.65781402587891 10.76316261291504 18.62562561035156 10.88393402099609 18.5621337890625 L 14.13295364379883 16.85399627685547 L 14.27255344390869 16.78060531616211 L 14.41215324401855 16.85399627685547 L 17.66119384765625 18.5621452331543 C 17.78158378601074 18.62545394897461 17.90863418579102 18.65755462646484 18.03882217407227 18.65755462646484 C 18.27631378173828 18.65755462646484 18.51168441772461 18.54655456542969 18.66843414306641 18.36063385009766 C 18.82282257080078 18.17751502990723 18.88508224487305 17.94394493103027 18.84376335144043 17.70296478271484 L 18.22323226928711 14.0850944519043 L 18.19657325744629 13.92964458465576 L 18.30951309204102 13.81955528259277 L 20.93808364868164 11.2573356628418 C 21.16474342346191 11.03642463684082 21.24148368835449 10.72421455383301 21.14336395263672 10.42217445373535 C 21.04525375366211 10.12015533447266 20.79964447021484 9.912664413452148 20.48636245727539 9.867124557495117 L 16.85383224487305 9.339265823364258 L 16.69775390625 9.316585540771484 L 16.62795257568359 9.175155639648438 L 15.00339317321777 5.883485794067383 C 14.8633337020874 5.599685668945313 14.59008312225342 5.430234909057617 14.2724437713623 5.430204391479492 L 14.2723331451416 5.130205154418945 M 16.9580135345459 16.35069465637207 L 16.41996383666992 16.06782531738281 L 14.6518030166626 15.13824462890625 C 14.53533363342285 15.07699489593506 14.40419387817383 15.0446252822876 14.27256298065186 15.0446252822876 C 14.14094352722168 15.0446252822876 14.0098237991333 15.07699489593506 13.89332389831543 15.13826465606689 L 12.12519264221191 16.06782531738281 L 11.58714294433594 16.35069465637207 L 11.68991279602051 15.75156497955322 L 12.02761268615723 13.7827844619751 C 12.07297325134277 13.51833534240723 11.98534393310547 13.24864482879639 11.79319381713867 13.06134510040283 L 10.36276435852051 11.66698455810547 L 9.927482604980469 11.24267578125 L 10.52904319763184 11.1552848815918 L 12.50581359863281 10.86809539794922 C 12.77131366729736 10.82954406738281 13.00072383880615 10.66288566589355 13.11947345733643 10.42228507995605 L 14.00353336334229 8.630914688110352 L 14.27255344390869 8.085803985595703 L 14.5415735244751 8.630914688110352 L 15.42564296722412 10.4222354888916 C 15.54436302185059 10.6628246307373 15.77377319335938 10.8294849395752 16.0393238067627 10.86804580688477 L 18.01613235473633 11.1552848815918 L 18.61767387390137 11.24269485473633 L 18.18240356445313 11.66698455810547 L 16.7519645690918 13.06134510040283 C 16.55982208251953 13.24864482879639 16.47219467163086 13.51833534240723 16.51755332946777 13.7827844619751 L 16.85524368286133 15.75156497955322 L 16.9580135345459 16.35069465637207 M 1.115043640136719 -5.7220458984375e-06 L 27.43006324768066 -5.7220458984375e-06 C 28.0459041595459 -5.7220458984375e-06 28.54510307312012 0.4992046356201172 28.54510307312012 1.115045547485352 L 28.54510307312012 22.96989440917969 C 28.54510307312012 23.58572387695313 28.0459041595459 24.08493423461914 27.43006324768066 24.08493423461914 L 19.19457244873047 24.08493423461914 L 15.06105327606201 28.218505859375 C 14.84331321716309 28.43624496459961 14.55795764923096 28.54509544372559 14.27258396148682 28.54509544372559 C 13.98721027374268 28.54509544372559 13.70181846618652 28.43622016906738 13.48410320281982 28.218505859375 L 9.350532531738281 24.08493423461914 L 1.115043640136719 24.08493423461914 C 0.4992027282714844 24.08493423461914 3.814697265625e-06 23.58572387695313 3.814697265625e-06 22.96989440917969 L 3.814697265625e-06 1.115045547485352 C 3.814697265625e-06 0.4992046356201172 0.4992027282714844 -5.7220458984375e-06 1.115043640136719 -5.7220458984375e-06 Z M 26.31502342224121 21.85484504699707 L 26.31502342224121 2.230085372924805 L 2.230083465576172 2.230085372924805 L 2.230083465576172 21.85484504699707 L 9.812383651733398 21.85484504699707 C 10.1081428527832 21.85484504699707 10.39175415039063 21.97231483459473 10.60088348388672 22.18144607543945 L 14.27255344390869 25.85316467285156 L 17.94422340393066 22.18144607543945 C 18.15335464477539 21.97231483459473 18.43696212768555 21.85484504699707 18.73272323608398 21.85484504699707 L 26.31502342224121 21.85484504699707 Z M 14.27246952056885 5.13020133972168 C 14.67033672332764 5.130243301391602 15.06830310821533 5.337125778198242 15.27241325378418 5.750724792480469 L 16.89697265625 9.042385101318359 L 20.52950286865234 9.570245742797852 C 21.44284439086914 9.702995300292969 21.80807304382324 10.82835578918457 21.14746284484863 11.47217559814453 L 18.51891326904297 14.03438472747803 L 19.13944244384766 17.65225601196289 C 19.26335525512695 18.37480163574219 18.68758392333984 18.95755767822266 18.03882217407227 18.95755767822266 C 17.86767578125 18.95755767822266 17.69134521484375 18.91695976257324 17.52156448364258 18.82767486572266 L 14.27255344390869 17.11953353881836 L 11.02353286743164 18.82767486572266 C 10.85326957702637 18.91719055175781 10.67692375183105 18.95781707763672 10.50583648681641 18.95781707763672 C 9.856100082397461 18.95781707763672 9.282234191894531 18.37185859680176 9.405662536621094 17.65225601196289 L 10.02619361877441 14.03438472747803 L 7.3975830078125 11.47217559814453 C 6.736642837524414 10.82796478271484 7.102663040161133 9.702884674072266 8.015542984008789 9.570245742797852 L 11.64807319641113 9.042385101318359 L 13.27264308929443 5.750724792480469 C 13.47683334350586 5.336959838867188 13.87460231781006 5.130159378051758 14.27246952056885 5.13020133972168 Z M 16.55956268310547 15.80228519439697 L 16.22187423706055 13.83350467681885 C 16.15982437133789 13.4717845916748 16.27974319458008 13.10270500183105 16.54255294799805 12.84652519226074 L 17.97299385070801 11.4521656036377 L 15.99618339538574 11.16492462158203 C 15.63296318054199 11.11218452453613 15.31902313232422 10.88410568237305 15.15661334991455 10.55499458312988 L 14.27255344390869 8.76368522644043 L 13.38849353790283 10.55505561828613 C 13.22608375549316 10.88410568237305 12.91214370727539 11.11224555969238 12.54892349243164 11.16498565673828 L 10.57217407226563 11.4521656036377 L 12.00260353088379 12.84652519226074 C 12.26542282104492 13.10270500183105 12.38534355163574 13.4717845916748 12.32329368591309 13.83350467681885 L 11.98559379577637 15.80228519439697 L 13.75372314453125 14.87272453308105 C 13.91612815856934 14.78731536865234 14.09432888031006 14.74462890625 14.27256202697754 14.74462890625 C 14.4507942199707 14.74462890625 14.62905883789063 14.78734016418457 14.79143333435059 14.87272453308105 L 16.55956268310547 15.80228519439697 Z"/>
  </g>
</svg>
