<svg id="send" xmlns="http://www.w3.org/2000/svg" width="23.955" height="20.82" viewBox="0 0 23.955 20.82">
  <defs>
    <style>
      .cls-1 {
        fill: #fff;
      }
    </style>
  </defs>
  <path id="Path_245" data-name="Path 245" class="cls-1" d="M23.939,34.342a.7.7,0,0,0-.936-.8L.452,42.147a.7.7,0,0,0,0,1.31L6.785,45.9V53.61a.7.7,0,0,0,1.329.316l2.62-5.2,6.394,4.745a.7.7,0,0,0,1.089-.359C24.186,33.54,23.928,34.391,23.939,34.342Zm-5.566,2.466L7.387,44.632,2.66,42.807ZM8.188,45.784l9.575-6.819C9.524,47.657,9.954,47.2,9.919,47.248c-.053.072.093-.208-1.73,3.41Zm8.976,5.967-5.628-4.177L21.712,36.84Z" transform="translate(-0.001 -33.492)"/>
</svg>
