<svg id="share-white" xmlns="http://www.w3.org/2000/svg" width="30.803" height="32.857" viewBox="0 0 30.803 32.857">
  <g id="Group_1888" data-name="Group 1888" transform="translate(0)">
    <path id="Path_669" data-name="Path 669" d="M41.028,21.305a5.771,5.771,0,0,0-4.645,2.347l-9.066-4.633a5.776,5.776,0,0,0-.188-3.794l9.5-5.709a5.752,5.752,0,1,0-.988-1.652l-9.525,5.723a5.775,5.775,0,1,0,.354,7.163l9.039,4.619a5.776,5.776,0,1,0,5.517-4.063Zm0-19.38a3.85,3.85,0,1,1-3.85,3.85A3.855,3.855,0,0,1,41.028,1.925ZM21.776,21.241a3.85,3.85,0,1,1,3.85-3.85A3.855,3.855,0,0,1,21.776,21.241Zm19.252,9.69a3.85,3.85,0,1,1,3.85-3.85A3.855,3.855,0,0,1,41.028,30.931Z" transform="translate(-16)" fill="#fff"/>
  </g>
</svg>
