<svg id="share_1_" data-name="share (1)" xmlns="http://www.w3.org/2000/svg" width="21.46" height="22.891" viewBox="0 0 21.46 22.891">
  <g id="Group_1888" data-name="Group 1888" transform="translate(0)">
    <path id="Path_669" data-name="Path 669" d="M33.437,14.843A4.021,4.021,0,0,0,30.2,16.478l-6.316-3.228a4.024,4.024,0,0,0-.131-2.644l6.62-3.977a4.007,4.007,0,1,0-.688-1.151L23.049,9.466a4.023,4.023,0,1,0,.247,4.99l6.3,3.218a4.024,4.024,0,1,0,3.843-2.831Zm0-13.5a2.683,2.683,0,1,1-2.683,2.683A2.686,2.686,0,0,1,33.437,1.341ZM20.024,14.8a2.683,2.683,0,1,1,2.683-2.683A2.686,2.686,0,0,1,20.024,14.8ZM33.437,21.55a2.683,2.683,0,1,1,2.683-2.683A2.686,2.686,0,0,1,33.437,21.55Z" transform="translate(-16)"/>
  </g>
</svg>
