<svg id="TA-widget" xmlns="http://www.w3.org/2000/svg" width="65.099" height="65.099" viewBox="0 0 65.099 65.099">
  <defs>
    <style>
      .cls-1 {
        fill: #707070;
      }
    </style>
  </defs>
  <g id="technical-support" transform="translate(0 0.001)">
    <path id="Path_1431" data-name="Path 1431" class="cls-1" d="M11.449,50.343A5.308,5.308,0,0,0,8.884,51,30.02,30.02,0,0,1,38.525,3.137a1.272,1.272,0,0,0,.5-2.493A32.792,32.792,0,0,0,32.549,0,32.549,32.549,0,0,0,7,52.721a5.342,5.342,0,1,0,4.445-2.378Zm1.978,7.318a2.8,2.8,0,1,1,.819-1.978A2.778,2.778,0,0,1,13.427,57.661Zm0,0"/>
    <path id="Path_1432" data-name="Path 1432" class="cls-1" d="M230.468,40.351a5.329,5.329,0,1,0-1.879,1.725A30.02,30.02,0,0,1,199,89.948a1.272,1.272,0,0,0-.5,2.494,32.815,32.815,0,0,0,6.418.633,32.55,32.55,0,0,0,25.544-52.723Zm-6.422-.982a2.8,2.8,0,1,1,1.978.819A2.779,2.779,0,0,1,224.046,39.369Zm0,0" transform="translate(-172.375 -27.976)"/>
    <path id="Path_1433" data-name="Path 1433" class="cls-1" d="M91.88,119.01a1.272,1.272,0,0,0,1.271,1.271h7.95a1.271,1.271,0,0,0,1.271-1.271v-2.465a19.911,19.911,0,0,0,4.772-1.978l1.74,1.74a1.271,1.271,0,0,0,1.8,0l5.619-5.623a1.272,1.272,0,0,0,0-1.8l-1.738-1.738a19.911,19.911,0,0,0,1.978-4.772H119a1.271,1.271,0,0,0,1.271-1.271v-7.95A1.271,1.271,0,0,0,119,91.882h-2.456a19.915,19.915,0,0,0-1.977-4.771l1.729-1.729a1.272,1.272,0,0,0,0-1.8l-5.624-5.619a1.271,1.271,0,0,0-1.8,0l-1.726,1.727a19.911,19.911,0,0,0-4.772-1.978V75.271A1.271,1.271,0,0,0,101.1,74h-7.95a1.272,1.272,0,0,0-1.271,1.271v2.443a19.894,19.894,0,0,0-4.771,1.977l-1.727-1.727a1.272,1.272,0,0,0-1.8,0l-5.623,5.62a1.271,1.271,0,0,0,0,1.8l1.729,1.729a19.908,19.908,0,0,0-1.978,4.771H75.26a1.271,1.271,0,0,0-1.271,1.271l0,7.95a1.271,1.271,0,0,0,1.271,1.272h2.456a19.911,19.911,0,0,0,1.978,4.772l-1.738,1.738a1.271,1.271,0,0,0,0,1.8l5.619,5.623a1.272,1.272,0,0,0,.9.373h0a1.271,1.271,0,0,0,.9-.372l1.74-1.74a19.927,19.927,0,0,0,4.772,1.978Zm-4.273-7.117a1.272,1.272,0,0,0-1.589.169l-1.548,1.548-3.822-3.825,1.547-1.547a1.271,1.271,0,0,0,.169-1.589,17.4,17.4,0,0,1-2.408-5.812,1.272,1.272,0,0,0-1.243-1H76.528l0-5.407h2.181a1.271,1.271,0,0,0,1.243-1,17.4,17.4,0,0,1,2.408-5.812,1.271,1.271,0,0,0-.169-1.589l-1.537-1.537,3.825-3.822L86.017,82.2a1.272,1.272,0,0,0,1.589.169,17.4,17.4,0,0,1,5.812-2.408,1.272,1.272,0,0,0,1-1.243V76.543H99.83v2.171a1.271,1.271,0,0,0,1,1.243,17.411,17.411,0,0,1,5.812,2.408,1.27,1.27,0,0,0,1.589-.169l1.536-1.535,3.825,3.822-1.537,1.537a1.271,1.271,0,0,0-.169,1.589,17.415,17.415,0,0,1,2.408,5.812,1.271,1.271,0,0,0,1.243,1h2.185v5.407h-2.185a1.272,1.272,0,0,0-1.243,1,17.4,17.4,0,0,1-2.408,5.812,1.272,1.272,0,0,0,.169,1.589l1.547,1.547-3.822,3.825-1.548-1.548a1.271,1.271,0,0,0-1.589-.169,17.415,17.415,0,0,1-5.812,2.408,1.271,1.271,0,0,0-1,1.243v2.194H94.423v-2.194a1.272,1.272,0,0,0-1-1.243,17.4,17.4,0,0,1-5.812-2.408Zm0,0" transform="translate(-64.578 -64.592)"/>
    <path id="Path_1434" data-name="Path 1434" class="cls-1" d="M194.383,183.877a10.506,10.506,0,1,0-10.506,10.506A10.518,10.518,0,0,0,194.383,183.877Zm-18.469,0a7.963,7.963,0,1,1,7.963,7.963A7.972,7.972,0,0,1,175.914,183.877Zm0,0" transform="translate(-151.328 -151.328)"/>
    <path id="Path_1435" data-name="Path 1435" class="cls-1" d="M339.349,20.353a1.273,1.273,0,1,0-.9-.372A1.281,1.281,0,0,0,339.349,20.353Zm0,0" transform="translate(-295.093 -15.545)"/>
    <path id="Path_1436" data-name="Path 1436" class="cls-1" d="M155.63,474.359a1.272,1.272,0,1,0,.9.372A1.282,1.282,0,0,0,155.63,474.359Zm0,0" transform="translate(-134.733 -414.046)"/>
  </g>
</svg>
