<svg xmlns="http://www.w3.org/2000/svg" width="16" height="16" viewBox="0 0 16 16">
  <g id="Group_1705" data-name="Group 1705" transform="translate(0 -0.001)">
    <g id="user" transform="translate(2.775 1.911)">
      <path id="Path_225" data-name="Path 225" d="M90.142,6.221a3.01,3.01,0,0,0,2.2-.911,3.01,3.01,0,0,0,.911-2.2,3.01,3.01,0,0,0-.911-2.2,3.11,3.11,0,0,0-4.4,0,3.01,3.01,0,0,0-.911,2.2,3.01,3.01,0,0,0,.911,2.2A3.011,3.011,0,0,0,90.142,6.221ZM88.478,1.446a2.353,2.353,0,0,1,3.328,0A2.249,2.249,0,0,1,92.5,3.11a2.249,2.249,0,0,1-.69,1.664,2.353,2.353,0,0,1-3.328,0,2.248,2.248,0,0,1-.69-1.664,2.248,2.248,0,0,1,.69-1.664Zm0,0" transform="translate(-84.837 0)" fill="#989898"/>
      <path id="Path_226" data-name="Path 226" d="M10.748,251.009a7.683,7.683,0,0,0-.1-.816,6.429,6.429,0,0,0-.2-.82,4.054,4.054,0,0,0-.337-.765,2.885,2.885,0,0,0-.508-.663,2.241,2.241,0,0,0-.731-.459,2.524,2.524,0,0,0-.933-.169.947.947,0,0,0-.506.214c-.152.1-.329.213-.527.34a3.017,3.017,0,0,1-.681.3,2.646,2.646,0,0,1-1.667,0,3.009,3.009,0,0,1-.681-.3c-.2-.125-.373-.24-.527-.34a.946.946,0,0,0-.505-.214,2.522,2.522,0,0,0-.933.169,2.24,2.24,0,0,0-.731.459,2.886,2.886,0,0,0-.508.663,4.061,4.061,0,0,0-.337.765,6.444,6.444,0,0,0-.2.82,7.63,7.63,0,0,0-.1.816c-.017.247-.026.5-.026.763a2.144,2.144,0,0,0,.637,1.622,2.292,2.292,0,0,0,1.641.6H8.5a2.293,2.293,0,0,0,1.641-.6,2.144,2.144,0,0,0,.637-1.622c0-.26-.009-.517-.026-.763Zm-1.133,1.837a1.544,1.544,0,0,1-1.119.39H2.278a1.544,1.544,0,0,1-1.119-.39,1.4,1.4,0,0,1-.4-1.074c0-.242.008-.481.024-.71a6.88,6.88,0,0,1,.095-.735,5.686,5.686,0,0,1,.176-.723,3.306,3.306,0,0,1,.274-.622,2.138,2.138,0,0,1,.374-.49,1.487,1.487,0,0,1,.486-.3,1.742,1.742,0,0,1,.6-.115c.027.014.074.041.15.091.156.1.335.217.533.344a3.749,3.749,0,0,0,.855.382,3.4,3.4,0,0,0,2.132,0,3.754,3.754,0,0,0,.856-.382c.2-.13.377-.242.533-.343.076-.05.124-.077.15-.091a1.743,1.743,0,0,1,.6.115,1.49,1.49,0,0,1,.486.3,2.133,2.133,0,0,1,.374.49,3.3,3.3,0,0,1,.275.622,5.671,5.671,0,0,1,.177.723,6.941,6.941,0,0,1,.095.735h0c.016.228.024.467.024.71a1.4,1.4,0,0,1-.4,1.074Zm0,0" transform="translate(0 -241.078)" fill="#989898"/>
    </g>
    <g id="Ellipse_10" data-name="Ellipse 10" transform="translate(0 0.001)" fill="none" stroke="#989898" stroke-width="0.8">
      <circle cx="8" cy="8" r="8" stroke="none"/>
      <circle cx="8" cy="8" r="7.6" fill="none"/>
    </g>
  </g>
</svg>
