<svg xmlns="http://www.w3.org/2000/svg" width="16" height="16" viewBox="0 0 16 16">
  <defs>
    <style>
      .cls-1 {
        fill: #fff;
      }

      .cls-2, .cls-4 {
        fill: none;
      }

      .cls-2 {
        stroke: #fff;
        stroke-width: 0.8px;
      }

      .cls-3 {
        stroke: none;
      }
    </style>
  </defs>
  <g id="Group_2664" data-name="Group 2664" transform="translate(-18 -282)">
    <g id="user" transform="translate(21.775 283.911)">
      <path id="Path_225" data-name="Path 225" class="cls-1" d="M89.559,5.054a2.445,2.445,0,0,0,1.787-.74,2.445,2.445,0,0,0,.74-1.787A2.446,2.446,0,0,0,91.346.74a2.527,2.527,0,0,0-3.574,0,2.445,2.445,0,0,0-.74,1.787,2.445,2.445,0,0,0,.74,1.787A2.446,2.446,0,0,0,89.559,5.054ZM88.207,1.175a1.912,1.912,0,0,1,2.7,0,1.827,1.827,0,0,1,.56,1.352,1.827,1.827,0,0,1-.56,1.352,1.911,1.911,0,0,1-2.7,0,1.827,1.827,0,0,1-.56-1.352,1.827,1.827,0,0,1,.56-1.352Zm0,0" transform="translate(-85.248 0)"/>
      <path id="Path_226" data-name="Path 226" class="cls-1" d="M8.732,250.316a6.242,6.242,0,0,0-.085-.663,5.224,5.224,0,0,0-.163-.667,3.294,3.294,0,0,0-.274-.622,2.345,2.345,0,0,0-.413-.538,1.821,1.821,0,0,0-.594-.373,2.051,2.051,0,0,0-.758-.137.769.769,0,0,0-.411.174l-.428.276a2.452,2.452,0,0,1-.554.244,2.15,2.15,0,0,1-1.354,0,2.444,2.444,0,0,1-.553-.244l-.428-.276a.769.769,0,0,0-.411-.174,2.049,2.049,0,0,0-.758.137,1.819,1.819,0,0,0-.594.373,2.344,2.344,0,0,0-.413.538,3.3,3.3,0,0,0-.274.622,5.236,5.236,0,0,0-.163.666,6.2,6.2,0,0,0-.085.663c-.014.2-.021.409-.021.62a1.742,1.742,0,0,0,.517,1.318,1.863,1.863,0,0,0,1.333.486H6.9a1.863,1.863,0,0,0,1.333-.486,1.742,1.742,0,0,0,.518-1.318c0-.211-.007-.42-.021-.62Zm-.92,1.492a1.254,1.254,0,0,1-.909.317H1.851a1.254,1.254,0,0,1-.909-.317,1.138,1.138,0,0,1-.327-.873c0-.2.006-.391.019-.577a5.59,5.59,0,0,1,.077-.6,4.621,4.621,0,0,1,.143-.588,2.686,2.686,0,0,1,.223-.505,1.736,1.736,0,0,1,.3-.4,1.208,1.208,0,0,1,.395-.246,1.415,1.415,0,0,1,.484-.093c.022.011.06.033.122.074l.433.279a3.047,3.047,0,0,0,.695.311,2.764,2.764,0,0,0,1.732,0,3.048,3.048,0,0,0,.7-.311l.433-.279c.062-.04.1-.062.122-.074a1.416,1.416,0,0,1,.484.093,1.21,1.21,0,0,1,.395.246,1.732,1.732,0,0,1,.3.4,2.677,2.677,0,0,1,.223.505,4.605,4.605,0,0,1,.143.588,5.64,5.64,0,0,1,.077.6h0c.013.186.02.38.02.577a1.138,1.138,0,0,1-.327.873Zm0,0" transform="translate(0 -242.248)"/>
    </g>
    <g id="Ellipse_92" data-name="Ellipse 92" class="cls-2" transform="translate(18 282)">
      <circle class="cls-3" cx="8" cy="8" r="8"/>
      <circle class="cls-4" cx="8" cy="8" r="7.6"/>
    </g>
  </g>
</svg>
