<svg xmlns="http://www.w3.org/2000/svg" width="22.069" height="14.066" viewBox="0 0 22.069 14.066">
  <g id="view" transform="translate(0 0)">
    <g id="Group_873" data-name="Group 873" transform="translate(0 0)">
      <g id="Group_872" data-name="Group 872">
        <path id="Path_231" data-name="Path 231" d="M21.929,99.439c-.2-.27-4.895-6.6-10.895-6.6S.337,99.169.14,99.439a.728.728,0,0,0,0,.859c.2.27,4.895,6.6,10.895,6.6s10.7-6.334,10.895-6.6A.727.727,0,0,0,21.929,99.439Zm-10.895,6.007c-4.419,0-8.247-4.2-9.38-5.578,1.132-1.376,4.951-5.577,9.38-5.577s8.247,4.2,9.38,5.578C19.283,101.244,15.463,105.446,11.035,105.446Z" transform="translate(0 -92.835)"/>
      </g>
    </g>
    <g id="Group_875" data-name="Group 875" transform="translate(6.669 2.668)">
      <g id="Group_874" data-name="Group 874">
        <path id="Path_232" data-name="Path 232" d="M159.087,154.725a4.365,4.365,0,1,0,4.365,4.365A4.37,4.37,0,0,0,159.087,154.725Zm0,7.276a2.91,2.91,0,1,1,2.91-2.91A2.913,2.913,0,0,1,159.087,162Z" transform="translate(-154.722 -154.725)"/>
      </g>
    </g>
  </g>
</svg>
